SplineFontDB: 3.0
FontName: Classica-BookOblique
FullName: Classica Book Oblique
FamilyName: Classica
Weight: Book
Copyright: Copyright (c) 2020-2024 by Wojciech Kalinowski "wmk69" with Reserved Font Name "Classica-BookOblique".\nThis Font Software is licensed under the SIL Open Font License, Version 1.1.
Version: 2.1.1; 2021-05-14
ItalicAngle: -12
UnderlinePosition: -80
UnderlineWidth: 200
Ascent: 1638
Descent: 410
InvalidEm: 0
LayerCount: 2
Layer: 0 1 "Warstwa t+AUIA-a" 1
Layer: 1 1 "Plan pierwszy" 0
XUID: [1021 783 23647091 2952791]
StyleMap: 0x0001
FSType: 0
OS2Version: 3
OS2_WeightWidthSlopeOnly: 0
OS2_UseTypoMetrics: 1
CreationTime: 1260698820
ModificationTime: 1620982381
PfmFamily: 17
TTFWeight: 400
TTFWidth: 5
LineGap: 300
VLineGap: 0
Panose: 2 14 5 2 5 5 4 13 5 4
OS2TypoAscent: 2000
OS2TypoAOffset: 0
OS2TypoDescent: -500
OS2TypoDOffset: 0
OS2TypoLinegap: 300
OS2WinAscent: 2000
OS2WinAOffset: 0
OS2WinDescent: 500
OS2WinDOffset: 0
HheadAscent: 2000
HheadAOffset: 0
HheadDescent: -500
HheadDOffset: 0
OS2SubXSize: 1434
OS2SubYSize: 1331
OS2SubXOff: 0
OS2SubYOff: 287
OS2SupXSize: 1434
OS2SupYSize: 1331
OS2SupXOff: 0
OS2SupYOff: 977
OS2StrikeYSize: 102
OS2StrikeYPos: 512
OS2CapHeight: 1510
OS2XHeight: 1100
OS2Vendor: '    '
OS2CodePages: 20000093.00000000
OS2UnicodeRanges: 8000002f.4000204b.00000000.00000000
Lookup: 258 0 0 "'kern' Horizontal Kerning lookup 0" { "'kern' Horizontal Kerning lookup 0-1 subtable" [307,0,6] } ['kern' ('DFLT' <'dflt' > 'grek' <'dflt' > 'latn' <'dflt' > ) ]
MarkAttachClasses: 1
DEI: 91125
KernClass2: 61 47 "'kern' Horizontal Kerning lookup 0-1 subtable"
 252 H I J M N U Igrave Iacute Icircumflex Idieresis Ntilde Ugrave Uacute Ucircumflex Udieresis Hcircumflex Hbar Itilde Imacron Ibreve Iogonek Idotaccent IJ Jcircumflex Nacute Ncommaaccent Ncaron Utilde Umacron Ubreve Uring Uhungarumlaut Uogonek uni1E40 Eng
 84 A Agrave Aacute Acircumflex Atilde Adieresis Aring Amacron Abreve Aogonek Aringacute

StartChar: .notdef
Encoding: 65536 -1 0
Width: 994
Flags: W
HStem: 0 68<274 748> 1442 68<567 1041>
VStem: 150 694<0 694> 471 694<816 1510>
DStem2: 150 0 259.546 0 0.207912 0.978148<92.2951 1497.19> 733.546 0 844 0 0.207912 0.978148<69.5192 1474.41>
LayerCount: 2
Fore
SplineSet
150 0 m 1,0,-1
 471 1510 l 1,1,-1
 1165 1510 l 1,2,-1
 844 0 l 1,3,-1
 150 0 l 1,0,-1
274 68 m 1,4,-1
 748 68 l 1,5,-1
 1041 1442 l 1,6,-1
 567 1442 l 1,7,-1
 274 68 l 1,4,-1
EndSplineSet
Validated: 1
EndChar

StartChar: exclam
Encoding: 33 33 4
Width: 692
GlyphClass: 2
Flags: W
HStem: -20 264<291.164 448.692> 1490 20G<521 813>
VStem: 236 267<34.1802 189.617> 334 172<350 522>
DStem2: 255.354 -20 427.354 -20 0.207912 0.978148<414.027 1490.77>
LayerCount: 2
Fore
SplineSet
521 1510 m 1,0,-1
 813 1510 l 1,1,2
 743 1356 743 1356 709 1210 c 2,3,-1
 506 350 l 25,4,-1
 334 350 l 25,5,-1
 497 1210 l 2,6,7
 522 1342 522 1342 522 1465 c 0,8,9
 522 1483 522 1483 521 1510 c 1,0,-1
342 -20 m 0,10,11
 288 -20 288 -20 258 18 c 0,12,13
 236 46 236 46 236 83 c 0,14,15
 236 95 236 95 240 112 c 0,16,17
 253 168 253 168 298 206 c 128,-1,18
 343 244 343 244 398 244 c 0,19,20
 454 244 454 244 482 206 c 0,21,22
 503 178 503 178 503 142 c 0,23,24
 503 124 503 124 500 112 c 0,25,26
 486 56 486 56 442 18 c 0,27,28
 397 -20 397 -20 342 -20 c 0,10,11
EndSplineSet
Validated: 1
EndChar

StartChar: quotedbl
Encoding: 34 34 5
Width: 608
GlyphClass: 2
Flags: W
HStem: 1120 410<375 469.72 673 767.72>
VStem: 318 565
LayerCount: 2
Fore
SplineSet
673 1530 m 1,0,-1
 883 1530 l 1,1,2
 821 1380 821 1380 766 1120 c 9,3,-1
 616 1120 l 17,4,5
 671 1380 671 1380 673 1530 c 1,0,-1
375 1530 m 1,6,-1
 585 1530 l 1,7,8
 523 1380 523 1380 468 1120 c 9,9,-1
 318 1120 l 17,10,11
 373 1380 373 1380 375 1530 c 1,6,-1
EndSplineSet
Validated: 1
EndChar

StartChar: numbersign
Encoding: 35 35 6
Width: 1359
GlyphClass: 2
Flags: W
HStem: 484 184<339.961 549.186 1053.81 1265.04> 514 124<346.657 553 706 897 1050 1258.31> 828 184<411.961 624.124 1127.78 1337.04> 858 124<418.657 628 780 972 1124 1330.31>
DStem2: 503.142 268 627.354 268 0.207912 0.978148<404.091 602.088> 847.354 268 971.142 268 0.207912 0.978148<405.025 603.022>
LayerCount: 2
Fore
SplineSet
752 858 m 1,0,-1
 706 638 l 1,1,-1
 926 638 l 1,2,-1
 972 858 l 1,3,-1
 752 858 l 1,0,-1
677 1226 m 1,4,-1
 861 1226 l 1,5,6
 810 1104 810 1104 780 982 c 1,7,-1
 997 982 l 1,8,9
 1019 1103 1019 1103 1021 1228 c 1,10,-1
 1205 1228 l 1,11,12
 1154 1105 1154 1105 1124 983 c 1,13,14
 1245 988 1245 988 1373 1012 c 1,15,-1
 1334 828 l 1,16,17
 1216 852 1216 852 1096 857 c 1,18,-1
 1050 639 l 1,19,20
 1172 644 1172 644 1301 668 c 1,21,-1
 1262 484 l 1,22,23
 1144 508 1144 508 1024 513 c 1,24,25
 1002 391 1002 391 1001 270 c 1,26,-1
 817 270 l 1,27,28
 867 392 867 392 897 514 c 1,29,-1
 679 514 l 1,30,31
 658 391 658 391 657 268 c 1,32,-1
 473 268 l 1,33,34
 523 391 523 391 553 513 c 1,35,36
 431 508 431 508 304 484 c 1,37,-1
 343 668 l 1,38,39
 460 644 460 644 582 639 c 1,40,-1
 628 857 l 1,41,42
 504 853 504 853 376 828 c 1,43,-1
 415 1012 l 1,44,45
 532 988 532 988 653 983 c 1,46,47
 675 1103 675 1103 677 1226 c 1,4,-1
EndSplineSet
Validated: 1
EndChar

StartChar: dollar
Encoding: 36 36 7
Width: 1070
GlyphClass: 2
Flags: W
HStem: -20 126<326.367 507.39> 1406 123<937 1016.09>
VStem: 428 201<1039.44 1293.05> 473 101<-183 -82> 871 100<1590 1690> 874 217<328.523 612.369>
DStem2: 473 -183 573.362 -183 0.207912 0.978148<23.9335 168.671 351.079 913.386 1197.18 1613.17 1771.06 1914.82> 722 988 605 812 0.783839 -0.620964<-146.06 0 214.049 379.534>
LayerCount: 2
Fore
SplineSet
508 -18 m 1,0,1
 475 -20 475 -20 441 -20 c 0,2,3
 251 -20 251 -20 99 88 c 1,4,-1
 163 389 l 1,5,-1
 173 389 l 1,6,7
 194 301 194 301 234 242 c 0,8,9
 326 106 326 106 480 106 c 0,10,11
 509 106 509 106 535 110 c 1,12,-1
 673 758 l 1,13,-1
 605 812 l 2,14,15
 428 952 428 952 428 1123 c 0,16,17
 428 1163 428 1163 438 1204 c 0,18,19
 478 1373 478 1373 649 1466 c 0,20,21
 738 1515 738 1515 836 1526 c 1,22,-1
 871 1690 l 1,23,-1
 971 1690 l 1,24,-1
 937 1529 l 1,25,26
 1056 1522 1056 1522 1152 1474 c 1,27,-1
 1099 1223 l 1,28,-1
 1089 1223 l 1,29,30
 1081 1254 1081 1254 1068 1284 c 0,31,32
 1019 1398 1019 1398 911 1406 c 1,33,-1
 808 922 l 1,34,-1
 869 875 l 2,35,36
 1091 705 1091 705 1091 511 c 0,37,38
 1091 469 1091 469 1081 427 c 0,39,40
 1037 243 1037 243 871 116 c 0,41,42
 757 28 757 28 612 -3 c 1,43,-1
 574 -180 l 1,44,-1
 473 -183 l 1,45,-1
 508 -18 l 1,0,1
722 988 m 1,46,-1
 808 1395 l 1,47,48
 770 1384 770 1384 739 1363 c 0,49,50
 653 1306 653 1306 634 1210 c 0,51,52
 629 1186 629 1186 629 1163 c 0,53,54
 629 1062 629 1062 722 988 c 1,46,-1
759 690 m 1,55,-1
 642 140 l 1,56,57
 698 166 698 166 747 212 c 0,58,59
 844 303 844 303 868 418 c 0,60,61
 874 447 874 447 874 475 c 0,62,63
 874 598 874 598 759 690 c 1,55,-1
EndSplineSet
Validated: 1
EndChar

StartChar: percent
Encoding: 37 37 8
Width: 1646
GlyphClass: 2
Flags: W
HStem: -20 100<1081.61 1302.21> 0 21G<370 629.5> 529 101<1157.54 1377.74> 880 100<588.611 809.214> 1429 101<665.035 885.236> 1490 20G<1356 1611>
VStem: 398 149<1047.22 1302.17> 891 149<147.223 402.172> 927 149<1108.29 1361.78> 1420 149<208.289 461.777>
DStem2: 1228 1225 1402 1251 0.557671 0.830062<-1366.16 321.489>
LayerCount: 2
Fore
SplineSet
1161 -20 m 0,0,1
 1026 -20 1026 -20 952 69 c 0,2,3
 891 142 891 142 891 235 c 0,4,5
 891 269 891 269 899 305 c 0,6,7
 930 449 930 449 1049 544 c 0,8,9
 1158 630 1158 630 1299 630 c 0,10,11
 1434 630 1434 630 1508 541 c 0,12,13
 1569 469 1569 469 1569 374 c 0,14,15
 1569 341 1569 341 1561 305 c 0,16,17
 1531 162 1531 162 1411 66 c 0,18,19
 1303 -20 1303 -20 1161 -20 c 0,0,1
1182 80 m 0,20,21
 1260 80 1260 80 1328 146 c 0,22,23
 1392 209 1392 209 1413 305 c 0,24,25
 1420 339 1420 339 1420 369 c 0,26,27
 1420 424 1420 424 1395 463 c 0,28,29
 1353 529 1353 529 1277 529 c 0,30,31
 1199 529 1199 529 1131 463 c 0,32,33
 1067 401 1067 401 1047 305 c 0,34,35
 1040 270 1040 270 1040 240 c 0,36,37
 1040 185 1040 185 1064 146 c 0,38,39
 1105 80 1105 80 1182 80 c 0,20,21
806 1530 m 0,40,41
 941 1530 941 1530 1015 1441 c 0,42,43
 1076 1369 1076 1369 1076 1274 c 0,44,45
 1076 1241 1076 1241 1068 1205 c 0,46,47
 1038 1062 1038 1062 918 966 c 0,48,49
 810 880 810 880 668 880 c 0,50,51
 533 880 533 880 459 969 c 0,52,53
 398 1042 398 1042 398 1135 c 0,54,55
 398 1169 398 1169 406 1205 c 0,56,57
 437 1349 437 1349 556 1444 c 0,58,59
 665 1530 665 1530 806 1530 c 0,40,41
785 1429 m 0,60,61
 707 1429 707 1429 639 1363 c 0,62,63
 575 1301 575 1301 554 1205 c 0,64,65
 547 1170 547 1170 547 1140 c 0,66,67
 547 1085 547 1085 571 1046 c 0,68,69
 612 980 612 980 689 980 c 0,70,71
 767 980 767 980 835 1046 c 0,72,73
 899 1109 899 1109 920 1205 c 0,74,75
 927 1240 927 1240 927 1270 c 0,76,77
 927 1324 927 1324 903 1363 c 0,78,79
 861 1429 861 1429 785 1429 c 0,60,61
370 0 m 1,80,81
 483 116 483 116 579 259 c 10,82,-1
 1228 1225 l 2,83,84
 1323 1367 1323 1367 1389 1510 c 1,85,-1
 1611 1510 l 1,86,87
 1498 1394 1498 1394 1402 1251 c 2,88,-1
 753 285 l 2,89,90
 667 156 667 156 592 0 c 1,91,-1
 370 0 l 1,80,81
EndSplineSet
Validated: 1
EndChar

StartChar: quotesingle
Encoding: 39 39 9
Width: 310
GlyphClass: 2
Flags: W
HStem: 1120 410<375 469.72>
VStem: 318 267
LayerCount: 2
Fore
SplineSet
375 1530 m 1,0,-1
 585 1530 l 1,1,2
 523 1380 523 1380 468 1120 c 9,3,-1
 318 1120 l 17,4,5
 373 1380 373 1380 375 1530 c 1,0,-1
EndSplineSet
Validated: 1
EndChar

StartChar: parenleft
Encoding: 40 40 10
Width: 807
GlyphClass: 2
Flags: W
VStem: 323 185<48.6439 716.895>
LayerCount: 2
Fore
SplineSet
904 1760 m 1,0,-1
 1031 1760 l 1,1,2
 684 1339 684 1339 560 755 c 0,3,4
 508 510 508 510 508 287 c 0,5,6
 508 -9 508 -9 604 -250 c 1,7,-1
 477 -250 l 1,8,9
 323 63 323 63 323 407 c 0,10,11
 323 581 323 581 360 755 c 0,12,13
 474 1292 474 1292 904 1760 c 1,0,-1
EndSplineSet
Validated: 1
EndChar

StartChar: parenright
Encoding: 41 41 11
Width: 807
GlyphClass: 2
Flags: W
VStem: 620 185<793.105 1461.36>
LayerCount: 2
Fore
SplineSet
524 1760 m 1,0,-1
 651 1760 l 1,1,2
 805 1447 805 1447 805 1103 c 0,3,4
 805 929 805 929 768 755 c 0,5,6
 654 218 654 218 224 -250 c 1,7,-1
 97 -250 l 1,8,9
 444 171 444 171 568 755 c 0,10,11
 620 1000 620 1000 620 1223 c 0,12,13
 620 1519 620 1519 524 1760 c 1,0,-1
EndSplineSet
Validated: 1
EndChar

StartChar: asterisk
Encoding: 42 42 12
Width: 1113
GlyphClass: 2
Flags: W
HStem: 1490 20G<784.5 970>
VStem: 609 184<677 795.085> 786 184<1389.06 1510>
LayerCount: 2
Fore
SplineSet
786 1510 m 1,0,1
 970 1510 l 1,2,3
 907 1355 907 1355 874 1201 c 1,4,5
 1027 1274 1027 1274 1165 1381 c 1,6,-1
 1223 1222 l 1,7,8
 1064 1172 1064 1172 914 1094 c 1,9,10
 1036 1018 1036 1018 1168 965 c 1,11,-1
 1042 806 l 1,12,13
 949 906 949 906 829 986 c 1,14,15
 795 826 795 826 793 677 c 1,16,-1
 609 677 l 1,17,18
 671 826 671 826 705 986 c 1,19,20
 548 912 548 912 413 806 c 1,21,-1
 355 965 l 1,22,23
 510 1014 510 1014 666 1094 c 1,24,25
 546 1168 546 1168 410 1222 c 1,26,-1
 536 1381 l 1,27,28
 625 1280 625 1280 750 1201 c 1,29,30
 783 1354 783 1354 786 1510 c 1,0,1
EndSplineSet
Validated: 1
EndChar

StartChar: plus
Encoding: 43 43 13
Width: 1133
GlyphClass: 2
Flags: W
HStem: 638 214<327.985 631.375 819.609 1122.01> 668 154<335.501 632 819 1114.47>
VStem: 530 214<328 445.188> 707 214<1043.86 1162>
DStem2: 559.233 328 713.233 328 0.207912 0.978148<43.0084 347.699 537.214 841.838>
LayerCount: 2
Fore
SplineSet
707 1162 m 1,0,-1
 921 1162 l 1,1,2
 859 1010 859 1010 827 862 c 2,3,-1
 819 822 l 1,4,-1
 858 822 l 2,5,6
 1006 822 1006 822 1164 852 c 1,7,-1
 1119 638 l 1,8,9
 974 668 974 668 825 668 c 2,10,-1
 786 668 l 1,11,-1
 777 628 l 2,12,13
 745 478 745 478 744 328 c 1,14,-1
 530 328 l 1,15,16
 592 478 592 478 623 628 c 2,17,-1
 632 668 l 1,18,-1
 592 668 l 2,19,20
 442 668 442 668 286 638 c 1,21,-1
 331 852 l 1,22,23
 475 822 475 822 625 822 c 2,24,-1
 665 822 l 1,25,-1
 673 862 l 2,26,27
 705 1010 705 1010 707 1162 c 1,0,-1
EndSplineSet
Validated: 1
EndChar

StartChar: comma
Encoding: 44 44 14
Width: 378
GlyphClass: 2
Flags: W
HStem: -292 572
VStem: 156 188<-53.1848 124.979>
LayerCount: 2
Fore
SplineSet
265 280 m 1,0,1
 344 202 344 202 344 103 c 0,2,3
 344 75 344 75 338 45 c 0,4,5
 291 -177 291 -177 -12 -292 c 1,6,-1
 -10 -282 l 1,7,8
 123 -162 123 -162 152 -24 c 0,9,10
 156 -3 156 -3 156 16 c 0,11,12
 156 88 156 88 95 140 c 1,13,-1
 265 280 l 1,0,1
EndSplineSet
Validated: 1
EndChar

StartChar: hyphen
Encoding: 45 45 15
Width: 1133
GlyphClass: 2
Flags: W
HStem: 638 214<327.985 1122.01> 668 154<335.501 1114.47>
LayerCount: 2
Fore
SplineSet
331 852 m 1,0,1
 475 822 475 822 625 822 c 2,2,-1
 858 822 l 2,3,4
 1006 822 1006 822 1164 852 c 1,5,-1
 1119 638 l 1,6,7
 974 668 974 668 825 668 c 2,8,-1
 592 668 l 2,9,10
 442 668 442 668 286 638 c 1,11,-1
 331 852 l 1,0,1
EndSplineSet
Validated: 1
EndChar

StartChar: period
Encoding: 46 46 16
Width: 360
GlyphClass: 2
Flags: W
HStem: -20 264<125.164 282.692>
VStem: 70 267<34.1802 189.617>
LayerCount: 2
Fore
SplineSet
176 -20 m 0,0,1
 122 -20 122 -20 92 18 c 0,2,3
 70 46 70 46 70 83 c 0,4,5
 70 95 70 95 74 112 c 0,6,7
 87 168 87 168 132 206 c 128,-1,8
 177 244 177 244 232 244 c 0,9,10
 288 244 288 244 316 206 c 0,11,12
 337 178 337 178 337 142 c 0,13,14
 337 124 337 124 334 112 c 0,15,16
 320 56 320 56 276 18 c 0,17,18
 231 -20 231 -20 176 -20 c 0,0,1
EndSplineSet
Validated: 1
EndChar

StartChar: slash
Encoding: 47 47 17
Width: 1126
GlyphClass: 2
Flags: W
DStem2: 1073 1405 1266 1431 0.558161 0.829733<-1789.08 320.755>
LayerCount: 2
Fore
SplineSet
-28 -180 m 1,0,1
 101 -41 101 -41 181 79 c 10,2,-1
 1073 1405 l 2,3,4
 1165 1542 1165 1542 1233 1690 c 1,5,-1
 1475 1690 l 1,6,7
 1354 1562 1354 1562 1266 1431 c 2,8,-1
 374 105 l 2,9,10
 291 -19 291 -19 214 -180 c 1,11,-1
 -28 -180 l 1,0,1
EndSplineSet
Validated: 1
EndChar

StartChar: zero
Encoding: 48 48 18
Width: 1424
GlyphClass: 2
Flags: W
HStem: -20 124<600.294 886.788> 1406 124<857.287 1145.7>
VStem: 282 210<251.764 782.18> 1252 211<727.552 1258.24>
LayerCount: 2
Fore
SplineSet
708 -20 m 128,-1,1
 493 -20 493 -20 372 164 c 0,2,3
 282 301 282 301 282 505 c 0,4,5
 282 620 282 620 310 755 c 0,6,7
 390 1131 390 1131 623 1346 c 0,8,9
 822 1530 822 1530 1037 1530 c 128,-1,10
 1252 1530 1252 1530 1373 1346 c 0,11,12
 1463 1209 1463 1209 1463 1005 c 0,13,14
 1462 890 1462 890 1434 755 c 0,15,16
 1354 379 1354 379 1122 164 c 0,17,0
 923 -20 923 -20 708 -20 c 128,-1,1
734 104 m 128,-1,19
 882 104 882 104 1015 262 c 0,20,21
 1142 414 1142 414 1214 755 c 0,22,23
 1252 935 1252 935 1252 1064 c 0,24,25
 1252 1175 1252 1175 1224 1248 c 0,26,27
 1163 1406 1163 1406 1011 1406 c 128,-1,28
 859 1406 859 1406 730.5 1248 c 128,-1,29
 602 1090 602 1090 530 755 c 0,30,31
 492 573 492 573 492 445 c 0,32,33
 492 333 492 333 521 262 c 0,34,18
 586 104 586 104 734 104 c 128,-1,19
EndSplineSet
Validated: 1
EndChar

StartChar: one
Encoding: 49 49 19
Width: 752
GlyphClass: 2
Flags: W
HStem: 0 21G<282 533> 1530 20G<757 830.5>
VStem: 282 250<0 116.711>
DStem2: 273 1235 331 1145 0.777852 0.628448<0 324.177> 311.932 0 502.304 0 0.207912 0.978148<50.3844 1381.01>
LayerCount: 2
Fore
SplineSet
282 0 m 1,0,1
 344 149 344 149 376 300 c 2,2,-1
 567 1200 l 2,3,4
 583 1276 583 1276 592 1356 c 1,5,-1
 331 1145 l 1,6,-1
 273 1235 l 1,7,-1
 601 1500 l 1,8,-1
 861 1550 l 1,9,10
 800 1403 800 1403 768 1250 c 2,11,-1
 566 300 l 2,12,13
 534 151 534 151 532 0 c 1,14,-1
 282 0 l 1,0,1
EndSplineSet
Validated: 1
EndChar

StartChar: two
Encoding: 50 50 20
Width: 1250
GlyphClass: 2
Flags: W
HStem: 0 154<354 1100> 1121 21G<437 542> 1406 124<692.004 1020.7>
VStem: 1103 225<996.352 1323.54>
LayerCount: 2
Fore
SplineSet
120 0 m 1,0,1
 248 349 248 349 786 704 c 0,2,3
 1047 876 1047 876 1094 1099 c 0,4,5
 1103 1140 1103 1140 1103 1177 c 0,6,7
 1103 1251 1103 1251 1068 1309 c 0,8,9
 1012 1406 1012 1406 862 1406 c 0,10,11
 637 1406 637 1406 447 1121 c 1,12,-1
 437 1121 l 1,13,-1
 501 1422 l 1,14,15
 687 1530 687 1530 921 1530 c 0,16,17
 1119 1530 1119 1530 1233 1412 c 0,18,19
 1328 1316 1328 1316 1328 1178 c 0,20,21
 1328 1131 1328 1131 1317 1078 c 0,22,23
 1254 780 1254 780 824 545 c 0,24,25
 471 352 471 352 354 154 c 1,26,-1
 833 154 l 2,27,28
 982 154 982 154 1139 184 c 1,29,-1
 1100 0 l 1,30,-1
 120 0 l 1,0,1
EndSplineSet
Validated: 1
EndChar

StartChar: three
Encoding: 51 51 21
Width: 1203
GlyphClass: 2
Flags: W
HStem: -20 124<366.994 703.354> 1386 124<533 1053>
VStem: 944 218<357.318 686.995>
DStem2: 584 868 796 905 0.671176 0.741298<169.717 694.11>
LayerCount: 2
Fore
SplineSet
481 -20 m 0,0,1
 279 -20 279 -20 139 88 c 1,2,-1
 203 389 l 1,3,-1
 213 389 l 1,4,5
 234 301 234 301 274 242 c 0,6,7
 369 104 369 104 518 104 c 0,8,9
 673 104 673 104 791 208 c 0,10,11
 903 307 903 307 934 450 c 0,12,13
 944 497 944 497 944 538 c 0,14,15
 944 637 944 637 887 704 c 0,16,17
 809 795 809 795 620 795 c 1,18,-1
 584 868 l 9,19,-1
 1053 1386 l 17,20,-1
 807 1386 l 2,21,22
 654 1386 654 1386 500 1356 c 1,23,-1
 533 1510 l 1,24,-1
 1271 1510 l 1,25,-1
 1267 1386 l 1,26,27
 1143 1287 1143 1287 1017 1148 c 10,28,-1
 796 905 l 1,29,30
 962 905 962 905 1064 800 c 0,31,32
 1162 702 1162 702 1162 560 c 0,33,34
 1162 511 1162 511 1150 456 c 0,35,36
 1107 253 1107 253 909 102 c 0,37,38
 748 -20 748 -20 481 -20 c 0,0,1
EndSplineSet
Validated: 1
EndChar

StartChar: five
Encoding: 53 53 22
Width: 1203
GlyphClass: 2
Flags: W
HStem: -20 124<368.551 707.842> 804 126<591.656 836.422> 1356 154<725.438 1223.07> 1386 124<712 1215.93>
VStem: 945 217<356.687 699.337>
LayerCount: 2
Fore
SplineSet
481 -20 m 0,0,1
 286 -20 286 -20 139 88 c 1,2,-1
 203 389 l 1,3,-1
 213 389 l 1,4,5
 234 301 234 301 274 242 c 0,6,7
 369 104 369 104 519 104 c 0,8,9
 678 104 678 104 790.5 204 c 128,-1,10
 903 304 903 304 934 450 c 0,11,12
 945 502 945 502 945 548 c 0,13,14
 944 645 944 645 894 709 c 0,15,16
 820 804 820 804 658 804 c 0,17,18
 590 804 590 804 520 776 c 1,19,-1
 362 901 l 17,20,-1
 615 1510 l 1,21,-1
 1253 1510 l 1,22,-1
 1220 1356 l 1,23,24
 1090 1386 1090 1386 927 1386 c 2,25,-1
 712 1386 l 9,26,-1
 591 918 l 17,27,28
 658 930 658 930 716 930 c 0,29,30
 954 930 954 930 1068 806 c 0,31,32
 1162 704 1162 704 1162 562 c 0,33,34
 1162 512 1162 512 1150 457 c 0,35,36
 1107 253 1107 253 909 102 c 0,37,38
 748 -20 748 -20 481 -20 c 0,0,1
EndSplineSet
Validated: 1
EndChar

StartChar: six
Encoding: 54 54 23
Width: 1358
GlyphClass: 2
Flags: W
HStem: -20 124<580.197 885.526> 896 120<728.662 1029.22> 1406 124<880.048 1189.24>
VStem: 278 198<224.07 604.512> 1122 206<397.981 797.139> 1311 10<1144 1160.12>
LayerCount: 2
Fore
SplineSet
719 104 m 0,0,1
 870 104 870 104 973 224 c 0,2,3
 1076 346 1076 346 1108 501 c 0,4,5
 1122 569 1122 569 1122 627 c 0,6,7
 1122 713 1122 713 1090 776 c 0,8,9
 1029 896 1029 896 892 896 c 0,10,11
 746 896 746 896 634 776 c 0,12,13
 522 658 522 658 488 501 c 0,14,15
 476 445 476 445 476 394 c 0,16,17
 476 300 476 300 517 224 c 0,18,19
 580 104 580 104 719 104 c 0,0,1
698 -20 m 0,20,21
 464 -20 464 -20 356 156 c 0,22,23
 278 284 278 284 278 478 c 0,24,25
 278 602 278 602 310 754 c 0,26,27
 388 1124 388 1124 629 1348 c 0,28,29
 824 1530 824 1530 1077 1530 c 0,30,31
 1257 1530 1257 1530 1385 1445 c 1,32,-1
 1321 1144 l 1,33,-1
 1311 1144 l 1,34,35
 1248 1406 1248 1406 1051 1406 c 0,36,37
 892 1406 892 1406 755 1269 c 0,38,39
 596 1110 596 1110 537 834 c 1,40,41
 699 1016 699 1016 916 1016 c 0,42,43
 1141 1016 1141 1016 1255 866 c 0,44,45
 1328 767 1328 767 1328 629 c 0,46,47
 1328 568 1328 568 1314 500 c 0,48,49
 1269 288 1269 288 1091.5 134 c 128,-1,50
 914 -20 914 -20 698 -20 c 0,20,21
EndSplineSet
Validated: 1
EndChar

StartChar: seven
Encoding: 55 55 24
Width: 992
GlyphClass: 2
Flags: W
HStem: 0 21G<33 347> 1386 124<341 1012>
DStem2: 1012 1386 1031 1106 0.564132 0.825684<-1530.56 -3.72852>
LayerCount: 2
Fore
SplineSet
33 0 m 1,0,1
 158 136 158 136 242 259 c 2,2,-1
 1012 1386 l 1,3,-1
 615 1386 l 2,4,5
 448 1386 448 1386 308 1356 c 1,6,-1
 341 1510 l 1,7,-1
 1261 1510 l 1,8,-1
 1267 1386 l 1,9,10
 1133 1258 1133 1258 1031 1106 c 2,11,-1
 481 285 l 2,12,13
 374 126 374 126 320 0 c 1,14,-1
 33 0 l 1,0,1
EndSplineSet
Validated: 1
EndChar

StartChar: eight
Encoding: 56 56 25
Width: 1227
GlyphClass: 2
Flags: W
HStem: -20 124<465.853 804.07> 1406 124<786.709 1048.32>
VStem: 200 149<218.56 519.434> 479 191<1031.82 1279.19> 1011 200<333.911 599.959> 1103 145<1104.36 1351.09>
LayerCount: 2
Fore
SplineSet
854 935 m 1,0,1
 1067 1051 1067 1051 1098 1192 c 0,2,3
 1103 1214 1103 1214 1103 1235 c 0,4,5
 1103 1289 1103 1289 1071 1336 c 0,6,7
 1023 1406 1023 1406 928 1406 c 0,8,9
 840 1406 840 1406 768 1349 c 128,-1,10
 696 1292 696 1292 676 1198 c 0,11,12
 670 1171 670 1171 670 1147 c 0,13,14
 670 1046 670 1046 771 985 c 2,15,-1
 854 935 l 1,0,1
602 -20 m 0,16,17
 396 -20 396 -20 290 102 c 0,18,19
 200 204 200 204 200 335 c 0,20,21
 200 378 200 378 210 424 c 0,22,23
 271 720 271 720 623 853 c 1,24,25
 479 962 479 962 479 1106 c 0,26,27
 479 1138 479 1138 486 1172 c 0,28,29
 523 1346 523 1346 670 1444 c 0,30,31
 798 1530 798 1530 953 1530 c 0,32,33
 1088 1530 1088 1530 1172 1439 c 0,34,35
 1248 1356 1248 1356 1248 1241 c 0,36,37
 1248 1217 1248 1217 1245 1192 c 0,38,39
 1220 998 1220 998 963 864 c 1,40,41
 1211 744 1211 744 1211 530 c 0,42,43
 1211 483 1211 483 1199 432 c 0,44,45
 1154 236 1154 236 991 107 c 0,46,47
 831 -20 831 -20 602 -20 c 0,16,17
738 775 m 1,48,49
 406 663 406 663 356 419 c 0,50,51
 349 387 349 387 349 357 c 0,52,53
 349 266 349 266 412 195 c 0,54,55
 493 104 493 104 628 104 c 0,56,57
 771 104 771 104 884 203 c 0,58,59
 982 289 982 289 1006 409 c 0,60,61
 1011 436 1011 436 1011 462 c 0,62,63
 1011 603 1011 603 854 702 c 2,64,-1
 738 775 l 1,48,49
EndSplineSet
Validated: 1
EndChar

StartChar: nine
Encoding: 57 57 26
Width: 1358
GlyphClass: 2
Flags: W
HStem: -20 124<489.763 799.193> 494 120<650.783 950.338> 1406 124<793.474 1098.8>
VStem: 351 205<714.845 1108.93> 358 10<349.881 366> 1202 199<905.488 1285.93>
LayerCount: 2
Fore
SplineSet
960 1406 m 0,0,1
 809 1406 809 1406 706 1286 c 0,2,3
 603 1164 603 1164 570 1009 c 0,4,5
 556 942 556 942 556 885 c 0,6,7
 556 798 556 798 589 734 c 0,8,9
 650 614 650 614 787 614 c 0,10,11
 933 614 933 614 1045 734 c 0,12,13
 1157 852 1157 852 1190 1009 c 0,14,15
 1202 1066 1202 1066 1202 1117 c 0,16,17
 1202 1210 1202 1210 1162 1286 c 0,18,19
 1099 1406 1099 1406 960 1406 c 0,0,1
602 -20 m 0,20,21
 422 -20 422 -20 294 65 c 1,22,-1
 358 366 l 1,23,-1
 368 366 l 1,24,25
 431 104 431 104 628 104 c 0,26,27
 787 104 787 104 924 241 c 0,28,29
 1083 400 1083 400 1142 676 c 1,30,31
 980 494 980 494 763 494 c 0,32,33
 527 494 527 494 424 644 c 0,34,35
 351 751 351 751 351 887 c 0,36,37
 351 946 351 946 365 1010 c 0,38,39
 410 1222 410 1222 587.5 1376 c 128,-1,40
 765 1530 765 1530 981 1530 c 0,41,42
 1215 1530 1215 1530 1323 1354 c 0,43,44
 1401 1226 1401 1226 1401 1032 c 0,45,46
 1401 908 1401 908 1369 756 c 0,47,48
 1291 388 1291 388 1050 162 c 0,49,50
 856 -20 856 -20 602 -20 c 0,20,21
EndSplineSet
Validated: 1
EndChar

StartChar: colon
Encoding: 58 58 27
Width: 362
GlyphClass: 2
Flags: W
HStem: -20 264<127.164 284.692> 622 264<261.164 418.692>
VStem: 72 267<34.1802 189.617> 206 267<676.18 831.617>
LayerCount: 2
Fore
SplineSet
178 -20 m 0,0,1
 124 -20 124 -20 94 18 c 0,2,3
 72 46 72 46 72 83 c 0,4,5
 72 95 72 95 76 112 c 0,6,7
 89 168 89 168 134 206 c 128,-1,8
 179 244 179 244 234 244 c 0,9,10
 290 244 290 244 318 206 c 0,11,12
 339 178 339 178 339 142 c 0,13,14
 339 124 339 124 336 112 c 0,15,16
 322 56 322 56 278 18 c 0,17,18
 233 -20 233 -20 178 -20 c 0,0,1
368 886 m 0,19,20
 424 886 424 886 452 848 c 0,21,22
 473 820 473 820 473 784 c 0,23,24
 473 766 473 766 470 754 c 0,25,26
 456 698 456 698 412 660 c 0,27,28
 367 622 367 622 312 622 c 0,29,30
 258 622 258 622 228 660 c 0,31,32
 206 688 206 688 206 725 c 0,33,34
 206 737 206 737 210 754 c 0,35,36
 223 810 223 810 268 848 c 128,-1,37
 313 886 313 886 368 886 c 0,19,20
EndSplineSet
Validated: 1
EndChar

StartChar: semicolon
Encoding: 59 59 28
Width: 378
GlyphClass: 2
Flags: W
HStem: 622 264<261.164 418.692>
VStem: 156 188<-53.1848 124.979> 206 267<676.18 831.617>
LayerCount: 2
Fore
SplineSet
368 886 m 0,0,1
 424 886 424 886 452 848 c 0,2,3
 473 820 473 820 473 784 c 0,4,5
 473 766 473 766 470 754 c 0,6,7
 456 698 456 698 412 660 c 0,8,9
 367 622 367 622 312 622 c 0,10,11
 258 622 258 622 228 660 c 0,12,13
 206 688 206 688 206 725 c 0,14,15
 206 737 206 737 210 754 c 0,16,17
 223 810 223 810 268 848 c 128,-1,18
 313 886 313 886 368 886 c 0,0,1
265 280 m 1,19,20
 344 202 344 202 344 103 c 0,21,22
 344 75 344 75 338 45 c 0,23,24
 291 -177 291 -177 -12 -292 c 1,25,-1
 -10 -282 l 1,26,27
 123 -162 123 -162 152 -24 c 0,28,29
 156 -3 156 -3 156 16 c 0,30,31
 156 88 156 88 95 140 c 1,32,-1
 265 280 l 1,19,20
EndSplineSet
Validated: 1
EndChar

StartChar: less
Encoding: 60 60 29
Width: 1250
GlyphClass: 2
Flags: W
DStem2: 555 724 552 552 0.882801 -0.469747<0.178726 646.36> 634 934 555 724 0.918195 0.396129<-151.912 596.7>
LayerCount: 2
Fore
SplineSet
289 652 m 1,0,-1
 327 834 l 1,1,2
 475 865 475 865 634 934 c 2,3,-1
 1026 1104 l 2,4,5
 1172 1167 1172 1167 1317 1258 c 1,6,-1
 1262 997 l 1,7,8
 1107 962 1107 962 956 897 c 2,9,-1
 555 724 l 25,10,-1
 882 550 l 2,11,12
 1014 480 1014 480 1146 450 c 1,13,-1
 1098 228 l 1,14,15
 989 320 989 320 872 382 c 2,16,-1
 552 552 l 2,17,18
 430 617 430 617 289 652 c 1,0,-1
EndSplineSet
Validated: 1
EndChar

StartChar: equal
Encoding: 61 61 30
Width: 1133
GlyphClass: 2
Flags: W
HStem: 454 214<288.985 1083.01> 484 154<296.501 1075.47> 822 214<366.985 1161.01> 852 154<374.501 1153.47>
LayerCount: 2
Fore
SplineSet
292 668 m 1,0,1
 436 638 436 638 586 638 c 2,2,-1
 819 638 l 2,3,4
 967 638 967 638 1125 668 c 1,5,-1
 1080 454 l 1,6,7
 935 484 935 484 786 484 c 2,8,-1
 553 484 l 2,9,10
 403 484 403 484 247 454 c 1,11,-1
 292 668 l 1,0,1
370 1036 m 1,12,13
 514 1006 514 1006 664 1006 c 2,14,-1
 897 1006 l 2,15,16
 1045 1006 1045 1006 1203 1036 c 1,17,-1
 1158 822 l 1,18,19
 1013 852 1013 852 864 852 c 2,20,-1
 631 852 l 2,21,22
 481 852 481 852 325 822 c 1,23,-1
 370 1036 l 1,12,13
EndSplineSet
Validated: 1
EndChar

StartChar: greater
Encoding: 62 62 31
Width: 1250
GlyphClass: 2
Flags: W
DStem2: 610 589 540 382 0.917834 0.396963<-314.803 432.762> 694 1104 684 936 0.882203 -0.470869<-205.757 436.32>
LayerCount: 2
Fore
SplineSet
1277 834 m 1,0,-1
 1239 652 l 1,1,2
 1091 621 1091 621 932 552 c 2,3,-1
 540 382 l 2,4,5
 390 317 390 317 248 228 c 1,6,-1
 304 489 l 1,7,8
 485 535 485 535 610 589 c 2,9,-1
 1010 762 l 25,10,-1
 684 936 l 2,11,12
 548 1008 548 1008 420 1036 c 1,13,-1
 467 1258 l 1,14,15
 574 1168 574 1168 694 1104 c 2,16,-1
 1014 934 l 2,17,18
 1137 869 1137 869 1277 834 c 1,0,-1
EndSplineSet
Validated: 1
EndChar

StartChar: question
Encoding: 63 63 32
Width: 1194
GlyphClass: 2
Flags: W
HStem: -20 264<466.164 623.692> 1121 21G<388 427.5> 1404 126<655.242 989.026>
VStem: 388 10<1121 1126.47> 411 267<34.1802 189.617> 536 116<360 466.939> 1074 214<998.983 1320.17>
LayerCount: 2
Fore
SplineSet
517 -20 m 0,0,1
 463 -20 463 -20 433 18 c 0,2,3
 411 46 411 46 411 83 c 0,4,5
 411 95 411 95 415 112 c 0,6,7
 428 168 428 168 473 206 c 128,-1,8
 518 244 518 244 573 244 c 0,9,10
 629 244 629 244 657 206 c 0,11,12
 678 178 678 178 678 142 c 0,13,14
 678 124 678 124 675 112 c 0,15,16
 661 56 661 56 617 18 c 0,17,18
 572 -20 572 -20 517 -20 c 0,0,1
879 1530 m 0,19,20
 1099 1530 1099 1530 1208 1401 c 0,21,22
 1288 1307 1288 1307 1288 1186 c 0,23,24
 1288 1144 1288 1144 1278 1100 c 0,25,26
 1223 842 1223 842 924 676 c 0,27,28
 692 547 692 547 652 360 c 1,29,-1
 536 360 l 1,30,31
 594 634 594 634 854 802 c 0,32,33
 1027 914 1027 914 1063 1082 c 0,34,35
 1074 1134 1074 1134 1074 1178 c 0,36,37
 1074 1259 1074 1259 1037 1312 c 0,38,39
 974 1404 974 1404 833 1404 c 0,40,41
 675 1404 675 1404 523 1268 c 0,42,43
 457 1209 457 1209 398 1121 c 1,44,-1
 388 1121 l 1,45,-1
 450 1412 l 1,46,47
 669 1530 669 1530 879 1530 c 0,19,20
EndSplineSet
Validated: 1
EndChar

StartChar: at
Encoding: 64 64 33
Width: 1589
GlyphClass: 2
Flags: W
HStem: -430 139<634.586 1083.55> -20 103<831.763 1127.65> 0 21G<1191 1418.5> 649 103<932.883 1234.31> 980 140<883.031 1290.7>
VStem: 204 147<-16.3301 436.605> 569 192<156.324 465.187> 1306 111<0 445> 1375 169<644.62 901.309>
DStem2: 1127.32 -430 1297.11 -430 0.207912 0.978148<632.281 891.989 1096.89 1232.83>
LayerCount: 2
Fore
SplineSet
1417 0 m 1,0,-1
 1191 0 l 1,1,2
 1207 31 1207 31 1220 80 c 1,3,4
 1089 -20 1089 -20 926 -20 c 0,5,6
 747 -20 747 -20 647 80 c 0,7,8
 569 160 569 160 569 278 c 0,9,10
 569 320 569 320 579 368 c 0,11,12
 617 548 617 548 769 652 c 0,13,14
 915 752 915 752 1090 752 c 0,15,16
 1254 752 1254 752 1355 643 c 1,17,18
 1375 723 1375 723 1375 779.5 c 128,-1,19
 1375 836 1375 836 1355 869 c 0,20,21
 1290 980 1290 980 1119 980 c 0,22,23
 881 979 881 979 658 807 c 0,24,25
 431 633 431 633 369 345 c 0,26,27
 351 263 351 263 351 189 c 0,28,29
 351 7 351 7 461 -117 c 0,30,31
 615 -291 615 -291 852 -291 c 128,-1,32
 1089 -291 1089 -291 1313 -117 c 1,33,-1
 1391 -227 l 1,34,35
 1127 -430 1127 -430 823 -430 c 0,36,37
 528 -430 528 -430 345 -219 c 0,38,39
 204 -57 204 -57 204 168 c 0,40,41
 204 253 204 253 224 346 c 0,42,43
 299 701 299 701 580 917 c 0,44,45
 844 1120 844 1120 1150 1120 c 0,46,47
 1425 1120 1425 1120 1515 940 c 0,48,49
 1544 883 1544 883 1544 798 c 0,50,51
 1544 729 1544 729 1525 641 c 2,52,-1
 1451 294 l 2,53,54
 1420 149 1420 149 1417 0 c 1,0,-1
1298 373 m 2,55,56
 1306 411 1306 411 1306 445 c 0,57,58
 1306 505 1306 505 1280 550 c 0,59,60
 1223 649 1223 649 1091 649 c 0,61,62
 962 649 962 649 868 551 c 0,63,64
 790 470 790 470 768 366 c 0,65,66
 761 331 761 331 761 298 c 0,67,68
 761 234 761 234 789 181 c 0,69,70
 842 83 842 83 971 83 c 0,71,72
 1101 83 1101 83 1202 182 c 0,73,74
 1273 251 1273 251 1295 359 c 2,75,-1
 1298 373 l 2,55,56
EndSplineSet
Validated: 1
EndChar

StartChar: A
Encoding: 65 65 34
Width: 1590
GlyphClass: 2
Flags: W
HStem: 0 21G<5 261.5 1318.5 1585> 697 114<741 1153> 1490 20G<988 1211>
VStem: 1025 182<1424.79 1510>
DStem2: 864 1225 665 697 0.558828 0.829284<-1366.8 -549.069 -412.059 124.262> 1246 1225 1043 1257 0.240656 -0.970611<-78.9733 379.452 496.84 1202.47>
LayerCount: 2
Fore
SplineSet
5 0 m 1,0,1
 128 131 128 131 214 259 c 2,2,-1
 864 1225 l 2,3,4
 951 1355 951 1355 1025 1510 c 1,5,-1
 1207 1510 l 1,6,7
 1215 1350 1215 1350 1246 1225 c 2,8,-1
 1486 259 l 2,9,10
 1516 138 1516 138 1585 0 c 1,11,-1
 1323 0 l 1,12,13
 1314 165 1314 165 1284 285 c 2,14,-1
 1181 697 l 1,15,-1
 665 697 l 1,16,-1
 388 285 l 2,17,18
 296 148 296 148 227 0 c 1,19,-1
 5 0 l 1,0,1
1043 1257 m 1,20,-1
 741 811 l 1,21,-1
 1153 811 l 1,22,-1
 1043 1257 l 1,20,-1
EndSplineSet
Validated: 1
EndChar

StartChar: B
Encoding: 66 66 35
Width: 1152
GlyphClass: 2
Flags: W
HStem: 0 124<421 705.5> 775 125<576 828.36> 1386 124<676.125 933.838>
VStem: 940 218<348.058 667.749> 989 190<1067 1333.24>
DStem2: 200.233 0 385.233 0 0.207912 0.978148<169.939 830.785 958.459 1454.66>
LayerCount: 2
Fore
SplineSet
421 124 m 1,0,-1
 521 124 l 2,1,2
 668 124 668 124 793 223 c 0,3,4
 901 309 901 309 932 450 c 0,5,6
 940 490 940 490 940 525 c 0,7,8
 940 612 940 612 890 676 c 0,9,10
 811 775 811 775 660 775 c 2,11,-1
 550 775 l 1,12,-1
 449 300 l 2,13,14
 430 212 430 212 421 124 c 1,0,-1
170 0 m 1,15,16
 233 152 233 152 264 300 c 2,17,-1
 457 1210 l 2,18,19
 489 1361 489 1361 491 1510 c 1,20,-1
 846 1510 l 2,21,22
 1012 1510 1012 1510 1108 1415 c 0,23,24
 1179 1345 1179 1345 1179 1239 c 0,25,26
 1179 1206 1179 1206 1172 1169 c 0,27,28
 1144 1019 1144 1019 993 914 c 0,29,30
 921 864 921 864 875 850 c 1,31,32
 988 832 988 832 1059 765 c 0,33,34
 1158 670 1158 670 1158 537 c 0,35,36
 1158 495 1158 495 1148 450 c 0,37,38
 1108 261 1108 261 926 125 c 0,39,40
 759 0 759 0 510 0 c 2,41,-1
 170 0 l 1,15,16
576 900 m 1,42,-1
 682 900 l 2,43,44
 791 900 791 900 886 988 c 0,45,46
 959 1056 959 1056 984 1170 c 0,47,48
 989 1195 989 1195 989 1218 c 0,49,50
 989 1278 989 1278 953 1325 c 0,51,52
 906 1386 906 1386 786 1386 c 2,53,-1
 690 1386 l 1,54,55
 661 1298 661 1298 642 1210 c 2,56,-1
 576 900 l 1,42,-1
EndSplineSet
Validated: 1
EndChar

StartChar: C
Encoding: 67 67 36
Width: 1526
GlyphClass: 2
Flags: W
HStem: -20 126<718.375 1162.08> 1404 126<975.947 1410.83>
VStem: 241 224<357.343 844.61>
LayerCount: 2
Fore
SplineSet
909 -20 m 0,0,1
 562 -20 562 -20 381 186 c 0,2,3
 241 346 241 346 241 574 c 0,4,5
 241 660 241 660 261 755 c 0,6,7
 336 1110 336 1110 618 1327 c 0,8,9
 882 1530 882 1530 1238 1530 c 0,10,11
 1515 1530 1515 1530 1704 1402 c 1,12,-1
 1639 1098 l 1,13,-1
 1629 1098 l 1,14,15
 1513 1404 1513 1404 1211 1404 c 0,16,17
 943 1404 943 1404 723 1198 c 0,18,19
 545 1032 545 1032 486 756 c 0,20,21
 465 658 465 658 465 573 c 0,22,23
 465 420 465 420 534 312 c 0,24,25
 665 106 665 106 936 106 c 0,26,27
 1247 106 1247 106 1504 412 c 1,28,-1
 1514 412 l 1,29,-1
 1462 168 l 1,30,31
 1209 -20 1209 -20 909 -20 c 0,0,1
EndSplineSet
Validated: 1
EndChar

StartChar: D
Encoding: 68 68 37
Width: 1599
GlyphClass: 2
Flags: W
HStem: 0 124<424 971.287> 1386 124<681.5 1215.66>
VStem: 1453 226<662.918 1146.54>
DStem2: 199.807 0 389.807 0 0.207912 0.978148<171.394 1455.86>
LayerCount: 2
Fore
SplineSet
170 0 m 1,0,1
 232 150 232 150 264 300 c 2,2,-1
 457 1210 l 2,3,4
 489 1360 489 1360 491 1510 c 1,5,-1
 1017 1510 l 2,6,7
 1363 1510 1363 1510 1541 1307 c 0,8,9
 1679 1149 1679 1149 1679 930 c 0,10,11
 1679 847 1679 847 1659 755 c 0,12,13
 1588 420 1588 420 1305 201 c 0,14,15
 1044 0 1044 0 696 0 c 2,16,-1
 170 0 l 1,0,1
424 124 m 1,17,-1
 722 124 l 2,18,19
 1009 124 1009 124 1206 324 c 0,20,21
 1381 502 1381 502 1434 755 c 0,22,23
 1453 845 1453 845 1453 925 c 0,24,25
 1453 1070 1453 1070 1390 1184 c 0,26,27
 1279 1382 1279 1382 991 1384 c 2,28,-1
 695 1386 l 1,29,30
 667 1300 667 1300 647 1210 c 2,31,-1
 454 300 l 2,32,33
 434 209 434 209 424 124 c 1,17,-1
EndSplineSet
Validated: 1
EndChar

StartChar: E
Encoding: 69 69 38
Width: 1068
GlyphClass: 2
Flags: W
HStem: 0 124<424 968> 697 124<565 985.499> 1356 154<697.312 1139.07> 1386 124<681.597 1131.5>
DStem2: 200.233 0 389.848 0 0.207912 0.978148<171.305 751.995 878.898 1455.58>
LayerCount: 2
Fore
SplineSet
170 0 m 1,0,1
 232 150 232 150 264 300 c 2,2,-1
 457 1210 l 2,3,4
 489 1360 489 1360 491 1510 c 1,5,-1
 1169 1510 l 1,6,-1
 1136 1356 l 1,7,8
 992 1386 992 1386 843 1386 c 2,9,-1
 695 1386 l 1,10,11
 665 1294 665 1294 647 1210 c 2,12,-1
 565 821 l 1,13,-1
 723 821 l 2,14,15
 873 821 873 821 1029 851 c 1,16,-1
 990 667 l 1,17,18
 846 697 846 697 696 697 c 2,19,-1
 538 697 l 1,20,-1
 454 300 l 2,21,22
 436 216 436 216 424 124 c 1,23,-1
 694 124 l 2,24,25
 852 124 852 124 1001 154 c 1,26,-1
 968 0 l 1,27,-1
 170 0 l 1,0,1
EndSplineSet
Validated: 1
EndChar

StartChar: F
Encoding: 70 70 39
Width: 1028
GlyphClass: 2
Flags: W
HStem: 0 21G<170 421> 697 124<565 985.499> 1356 154<697.312 1139.07> 1386 124<681.597 1131.5>
VStem: 170 250<0 117.188>
DStem2: 200.233 0 389.848 0 0.207912 0.978148<50.2917 751.995 878.898 1455.58>
LayerCount: 2
Fore
SplineSet
170 0 m 1,0,1
 232 150 232 150 264 300 c 2,2,-1
 457 1210 l 2,3,4
 490 1366 490 1366 491 1510 c 1,5,-1
 1169 1510 l 1,6,-1
 1136 1356 l 1,7,8
 992 1386 992 1386 843 1386 c 2,9,-1
 695 1386 l 1,10,11
 665 1294 665 1294 647 1210 c 2,12,-1
 565 821 l 1,13,-1
 723 821 l 2,14,15
 873 821 873 821 1029 851 c 1,16,-1
 990 667 l 1,17,18
 846 697 846 697 696 697 c 2,19,-1
 538 697 l 1,20,-1
 454 300 l 2,21,22
 422 150 422 150 420 0 c 1,23,-1
 170 0 l 1,0,1
EndSplineSet
Validated: 1
EndChar

StartChar: G
Encoding: 71 71 40
Width: 1616
GlyphClass: 2
Flags: W
HStem: -20 126<725.799 1194.95> 697 124<1083 1414> 1404 126<982.175 1427.67>
VStem: 239 226<356.624 840.47>
DStem2: 1261.96 -20 1462.04 -20 0.207912 0.978148<197.884 732.942>
LayerCount: 2
Fore
SplineSet
929 -20 m 0,0,1
 559 -20 559 -20 378 186 c 0,2,3
 239 345 239 345 239 570 c 0,4,5
 239 657 239 657 260 755 c 0,6,7
 336 1109 336 1109 618 1327 c 0,8,9
 880 1530 880 1530 1258 1530 c 0,10,11
 1533 1530 1533 1530 1701 1428 c 1,12,-1
 1636 1124 l 1,13,-1
 1626 1124 l 1,14,15
 1519 1404 1519 1404 1231 1404 c 128,-1,16
 943 1404 943 1404 723 1198 c 0,17,18
 545 1032 545 1032 486 756 c 0,19,20
 465 658 465 658 465 573 c 0,21,22
 465 420 465 420 534 312 c 0,23,24
 666 106 666 106 956 106 c 0,25,26
 1145 106 1145 106 1310 206 c 1,27,-1
 1414 697 l 1,28,-1
 1356 697 l 2,29,30
 1206 697 1206 697 1050 667 c 1,31,-1
 1083 821 l 1,32,-1
 1640 820 l 1,33,-1
 1502 168 l 1,34,35
 1249 -20 1249 -20 929 -20 c 0,0,1
EndSplineSet
Validated: 1
EndChar

StartChar: H
Encoding: 72 72 41
Width: 1550
GlyphClass: 2
Flags: W
HStem: 0 21G<170 421 1130 1381> 697 124<565 1308> 1490 20G<490 741 1450 1701>
VStem: 170 250<0 117.188> 491 250<1392.81 1510> 1130 250<0 117.188> 1451 250<1392.81 1510>
DStem2: 200.233 0 389.848 0 0.207912 0.978148<50.2917 751.995 878.898 1532.86> 1160.23 0 1350.23 0 0.207912 0.978148<50.2917 712.491 839.395 1532.86>
LayerCount: 2
Fore
SplineSet
170 0 m 1,0,1
 232 150 232 150 264 300 c 2,2,-1
 457 1210 l 2,3,4
 489 1360 489 1360 491 1510 c 1,5,-1
 741 1510 l 1,6,7
 679 1360 679 1360 647 1210 c 2,8,-1
 565 821 l 1,9,-1
 1335 821 l 1,10,-1
 1417 1210 l 2,11,12
 1449 1360 1449 1360 1451 1510 c 1,13,-1
 1701 1510 l 1,14,15
 1639 1360 1639 1360 1607 1210 c 2,16,-1
 1414 300 l 2,17,18
 1382 150 1382 150 1380 0 c 1,19,-1
 1130 0 l 1,20,21
 1192 150 1192 150 1224 300 c 2,22,-1
 1308 697 l 1,23,-1
 538 697 l 1,24,-1
 454 300 l 2,25,26
 422 150 422 150 420 0 c 1,27,-1
 170 0 l 1,0,1
EndSplineSet
Validated: 1
EndChar

StartChar: I
Encoding: 73 73 42
Width: 590
GlyphClass: 2
Flags: W
HStem: 0 21G<170 421> 1490 20G<490 741>
VStem: 170 250<0 117.188> 491 250<1392.81 1510>
DStem2: 199.807 0 389.807 0 0.207912 0.978148<50.3804 1532.95>
LayerCount: 2
Fore
SplineSet
170 0 m 1,0,1
 232 150 232 150 264 300 c 2,2,-1
 457 1210 l 2,3,4
 489 1360 489 1360 491 1510 c 1,5,-1
 741 1510 l 1,6,7
 679 1360 679 1360 647 1210 c 2,8,-1
 454 300 l 2,9,10
 422 150 422 150 420 0 c 1,11,-1
 170 0 l 1,0,1
EndSplineSet
Validated: 1
EndChar

StartChar: J
Encoding: 74 74 43
Width: 590
GlyphClass: 2
Flags: W
HStem: 1490 20G<490 741>
VStem: 491 250<1392.81 1510>
DStem2: 157.257 -200 347.257 -200 0.207912 0.978148<168.632 1737.42>
LayerCount: 2
Fore
SplineSet
491 1510 m 1,0,-1
 741 1510 l 1,1,2
 679 1360 679 1360 647 1210 c 2,3,-1
 414 114 l 2,4,5
 347 -200 347 -200 -23 -200 c 9,6,-1
 -20 -190 l 1,7,8
 178 -107 178 -107 224 114 c 2,9,-1
 457 1210 l 2,10,11
 489 1360 489 1360 491 1510 c 1,0,-1
EndSplineSet
Validated: 1
EndChar

StartChar: K
Encoding: 75 75 44
Width: 1422
GlyphClass: 2
Flags: W
HStem: 0 21G<170 421 1052.5 1417> 1490 20G<490 741 1310 1625>
VStem: 170 250<0 116.711> 491 250<1393.29 1510>
DStem2: 200.233 0 389.891 0 0.207912 0.978148<50.2616 650.792 847.121 1532.89> 558 790 729 779 0.759449 0.650567<122.709 1072.67> 729 779 583 655 0.638392 -0.769711<2.23892 819.693>
LayerCount: 2
Fore
SplineSet
170 0 m 1,0,1
 232 150 232 150 264 300 c 2,2,-1
 457 1210 l 2,3,4
 489 1361 489 1361 491 1510 c 1,5,-1
 741 1510 l 1,6,7
 679 1360 679 1360 647 1210 c 2,8,-1
 558 790 l 9,9,-1
 1123 1273 l 2,10,11
 1260 1390 1260 1390 1360 1510 c 1,12,-1
 1625 1510 l 1,13,14
 1480 1423 1480 1423 1354 1315 c 2,15,-1
 729 779 l 25,16,-1
 1220 187 l 2,17,18
 1311 77 1311 77 1417 0 c 1,19,-1
 1080 0 l 1,20,21
 1025 120 1025 120 934 230 c 2,22,-1
 583 655 l 1,23,-1
 517 598 l 1,24,-1
 454 300 l 2,25,26
 422 149 422 149 420 0 c 1,27,-1
 170 0 l 1,0,1
EndSplineSet
Validated: 1
EndChar

StartChar: L
Encoding: 76 76 45
Width: 998
GlyphClass: 2
Flags: W
HStem: 0 124<434 978> 1490 20G<490 751>
VStem: 491 260<1392.81 1510>
DStem2: 199.807 0 399.807 0 0.207912 0.978148<172.87 1532.95>
LayerCount: 2
Fore
SplineSet
170 0 m 1,0,1
 232 150 232 150 264 300 c 2,2,-1
 457 1210 l 2,3,4
 489 1360 489 1360 491 1510 c 1,5,-1
 751 1510 l 1,6,7
 689 1360 689 1360 657 1210 c 2,8,-1
 464 300 l 2,9,10
 446 216 446 216 434 124 c 1,11,-1
 704 124 l 2,12,13
 862 124 862 124 1011 154 c 1,14,-1
 978 0 l 1,15,-1
 170 0 l 1,0,1
EndSplineSet
Validated: 1
EndChar

StartChar: M
Encoding: 77 77 46
Width: 2009
GlyphClass: 2
Flags: W
HStem: 0 21G<120 325.5 889 1109.5 1642 1889> 1490 20G<568.5 764 1837.5 2077>
VStem: 120 202<0 93.3594> 574 190<1263.5 1510> 889 187<0 90.1367>
DStem2: 514 1209 632 1131 0.288406 0.957508<-1210.42 -40.6537> 803 1225 632 1131 0.247681 -0.968842<48.7176 1003.36> 1052 251 1237 285 0.564441 0.825474<2.446 1176.37> 1710 301 1896 296 0.122831 0.992428<-163.495 858.691>
LayerCount: 2
Fore
SplineSet
120 0 m 1,0,1
 195 150 195 150 239 296 c 2,2,-1
 514 1209 l 2,3,4
 532 1268 532 1268 545 1332 c 0,5,6
 563 1415 563 1415 574 1510 c 1,7,-1
 764 1510 l 1,8,9
 764 1378 764 1378 803 1225 c 2,10,-1
 1052 251 l 25,11,-1
 1718 1225 l 2,12,13
 1796 1339 1796 1339 1879 1510 c 1,14,-1
 2077 1510 l 1,15,16
 2042 1395 2042 1395 2030 1332 c 0,17,18
 2011 1226 2011 1226 2009 1209 c 2,19,-1
 1896 296 l 2,20,21
 1884 199 1884 199 1884 112 c 0,22,23
 1884 55 1884 55 1889 0 c 1,24,-1
 1642 0 l 1,25,26
 1670 86 1670 86 1688 171 c 0,27,28
 1702 237 1702 237 1710 301 c 2,29,-1
 1817 1153 l 1,30,-1
 1237 285 l 2,31,32
 1143 145 1143 145 1076 0 c 1,33,-1
 889 0 l 1,34,35
 889 134 889 134 850 285 c 2,36,-1
 632 1131 l 25,37,-1
 382 301 l 2,38,39
 359 222 359 222 348 171 c 0,40,41
 329 84 329 84 322 0 c 1,42,-1
 120 0 l 1,0,1
EndSplineSet
Validated: 1
EndChar

StartChar: N
Encoding: 78 78 47
Width: 1540
GlyphClass: 2
Flags: W
HStem: 0 21G<170 373 1171 1371> 1490 20G<490 691.5 1487 1691>
VStem: 170 202<0 116.711> 491 179<1377.61 1510> 1193 177<0 130.758> 1489 202<1393.28 1510>
DStem2: 199.807 0 341.821 0 0.207912 0.978148<40.3705 1232.82> 1272 348 592 1177 0.477176 -0.878808<-1052.18 -3.46502> 1198.03 0 1340.23 0 0.207912 0.978148<355.775 1532.62>
LayerCount: 2
Fore
SplineSet
170 0 m 1,0,1
 233 152 233 152 264 300 c 2,2,-1
 457 1210 l 2,3,4
 489 1361 489 1361 491 1510 c 1,5,-1
 670 1510 l 1,6,7
 713 1358 713 1358 772 1252 c 2,8,-1
 1272 348 l 17,9,-1
 1455 1210 l 2,10,11
 1485 1351 1485 1351 1489 1510 c 1,12,-1
 1691 1510 l 1,13,14
 1628 1358 1628 1358 1597 1210 c 2,15,-1
 1404 300 l 2,16,17
 1372 149 1372 149 1370 0 c 1,18,-1
 1193 0 l 1,19,20
 1149 151 1149 151 1091 258 c 2,21,-1
 592 1177 l 17,22,-1
 406 300 l 2,23,24
 374 149 374 149 372 0 c 1,25,-1
 170 0 l 1,0,1
EndSplineSet
Validated: 1
EndChar

StartChar: O
Encoding: 79 79 48
Width: 1726
GlyphClass: 2
Flags: W
HStem: -20 126<685.706 1102.88> 1404 126<942.834 1360.26>
VStem: 239 225<342.562 839.878> 1583 225<670.604 1166.72>
LayerCount: 2
Fore
SplineSet
858 -20 m 128,-1,1
 552 -20 552 -20 374 183 c 0,2,3
 239 337 239 337 239 563 c 0,4,5
 239 653 239 653 260 755 c 0,6,7
 336 1111 336 1111 617 1327 c 0,8,9
 881 1530 881 1530 1187 1530 c 128,-1,10
 1493 1530 1493 1530 1671 1327 c 0,11,12
 1808 1171 1808 1171 1808 945 c 0,13,14
 1808 856 1808 856 1786 755 c 0,15,16
 1710 401 1710 401 1428 183 c 0,17,0
 1164 -20 1164 -20 858 -20 c 128,-1,1
885 106 m 0,18,19
 1133 106 1133 106 1329 306 c 0,20,21
 1504 484 1504 484 1562 755 c 0,22,23
 1583 855 1583 855 1583 942 c 0,24,25
 1583 1092 1583 1092 1520 1204 c 0,26,27
 1409 1404 1409 1404 1160 1404 c 0,28,29
 914 1404 914 1404 718 1204 c 0,30,31
 546 1028 546 1028 486 755 c 0,32,33
 464 655 464 655 464 568 c 0,34,35
 464 418 464 418 527 306 c 0,36,37
 639 106 639 106 885 106 c 0,18,19
EndSplineSet
Validated: 1
EndChar

StartChar: P
Encoding: 80 80 49
Width: 1152
GlyphClass: 2
Flags: W
HStem: 0 21G<170 421> 610 125<546 856.989> 1386 124<681.125 974.593>
VStem: 170 250<0 117.188> 1078 210<959.227 1288.64>
DStem2: 200.233 0 390.34 0 0.207912 0.978148<50.2917 663.153 790.827 1455.7>
LayerCount: 2
Fore
SplineSet
546 735 m 1,0,-1
 676 735 l 2,1,2
 822 735 822 735 938 831 c 0,3,4
 1036 913 1036 913 1068 1060 c 0,5,6
 1078 1108 1078 1108 1078 1150 c 0,7,8
 1078 1234 1078 1234 1035 1289 c 0,9,10
 960 1386 960 1386 815 1386 c 2,11,-1
 695 1386 l 1,12,13
 666 1298 666 1298 647 1210 c 2,14,-1
 546 735 l 1,0,-1
170 0 m 1,15,16
 233 153 233 153 264 300 c 2,17,-1
 457 1210 l 2,18,19
 489 1361 489 1361 491 1510 c 1,20,-1
 851 1510 l 2,21,22
 1074 1510 1074 1510 1197 1387 c 0,23,24
 1288 1296 1288 1296 1288 1160 c 0,25,26
 1288 1113 1288 1113 1277 1060 c 0,27,28
 1232 848 1232 848 1057 725 c 0,29,30
 893 610 893 610 660 610 c 2,31,-1
 520 610 l 1,32,-1
 454 300 l 2,33,34
 422 150 422 150 420 0 c 1,35,-1
 170 0 l 1,15,16
EndSplineSet
Validated: 1
EndChar

StartChar: Q
Encoding: 81 81 50
Width: 1726
GlyphClass: 2
Flags: W
HStem: -20 126<685.457 1106.35> 1404 126<942.834 1360.26>
VStem: 239 225<342.562 839.615> 1583 225<670.604 1166.72>
LayerCount: 2
Fore
SplineSet
858 -20 m 0,0,1
 552 -20 552 -20 374 183 c 0,2,3
 239 337 239 337 239 563 c 0,4,5
 239 657 239 657 260 755 c 0,6,7
 336 1111 336 1111 617 1327 c 0,8,9
 881 1530 881 1530 1187 1530 c 128,-1,10
 1493 1530 1493 1530 1671 1327 c 0,11,12
 1808 1171 1808 1171 1808 945 c 0,13,14
 1808 856 1808 856 1786 755 c 0,15,16
 1710 401 1710 401 1428 183 c 0,17,18
 1374 142 1374 142 1318 109 c 1,19,-1
 1321 103 l 2,20,21
 1380 -27 1380 -27 1460 -132 c 1,22,-1
 1213 -132 l 1,23,24
 1197 -43 1197 -43 1171 37 c 1,25,26
 1021 -20 1021 -20 858 -20 c 0,0,1
1122 157 m 1,27,-1
 1063 287 l 2,28,29
 1004 417 1004 417 924 522 c 1,30,-1
 1171 522 l 1,31,32
 1197 375 1197 375 1252 254 c 2,33,-1
 1257 241 l 1,34,35
 1293 270 1293 270 1329 306 c 0,36,37
 1504 484 1504 484 1562 755 c 0,38,39
 1583 855 1583 855 1583 942 c 0,40,41
 1583 1092 1583 1092 1520 1204 c 0,42,43
 1409 1404 1409 1404 1160 1404 c 0,44,45
 914 1404 914 1404 718 1204 c 0,46,47
 544 1026 544 1026 486 755 c 0,48,49
 464 654 464 654 464 568 c 0,50,51
 464 418 464 418 527 306 c 0,52,53
 638 106 638 106 885 106 c 0,54,55
 1010 106 1010 106 1122 157 c 1,27,-1
EndSplineSet
Validated: 1
EndChar

StartChar: R
Encoding: 82 82 51
Width: 1257
GlyphClass: 2
Flags: W
HStem: 0 21G<170 421 961 1252> 610 125<546 736> 1386 124<681.125 978.245>
VStem: 170 250<0 117.188> 1078 211<959.938 1288.99>
DStem2: 200.233 0 390.34 0 0.207912 0.978148<50.2917 663.153 790.827 1455.7> 922 654 736 611 0.414784 -0.90992<0 612.114>
LayerCount: 2
Fore
SplineSet
170 0 m 1,0,1
 233 152 233 152 264 300 c 2,2,-1
 457 1210 l 2,3,4
 489 1361 489 1361 491 1510 c 1,5,-1
 851 1510 l 2,6,7
 1071 1510 1071 1510 1193 1388 c 0,8,9
 1289 1292 1289 1292 1289 1156 c 0,10,11
 1289 1110 1289 1110 1278 1060 c 0,12,13
 1233 849 1233 849 1057 725 c 0,14,15
 995 681 995 681 922 654 c 1,16,-1
 1113 235 l 2,17,18
 1173 104 1173 104 1252 0 c 1,19,-1
 974 0 l 1,20,21
 948 148 948 148 893 268 c 2,22,-1
 736 611 l 1,23,24
 711 610 711 610 665 610 c 2,25,-1
 520 610 l 1,26,-1
 454 300 l 2,27,28
 422 150 422 150 420 0 c 1,29,-1
 170 0 l 1,0,1
546 735 m 1,30,-1
 676 735 l 2,31,32
 822 735 822 735 938 831 c 0,33,34
 1036 913 1036 913 1068 1060 c 0,35,36
 1078 1108 1078 1108 1078 1150 c 0,37,38
 1078 1234 1078 1234 1035 1289 c 0,39,40
 960 1386 960 1386 815 1386 c 2,41,-1
 695 1386 l 1,42,43
 666 1298 666 1298 647 1210 c 2,44,-1
 546 735 l 1,30,-1
EndSplineSet
Validated: 1
EndChar

StartChar: S
Encoding: 83 83 52
Width: 1070
GlyphClass: 2
Flags: W
HStem: -20 126<325.87 660.955> 1406 124<737.594 1013.74>
VStem: 428 201<1039.44 1293.05> 874 217<328.266 613.491>
DStem2: 729 982 605 812 0.782888 -0.622163<-154.471 370.347>
LayerCount: 2
Fore
SplineSet
441 -20 m 0,0,1
 251 -20 251 -20 99 88 c 1,2,-1
 163 389 l 1,3,-1
 173 389 l 1,4,5
 194 301 194 301 234 242 c 0,6,7
 325 106 325 106 479.5 106 c 128,-1,8
 634 106 634 106 747 212 c 0,9,10
 844 303 844 303 868 418 c 0,11,12
 874 447 874 447 874 475 c 0,13,14
 874 599 874 599 756 692 c 2,15,-1
 605 812 l 2,16,17
 428 952 428 952 428 1123 c 0,18,19
 428 1163 428 1163 438 1204 c 0,20,21
 478 1373 478 1373 649 1466 c 0,22,23
 766 1530 766 1530 898 1530 c 0,24,25
 1041 1530 1041 1530 1152 1474 c 1,26,-1
 1099 1223 l 1,27,-1
 1089 1223 l 1,28,29
 1081 1254 1081 1254 1068 1284 c 0,30,31
 1016 1406 1016 1406 896 1406 c 0,32,33
 804 1406 804 1406 739 1363 c 0,34,35
 653 1306 653 1306 634 1210 c 0,36,37
 629 1186 629 1186 629 1163 c 0,38,39
 629 1058 629 1058 729 982 c 2,40,-1
 869 875 l 2,41,42
 1091 705 1091 705 1091 511 c 0,43,44
 1091 469 1091 469 1081 427 c 0,45,46
 1037 243 1037 243 871 116 c 0,47,48
 694 -20 694 -20 441 -20 c 0,0,1
EndSplineSet
Validated: 1
EndChar

StartChar: T
Encoding: 84 84 53
Width: 1100
GlyphClass: 2
Flags: W
HStem: 0 21G<425 676> 1356 154<341 738.047 951.953 1371.07> 1386 124<341 740 936.125 1363.5>
VStem: 425 250<0 117.188> 740 210<1223.75 1386>
DStem2: 454.807 0 644.807 0 0.207912 0.978148<50.3804 1412.26>
LayerCount: 2
Fore
SplineSet
425 0 m 1,0,1
 487 150 487 150 519 300 c 2,2,-1
 712 1210 l 2,3,4
 731 1298 731 1298 740 1386 c 1,5,-1
 615 1386 l 2,6,7
 465 1386 465 1386 308 1356 c 1,8,-1
 341 1510 l 1,9,-1
 1401 1510 l 1,10,-1
 1368 1356 l 1,11,12
 1224 1386 1224 1386 1075 1386 c 2,13,-1
 950 1386 l 1,14,15
 921 1298 921 1298 902 1210 c 2,16,-1
 709 300 l 2,17,18
 677 150 677 150 675 0 c 1,19,-1
 425 0 l 1,0,1
EndSplineSet
Validated: 1
EndChar

StartChar: U
Encoding: 85 85 54
Width: 1560
GlyphClass: 2
Flags: W
HStem: -20 151<641.736 958.507> 0 21G<1140 1391> 1490 20G<490 751 1460 1711>
VStem: 314 199<264.489 734.969> 491 260<1392.81 1510> 1140 250<0 114.13> 1461 250<1393.29 1510>
DStem2: 195.437 -20 396.012 -20 0.207912 0.978148<523.501 1553.42> 1166.01 -20 1355.98 -20 0.207912 0.978148<382.455 1553.33>
LayerCount: 2
Fore
SplineSet
1390 0 m 1,0,-1
 1140 0 l 1,1,2
 1182 97 1182 97 1208 191 c 1,3,4
 993 -20 993 -20 731 -20 c 0,5,6
 497 -20 497 -20 385 164 c 0,7,8
 314 279 314 279 314 443 c 0,9,10
 314 537 314 537 337 646 c 2,11,-1
 457 1210 l 2,12,13
 489 1360 489 1360 491 1510 c 1,14,-1
 751 1510 l 1,15,16
 688 1357 688 1357 657 1210 c 2,17,-1
 538 648 l 2,18,19
 513 531 513 531 513 445 c 0,20,21
 513 360 513 360 537 304 c 8,22,23
 610 131 610 131 813 131 c 0,24,25
 1011 131 1011 131 1147 288 c 0,26,27
 1259 416 1259 416 1308 648 c 2,28,-1
 1427 1210 l 2,29,30
 1459 1361 1459 1361 1461 1510 c 1,31,-1
 1711 1510 l 1,32,33
 1648 1357 1648 1357 1617 1210 c 2,34,-1
 1424 300 l 2,35,36
 1392 149 1392 149 1390 0 c 1,0,-1
EndSplineSet
Validated: 1
EndChar

StartChar: V
Encoding: 86 86 55
Width: 1590
GlyphClass: 2
Flags: W
HStem: 0 21G<700 923> 1490 20G<326 592.5 1647.5 1906>
VStem: 704 182<0 85.21>
DStem2: 868 253 425 1251 0.240656 -0.970611<-1282.41 -0.93931> 868 253 1047 285 0.558828 0.829284<2.30537 1493.15>
LayerCount: 2
Fore
SplineSet
868 253 m 9,0,-1
 1523 1225 l 2,1,2
 1611 1356 1611 1356 1684 1510 c 1,3,-1
 1906 1510 l 1,4,5
 1785 1382 1785 1382 1697 1251 c 2,6,-1
 1047 285 l 2,7,8
 960 155 960 155 886 0 c 1,9,-1
 704 0 l 1,10,11
 696 160 696 160 665 285 c 2,12,-1
 425 1251 l 2,13,14
 395 1372 395 1372 326 1510 c 1,15,-1
 588 1510 l 1,16,17
 597 1346 597 1346 627 1225 c 2,18,-1
 868 253 l 9,0,-1
EndSplineSet
Validated: 1
EndChar

StartChar: W
Encoding: 87 87 56
Width: 1939
GlyphClass: 2
Flags: W
HStem: 0 21G<459 683.5 1280 1502.5> 1490 20G<341 583 1206.5 1399 2022.5 2240>
VStem: 459 205<0 131.852>
DStem2: 574 1213 393 1230 0.0801274 -0.996785<-104.206 914.033> 649 301 781 297 0.45268 0.891673<2.91176 1026.65> 1390 1213 1219 1163 0.0819602 -0.996636<35.8166 913.943> 1465 301 1597 297 0.450655 0.892698<0.949592 1335.69>
LayerCount: 2
Fore
SplineSet
459 0 m 1,0,1
 472 95 472 95 472 189 c 0,2,3
 472 247 472 247 468 297 c 2,4,-1
 393 1230 l 2,5,6
 380 1387 380 1387 341 1510 c 1,7,-1
 583 1510 l 1,8,9
 570 1413 570 1413 570 1319 c 0,10,11
 570 1262 570 1262 574 1213 c 2,12,-1
 649 301 l 9,13,-1
 1112 1213 l 2,14,15
 1184 1355 1184 1355 1229 1510 c 1,16,-1
 1399 1510 l 1,17,18
 1386 1413 1386 1413 1386 1319 c 0,19,20
 1386 1262 1386 1262 1390 1213 c 2,21,-1
 1465 301 l 1,22,-1
 1928 1213 l 2,23,24
 2000 1355 2000 1355 2045 1510 c 1,25,-1
 2240 1510 l 1,26,27
 2146 1385 2146 1385 2068 1230 c 2,28,-1
 1597 297 l 2,29,30
 1525 154 1525 154 1480 0 c 1,31,-1
 1280 0 l 1,32,33
 1293 95 1293 95 1293 189 c 0,34,35
 1293 248 1293 248 1289 297 c 2,36,-1
 1219 1163 l 1,37,-1
 781 297 l 2,38,39
 703 143 703 143 664 0 c 1,40,-1
 459 0 l 1,0,1
EndSplineSet
Validated: 1
EndChar

StartChar: X
Encoding: 88 88 57
Width: 1363
GlyphClass: 2
Flags: W
HStem: 0 21G<40 317 1027.5 1323> 1490 20G<361 656 1363.5 1644>
DStem2: 885 889 500 1275 0.414756 -0.909933<-660.676 0 209.932 868.828> 746 735 801 620 0.670493 0.741916<-856.307 -48.4431 207.454 1014.41>
LayerCount: 2
Fore
SplineSet
40 0 m 1,0,1
 177 109 177 109 286 229 c 2,2,-1
 746 735 l 1,3,-1
 500 1275 l 2,4,5
 442 1402 442 1402 361 1510 c 1,6,-1
 644 1510 l 1,7,8
 668 1368 668 1368 725 1242 c 2,9,-1
 885 889 l 1,10,-1
 1206 1247 l 2,11,12
 1318 1372 1318 1372 1409 1510 c 1,13,-1
 1644 1510 l 1,14,15
 1493 1386 1493 1386 1398 1281 c 2,16,-1
 939 773 l 1,17,-1
 1184 235 l 2,18,19
 1244 103 1244 103 1323 0 c 1,20,-1
 1040 0 l 1,21,22
 1015 143 1015 143 959 268 c 2,23,-1
 801 620 l 1,24,-1
 478 263 l 2,25,26
 359 131 359 131 275 0 c 1,27,-1
 40 0 l 1,0,1
EndSplineSet
Validated: 1
EndChar

StartChar: Y
Encoding: 89 89 58
Width: 1333
GlyphClass: 2
Flags: W
HStem: 0 21G<535 796> 1490 20G<326 603 1381.5 1649>
VStem: 535 260<0 117.188>
DStem2: 666 1237 455 1268 0.361947 -0.932199<-276.214 514.416> 564.601 0 765.302 0 0.207912 0.978148<52.5021 651.231> 851 757 899 629 0.630455 0.776225<0 939.493>
LayerCount: 2
Fore
SplineSet
535 0 m 1,0,1
 597 150 597 150 629 300 c 2,2,-1
 700 637 l 25,3,-1
 455 1268 l 2,4,5
 403 1401 403 1401 326 1510 c 1,6,-1
 595 1510 l 1,7,8
 611 1380 611 1380 666 1237 c 2,9,-1
 851 757 l 1,10,-1
 1235 1237 l 2,11,12
 1341 1370 1341 1370 1422 1510 c 1,13,-1
 1649 1510 l 1,14,15
 1530 1406 1530 1406 1418 1268 c 2,16,-1
 899 629 l 25,17,-1
 829 300 l 2,18,19
 797 150 797 150 795 0 c 1,20,-1
 535 0 l 1,0,1
EndSplineSet
Validated: 1
EndChar

StartChar: Z
Encoding: 90 90 59
Width: 1378
GlyphClass: 2
Flags: W
HStem: 0 124<362 1298> 1386 124<509 1305>
DStem2: 335 349 362 124 0.68685 0.726799<-142.37 1419.28>
LayerCount: 2
Fore
SplineSet
103 0 m 1,0,-1
 86 124 l 1,1,2
 219 225 219 225 335 349 c 2,3,-1
 1305 1386 l 17,4,-1
 783 1386 l 2,5,6
 636 1386 636 1386 476 1356 c 1,7,-1
 509 1510 l 1,8,-1
 1559 1510 l 1,9,-1
 1591 1386 l 1,10,11
 1459 1285 1459 1285 1342 1161 c 2,12,-1
 362 124 l 17,13,-1
 1024 124 l 2,14,15
 1184 124 1184 124 1331 154 c 1,16,-1
 1298 0 l 1,17,-1
 103 0 l 1,0,-1
EndSplineSet
Validated: 1
EndChar

StartChar: bracketleft
Encoding: 91 91 60
Width: 803
GlyphClass: 2
Flags: W
HStem: -250 124<381 700> 1606 154<758.672 1097.07> 1636 124<743.333 1089.5>
DStem2: 147.233 -250 347.233 -250 0.207912 0.978148<172.782 1969.52>
LayerCount: 2
Fore
SplineSet
544 1760 m 1,0,-1
 1127 1760 l 1,1,-1
 1094 1606 l 1,2,3
 950 1636 950 1636 801 1636 c 2,4,-1
 758 1636 l 1,5,6
 733 1568 733 1568 710 1460 c 2,7,-1
 411 50 l 2,8,9
 393 -34 393 -34 381 -126 c 1,10,-1
 426 -126 l 2,11,12
 584 -126 584 -126 733 -96 c 1,13,-1
 700 -250 l 1,14,-1
 117 -250 l 1,15,16
 180 -98 180 -98 211 50 c 2,17,-1
 510 1460 l 2,18,19
 544 1620 544 1620 544 1760 c 1,0,-1
EndSplineSet
Validated: 1
EndChar

StartChar: backslash
Encoding: 92 92 61
Width: 1110
GlyphClass: 2
Flags: W
VStem: 369 226<1594.06 1690> 836 226<-180 -83.418>
DStem2: 635 1405 468 1431 0.240123 -0.970742<-281.733 1581.98>
LayerCount: 2
Fore
SplineSet
1062 -180 m 1,0,1
 836 -180 l 1,2,3
 827 -20 827 -20 796 105 c 2,4,-1
 468 1431 l 2,5,6
 435 1563 435 1563 369 1690 c 1,7,-1
 595 1690 l 1,8,9
 601 1542 601 1542 635 1405 c 2,10,-1
 963 79 l 18,11,12
 993 -42 993 -42 1062 -180 c 1,0,1
EndSplineSet
Validated: 1
EndChar

StartChar: bracketright
Encoding: 93 93 62
Width: 803
GlyphClass: 2
Flags: W
HStem: -250 154<26.928 367.297> -250 124<34.2551 380.576> 1636 124<424 741>
DStem2: 350.233 -250 550.233 -250 0.207912 0.978148<127.946 1921.15>
LayerCount: 2
Fore
SplineSet
424 1760 m 1,0,-1
 1007 1760 l 1,1,2
 947 1622 947 1622 913 1460 c 2,3,-1
 614 50 l 2,4,5
 580 -112 580 -112 580 -250 c 1,6,-1
 -3 -250 l 1,7,-1
 30 -96 l 1,8,9
 166 -126 166 -126 323 -126 c 2,10,-1
 368 -126 l 1,11,12
 396 -35 396 -35 414 50 c 2,13,-1
 713 1460 l 2,14,15
 733 1553 733 1553 741 1636 c 1,16,-1
 698 1636 l 2,17,18
 548 1636 548 1636 391 1606 c 1,19,-1
 424 1760 l 1,0,-1
EndSplineSet
Validated: 1
EndChar

StartChar: asciicircum
Encoding: 94 94 63
Width: 1053
GlyphClass: 2
Flags: W
HStem: 1200 330<647.665 738.672>
LayerCount: 2
Fore
SplineSet
732 1530 m 1,0,-1
 971 1530 l 1,1,2
 988 1355 988 1355 1160 1210 c 1,3,-1
 1158 1200 l 1,4,-1
 915 1200 l 1,5,6
 844 1298 844 1298 830 1429 c 1,7,8
 760 1298 760 1298 648 1200 c 1,9,-1
 405 1200 l 1,10,-1
 407 1210 l 1,11,12
 641 1355 641 1355 732 1530 c 1,0,-1
EndSplineSet
Validated: 1
EndChar

StartChar: underscore
Encoding: 95 95 64
Width: 1133
GlyphClass: 2
Flags: W
HStem: -224 184<137.961 938.039> -194 124<145.501 930.468>
LayerCount: 2
Fore
SplineSet
141 -40 m 1,0,1
 285 -70 285 -70 435 -70 c 2,2,-1
 668 -70 l 2,3,4
 816 -70 816 -70 974 -40 c 1,5,-1
 935 -224 l 1,6,7
 790 -194 790 -194 642 -194 c 2,8,-1
 409 -194 l 2,9,10
 259 -194 259 -194 102 -224 c 1,11,-1
 141 -40 l 1,0,1
EndSplineSet
Validated: 1
EndChar

StartChar: grave
Encoding: 96 96 65
Width: 479
GlyphClass: 2
Flags: W
HStem: 1200 330<519.335 589>
VStem: 375 311
LayerCount: 2
Fore
SplineSet
375 1530 m 1,0,-1
 597 1530 l 1,1,2
 589 1494 589 1494 589 1458 c 0,3,4
 589 1331 589 1331 686 1210 c 1,5,-1
 684 1200 l 9,6,-1
 561 1200 l 1,7,8
 404 1345 404 1345 373 1520 c 1,9,-1
 375 1530 l 1,0,-1
EndSplineSet
Validated: 1
EndChar

StartChar: a
Encoding: 97 97 66
Width: 1347
GlyphClass: 2
Flags: W
HStem: -20 103<537.444 865.782> 0 21G<945 1176.5> 1017 103<715.928 1044.52>
VStem: 202 208<218.151 650.726>
DStem2: 968.896 -20 1144.04 -20 0.207912 0.978148<232.134 835.151>
LayerCount: 2
Fore
SplineSet
1176 0 m 1,0,-1
 945 0 l 1,1,2
 964 45 964 45 980 93 c 1,3,4
 841 -20 841 -20 660 -20 c 0,5,6
 430 -20 430 -20 305 128 c 0,7,8
 202 251 202 251 202 417 c 0,9,10
 202 480 202 480 217 550 c 0,11,12
 271 805 271 805 485 972 c 0,13,14
 674 1120 674 1120 902 1120 c 0,15,16
 1083 1120 1083 1120 1174 1010 c 1,17,18
 1177 1053 1177 1053 1178 1094 c 1,19,-1
 1417 1140 l 1,20,21
 1357 987 1357 987 1328 847 c 2,22,-1
 1211 295 l 2,23,24
 1177 138 1177 138 1176 0 c 1,0,-1
702 83 m 0,25,26
 857 83 857 83 981 223 c 24,27,28
 1032 280 1032 280 1057 395 c 2,29,-1
 1123 705 l 2,30,31
 1134 759 1134 759 1134 800 c 0,32,33
 1134 846 1134 846 1120 877 c 8,34,35
 1055 1017 1055 1017 900 1017 c 0,36,37
 724 1017 724 1017 590 877 c 0,38,39
 468 751 468 751 426 550 c 0,40,41
 410 472 410 472 410 405 c 0,42,43
 410 300 410 300 451 223 c 0,44,45
 526 83 526 83 702 83 c 0,25,26
EndSplineSet
Validated: 1
EndChar

StartChar: b
Encoding: 98 98 67
Width: 1348
GlyphClass: 2
Flags: W
HStem: -20 103<537.223 866.402> 0 21G<172 403> 1017 103<715.747 1043.99> 1530 20G<627.087 701>
VStem: 1172 208<452.598 880.28>
DStem2: 195.257 -20 370.789 -20 0.207912 0.978148<364.679 971.605 1075.25 1547.66>
LayerCount: 2
Fore
SplineSet
682 83 m 0,0,1
 858 83 858 83 991 223 c 0,2,3
 1112 349 1112 349 1155 550 c 0,4,5
 1172 628 1172 628 1172 694 c 0,6,7
 1172 799 1172 799 1130 877 c 0,8,9
 1056 1017 1056 1017 880 1017 c 0,10,11
 725 1017 725 1017 600 877 c 24,12,13
 549 820 549 820 525 705 c 2,14,-1
 459 395 l 2,15,16
 447 340 447 340 447 298 c 0,17,18
 447 253 447 253 461 223 c 8,19,20
 527 83 527 83 682 83 c 0,0,1
172 0 m 1,21,22
 229 135 229 135 262 294 c 2,23,-1
 457 1208 l 2,24,25
 487 1350 487 1350 492 1504 c 1,26,-1
 731 1550 l 1,27,28
 671 1394 671 1394 643 1259 c 2,29,-1
 587 996 l 1,30,31
 730 1120 730 1120 922 1120 c 0,32,33
 1150 1120 1150 1120 1277 972 c 0,34,35
 1380 851 1380 851 1380 685 c 0,36,37
 1380 621 1380 621 1365 550 c 0,38,39
 1311 298 1311 298 1097 128 c 0,40,41
 910 -20 910 -20 680 -20 c 0,42,43
 499 -20 499 -20 407 93 c 1,44,45
 403 45 403 45 403 0 c 1,46,-1
 172 0 l 1,21,22
EndSplineSet
Validated: 1
EndChar

StartChar: c
Encoding: 99 99 68
Width: 1198
GlyphClass: 2
Flags: W
HStem: -20 104<546.532 914.586> 1016 104<725.359 1091.38>
VStem: 202 208<227.024 648.825>
LayerCount: 2
Fore
SplineSet
710 -20 m 0,0,1
 440 -20 440 -20 309 132 c 0,2,3
 202 257 202 257 202 424 c 0,4,5
 202 485 202 485 216 551 c 0,6,7
 270 804 270 804 485 972 c 0,8,9
 674 1120 674 1120 952 1120 c 0,10,11
 1154 1120 1154 1120 1299 1018 c 1,12,-1
 1247 772 l 1,13,-1
 1237 771 l 1,14,15
 1152 1016 1152 1016 930 1016 c 0,16,17
 730 1016 730 1016 593 878 c 0,18,19
 471 755 471 755 427 550 c 0,20,21
 410 471 410 471 410 404 c 0,22,23
 410 298 410 298 453 222 c 0,24,25
 532 84 532 84 732 84 c 0,26,27
 951 84 951 84 1158 329 c 1,28,-1
 1168 328 l 1,29,-1
 1124 122 l 1,30,31
 925 -20 925 -20 710 -20 c 0,0,1
EndSplineSet
Validated: 1
EndChar

StartChar: d
Encoding: 100 100 69
Width: 1348
GlyphClass: 2
Flags: W
HStem: -20 103<537.444 865.968> 0 21G<945 1176.5> 1017 103<715.928 1045.96> 1530 20G<1400.09 1474>
VStem: 202 208<218.151 650.726>
DStem2: 968.896 -20 1143.26 -20 0.207912 0.978148<230.772 835.151 1038.73 1547.52>
LayerCount: 2
Fore
SplineSet
702 83 m 0,0,1
 857 83 857 83 981 223 c 24,2,3
 1032 280 1032 280 1057 395 c 2,4,-1
 1123 705 l 2,5,6
 1134 759 1134 759 1134 800 c 0,7,8
 1134 846 1134 846 1120 877 c 8,9,10
 1055 1017 1055 1017 900 1017 c 0,11,12
 724 1017 724 1017 590 877 c 0,13,14
 468 751 468 751 426 550 c 0,15,16
 410 472 410 472 410 405 c 0,17,18
 410 300 410 300 451 223 c 0,19,20
 526 83 526 83 702 83 c 0,0,1
1176 0 m 1,21,-1
 945 0 l 1,22,23
 964 45 964 45 981 93 c 1,24,25
 841 -20 841 -20 660 -20 c 0,26,27
 430 -20 430 -20 305 128 c 0,28,29
 202 251 202 251 202 417 c 0,30,31
 202 480 202 480 217 550 c 0,32,33
 271 805 271 805 485 972 c 0,34,35
 674 1120 674 1120 902 1120 c 0,36,37
 1094 1120 1094 1120 1185 996 c 1,38,-1
 1230 1208 l 2,39,40
 1260 1350 1260 1350 1265 1504 c 1,41,-1
 1504 1550 l 1,42,43
 1444 1394 1444 1394 1416 1259 c 2,44,-1
 1210 294 l 2,45,46
 1177 136 1177 136 1176 0 c 1,21,-1
EndSplineSet
Validated: 1
EndChar

StartChar: e
Encoding: 101 101 70
Width: 1278
GlyphClass: 2
Flags: W
HStem: -20 104<544.82 897.587> 499 105<445 1090.56> 1017 103<701.174 1012.81>
VStem: 202 212<217.113 497.478> 1099 213<605.731 911.202>
LayerCount: 2
Fore
SplineSet
700 -20 m 0,0,1
 432 -20 432 -20 305 128 c 0,2,3
 202 249 202 249 202 415 c 0,4,5
 202 479 202 479 217 550 c 0,6,7
 271 806 271 806 485 972 c 0,8,9
 675 1120 675 1120 892 1120 c 0,10,11
 1154 1120 1154 1120 1258 930 c 0,12,13
 1312 830 1312 830 1312 703 c 0,14,15
 1312 631 1312 631 1295 550 c 1,16,-1
 1233 499 l 9,17,-1
 423 499 l 1,18,19
 414 442 414 442 414 394 c 0,20,21
 414 291 414 291 453 222 c 0,22,23
 532 84 532 84 722 84 c 0,24,25
 931 84 931 84 1138 329 c 1,26,-1
 1148 328 l 1,27,-1
 1104 122 l 1,28,29
 905 -20 905 -20 700 -20 c 0,0,1
445 604 m 1,30,-1
 1084 604 l 1,31,32
 1099 695 1099 695 1099 762 c 0,33,34
 1099 831 1099 831 1083 874 c 0,35,36
 1029 1017 1029 1017 870 1017 c 0,37,38
 714 1017 714 1017 580 877 c 0,39,40
 492 785 492 785 445 604 c 1,30,-1
EndSplineSet
Validated: 1
EndChar

StartChar: f
Encoding: 102 102 71
Width: 800
GlyphClass: 2
Flags: W
HStem: 0 21G<172 404.5> 786 105<247.094 367 564 821.657> 1445 85<767.401 1004.98>
VStem: 172 231<0 124.519> 1044 10<1290 1313.27>
DStem2: 199.931 0 374.931 0 0.207912 0.978148<46.7649 803.56 947.224 1362.56>
LayerCount: 2
Fore
SplineSet
172 0 m 1,0,1
 231 148 231 148 262 294 c 2,2,-1
 367 786 l 1,3,-1
 357 786 l 2,4,5
 290 786 290 786 212 760 c 1,6,-1
 245 917 l 1,7,8
 312 891 312 891 379 891 c 2,9,-1
 389 891 l 1,10,-1
 426 1064 l 2,11,12
 475 1295 475 1295 595 1404 c 0,13,14
 734 1530 734 1530 943 1530 c 0,15,16
 1027 1530 1027 1530 1101 1511 c 1,17,-1
 1054 1290 l 1,18,-1
 1044 1290 l 1,19,20
 1031 1445 1031 1445 907 1445 c 0,21,22
 792 1445 792 1445 715 1358 c 0,23,24
 648 1282 648 1282 608 1095 c 2,25,-1
 564 891 l 1,26,-1
 574 891 l 2,27,28
 710 891 710 891 860 919 c 1,29,-1
 826 758 l 1,30,31
 687 786 687 786 552 786 c 2,32,-1
 542 786 l 1,33,-1
 437 294 l 2,34,35
 406 148 406 148 403 0 c 1,36,-1
 172 0 l 1,0,1
EndSplineSet
Validated: 1
EndChar

StartChar: g
Encoding: 103 103 72
Width: 1347
GlyphClass: 2
Flags: W
HStem: -430 104<389.858 740.423> -20 103<537.444 865.993> 1017 103<715.928 1044.52>
VStem: 202 208<218.151 650.726> 263 11<-123.137 -98>
DStem2: 881.748 -430 1056.12 -430 0.207912 0.978148<649.323 1254.31>
LayerCount: 2
Fore
SplineSet
702 83 m 0,0,1
 857 83 857 83 981 223 c 24,2,3
 1032 280 1032 280 1057 395 c 2,4,-1
 1123 705 l 2,5,6
 1134 759 1134 759 1134 800 c 0,7,8
 1134 846 1134 846 1120 877 c 8,9,10
 1055 1017 1055 1017 900 1017 c 0,11,12
 724 1017 724 1017 590 877 c 0,13,14
 468 751 468 751 426 550 c 0,15,16
 410 472 410 472 410 405 c 0,17,18
 410 300 410 300 451 223 c 0,19,20
 526 83 526 83 702 83 c 0,0,1
660 -20 m 0,21,22
 430 -20 430 -20 305 128 c 0,23,24
 202 251 202 251 202 417 c 0,25,26
 202 480 202 480 217 550 c 0,27,28
 271 805 271 805 485 972 c 0,29,30
 674 1120 674 1120 902 1120 c 0,31,32
 1083 1120 1083 1120 1174 1010 c 1,33,34
 1177 1053 1177 1053 1178 1094 c 1,35,-1
 1417 1140 l 1,36,37
 1357 984 1357 984 1328 847 c 2,38,-1
 1176 134 l 2,39,40
 1123 -114 1123 -114 973 -257 c 0,41,42
 791 -430 791 -430 560 -430 c 0,43,44
 365 -430 365 -430 208 -357 c 1,45,-1
 263 -98 l 1,46,-1
 274 -98 l 1,47,48
 284 -180 284 -180 339 -242 c 0,49,50
 415 -326 415 -326 578 -326 c 0,51,52
 722 -326 722 -326 833 -210 c 0,53,54
 885 -156 885 -156 932 -69 c 0,55,56
 975 10 975 10 995 105 c 1,57,58
 841 -20 841 -20 660 -20 c 0,21,22
EndSplineSet
Validated: 1
EndChar

StartChar: h
Encoding: 104 104 73
Width: 1341
GlyphClass: 2
Flags: W
HStem: 0 21G<172 404 933 1170.5> 1005 115<751.757 1030.7> 1530 20G<627.087 701>
VStem: 172 231<0 119.819> 933 236<0 125.007> 1114 182<522.219 923.714>
DStem2: 200.232 0 375.158 0 0.207912 0.978148<46.3953 936.106 1016.79 1527.03> 961.296 0 1140.51 0 0.207912 0.978148<47.7586 795.829>
LayerCount: 2
Fore
SplineSet
172 0 m 1,0,1
 230 139 230 139 263 295 c 2,2,-1
 457 1208 l 2,3,4
 487 1349 487 1349 492 1504 c 1,5,-1
 731 1550 l 1,6,7
 671 1390 671 1390 643 1259 c 2,8,-1
 579 959 l 1,9,10
 749 1120 749 1120 962 1120 c 0,11,12
 1184 1120 1184 1120 1268 943 c 0,13,14
 1296 885 1296 885 1296 800 c 0,15,16
 1296 730 1296 730 1277 641 c 2,17,-1
 1203 294 l 2,18,19
 1172 149 1172 149 1169 0 c 1,20,-1
 933 0 l 1,21,22
 995 159 995 159 1024 295 c 2,23,-1
 1097 642 l 2,24,25
 1114 724 1114 724 1114 783 c 0,26,27
 1114 837 1114 837 1100 871 c 0,28,29
 1043 1005 1043 1005 882 1005 c 128,-1,30
 721 1005 721 1005 605 871 c 0,31,32
 544 800 544 800 511 642 c 2,33,-1
 438 295 l 2,34,35
 405 138 405 138 403 0 c 1,36,-1
 172 0 l 1,0,1
EndSplineSet
Validated: 1
EndChar

StartChar: i
Encoding: 105 105 74
Width: 580
GlyphClass: 2
Flags: W
HStem: 0 21G<175 407> 1266 264<508.164 665.692>
VStem: 175 231<0 119.331> 453 267<1320.18 1475.62>
DStem2: 202.592 0 377.965 0 0.207912 0.978148<46.5282 1108.38>
LayerCount: 2
Fore
SplineSet
615 1530 m 0,0,1
 671 1530 671 1530 699 1492 c 0,2,3
 720 1464 720 1464 720 1428 c 0,4,5
 720 1410 720 1410 717 1398 c 0,6,7
 703 1342 703 1342 659 1304 c 0,8,9
 614 1266 614 1266 559 1266 c 0,10,11
 505 1266 505 1266 475 1304 c 0,12,13
 453 1332 453 1332 453 1369 c 0,14,15
 453 1381 453 1381 457 1398 c 0,16,17
 470 1454 470 1454 515 1492 c 128,-1,18
 560 1530 560 1530 615 1530 c 0,0,1
175 0 m 1,19,20
 232 137 232 137 266 295 c 2,21,-1
 372 797 l 2,22,23
 405 950 405 950 408 1094 c 1,24,-1
 647 1140 l 1,25,26
 587 987 587 987 558 847 c 2,27,-1
 441 295 l 2,28,29
 408 138 408 138 406 0 c 1,30,-1
 175 0 l 1,19,20
EndSplineSet
Validated: 1
EndChar

StartChar: j
Encoding: 106 106 75
Width: 580
GlyphClass: 2
Flags: W
HStem: -430 21G<-54 115> 1266 264<508.164 665.692>
VStem: 453 267<1320.18 1475.62>
DStem2: 110.533 -430 285.533 -430 0.207912 0.978148<156.486 1547.57>
LayerCount: 2
Fore
SplineSet
615 1530 m 0,0,1
 671 1530 671 1530 699 1492 c 0,2,3
 720 1464 720 1464 720 1428 c 0,4,5
 720 1410 720 1410 717 1398 c 0,6,7
 703 1342 703 1342 659 1304 c 0,8,9
 614 1266 614 1266 559 1266 c 0,10,11
 505 1266 505 1266 475 1304 c 0,12,13
 453 1332 453 1332 453 1369 c 0,14,15
 453 1381 453 1381 457 1398 c 0,16,17
 470 1454 470 1454 515 1492 c 128,-1,18
 560 1530 560 1530 615 1530 c 0,0,1
647 1140 m 1,19,20
 589 997 589 997 557 849 c 2,21,-1
 351 -122 l 2,22,23
 286 -430 286 -430 -56 -430 c 1,24,-1
 -54 -420 l 1,25,26
 137 -308 137 -308 176 -122 c 2,27,-1
 372 799 l 2,28,29
 402 939 402 939 407 1094 c 1,30,-1
 647 1140 l 1,19,20
EndSplineSet
Validated: 1
EndChar

StartChar: k
Encoding: 107 107 76
Width: 1214
GlyphClass: 2
Flags: W
HStem: 0 21G<172 404.5 877 1209> 1080 20G<1009.5 1290> 1530 20G<624.778 702.5>
VStem: 172 231<0 120.415>
DStem2: 199.508 0 375.2 0 0.207912 0.978148<46.8534 492.492 660.185 1528> 505 610 664 615 0.77162 0.636083<125.868 735.73> 664 615 529 497 0.640184 -0.768221<4.22522 622.136>
LayerCount: 2
Fore
SplineSet
172 0 m 1,0,1
 230 144 230 144 262 294 c 2,2,-1
 457 1209 l 2,3,4
 486 1345 486 1345 492 1505 c 1,5,-1
 731 1550 l 1,6,7
 674 1407 674 1407 643 1260 c 2,8,-1
 505 610 l 1,9,-1
 824 867 l 2,10,11
 958 975 958 975 1061 1100 c 1,12,-1
 1290 1100 l 1,13,14
 1150 1004 1150 1004 1045 920 c 2,15,-1
 664 615 l 1,16,-1
 1034 171 l 2,17,18
 1113 76 1113 76 1209 0 c 1,19,-1
 904 0 l 1,20,21
 850 120 850 120 758 228 c 2,22,-1
 529 497 l 1,23,-1
 470 446 l 1,24,-1
 438 297 l 2,25,26
 406 148 406 148 403 0 c 1,27,-1
 172 0 l 1,0,1
EndSplineSet
Validated: 1
EndChar

StartChar: l
Encoding: 108 108 77
Width: 575
GlyphClass: 2
Flags: W
HStem: 0 21G<172 403> 1530 20G<627.087 701>
VStem: 172 231<0 118.178>
DStem2: 200.232 0 375.391 0 0.207912 0.978148<46.322 1527.06>
LayerCount: 2
Fore
SplineSet
172 0 m 1,0,1
 229 135 229 135 262 294 c 2,2,-1
 457 1208 l 2,3,4
 487 1350 487 1350 492 1504 c 1,5,-1
 731 1550 l 1,6,7
 671 1394 671 1394 643 1259 c 2,8,-1
 437 294 l 2,9,10
 403 136 403 136 403 0 c 1,11,-1
 172 0 l 1,0,1
EndSplineSet
Validated: 1
EndChar

StartChar: m
Encoding: 109 109 78
Width: 2107
GlyphClass: 2
Flags: W
HStem: 0 21G<172 404 933 1170.5 1699 1936.5> 1005 115<749.735 1030.7 1505.54 1797.64>
VStem: 172 231<0 119.819> 1699 236<0 123.056> 1880 182<521.219 922.885>
DStem2: 199.592 0 375.296 0 0.207912 0.978148<46.5282 936.187> 961.296 0 1140.51 0 0.207912 0.978148<47.7586 795.829> 1726.51 0 1906.72 0 0.207912 0.978148<47.892 795.014>
LayerCount: 2
Fore
SplineSet
172 0 m 1,0,1
 230 139 230 139 263 295 c 2,2,-1
 369 797 l 2,3,4
 402 953 402 953 405 1094 c 1,5,-1
 644 1140 l 1,6,7
 609 1049 609 1049 584 963 c 1,8,9
 750 1120 750 1120 962 1120 c 0,10,11
 1184 1120 1184 1120 1268 938 c 0,12,13
 1275 923 1275 923 1281 907 c 1,14,15
 1314 942 1314 942 1344 970 c 0,16,17
 1507 1120 1507 1120 1728 1120 c 0,18,19
 1946 1120 1946 1120 2033 942 c 0,20,21
 2062 884 2062 884 2062 797 c 0,22,23
 2062 727 2062 727 2043 640 c 2,24,-1
 1969 293 l 2,25,26
 1938 148 1938 148 1935 0 c 1,27,-1
 1699 0 l 1,28,29
 1757 145 1757 145 1789 294 c 2,30,-1
 1863 641 l 2,31,32
 1880 723 1880 723 1880 782 c 0,33,34
 1880 836 1880 836 1866 870 c 0,35,36
 1809 1005 1809 1005 1648 1005 c 0,37,38
 1488 1005 1488 1005 1371 870 c 0,39,40
 1311 801 1311 801 1277 641 c 2,41,-1
 1203 294 l 2,42,43
 1172 149 1172 149 1169 0 c 1,44,-1
 933 0 l 1,45,46
 996 161 996 161 1024 295 c 2,47,-1
 1097 642 l 2,48,49
 1114 724 1114 724 1114 783 c 0,50,51
 1114 837 1114 837 1100 871 c 0,52,53
 1043 1005 1043 1005 882 1005 c 128,-1,54
 721 1005 721 1005 605 871 c 0,55,56
 544 800 544 800 511 642 c 2,57,-1
 438 295 l 2,58,59
 405 138 405 138 403 0 c 1,60,-1
 172 0 l 1,0,1
EndSplineSet
Validated: 1
EndChar

StartChar: n
Encoding: 110 110 79
Width: 1341
GlyphClass: 2
Flags: W
HStem: 0 21G<172 404 933 1170.5> 1005 115<749.735 1033.23>
VStem: 172 231<0 119.819> 933 236<0 120.402> 1114 182<522.219 923.558>
DStem2: 199.592 0 375.296 0 0.207912 0.978148<46.5282 936.187> 961.296 0 1140.51 0 0.207912 0.978148<47.7586 795.829>
LayerCount: 2
Fore
SplineSet
172 0 m 1,0,1
 230 139 230 139 263 295 c 2,2,-1
 369 797 l 2,3,4
 402 953 402 953 405 1094 c 1,5,-1
 644 1140 l 1,6,7
 609 1049 609 1049 584 963 c 1,8,9
 750 1120 750 1120 962 1120 c 0,10,11
 1180 1120 1180 1120 1267 943 c 0,12,13
 1296 884 1296 884 1296 798 c 0,14,15
 1296 728 1296 728 1277 641 c 2,16,-1
 1203 294 l 2,17,18
 1172 149 1172 149 1169 0 c 1,19,-1
 933 0 l 1,20,21
 996 160 996 160 1024 295 c 2,22,-1
 1097 642 l 2,23,24
 1114 724 1114 724 1114 783 c 0,25,26
 1114 837 1114 837 1100 871 c 0,27,28
 1043 1005 1043 1005 882 1005 c 128,-1,29
 721 1005 721 1005 605 871 c 0,30,31
 544 800 544 800 511 642 c 2,32,-1
 438 295 l 2,33,34
 405 138 405 138 403 0 c 1,35,-1
 172 0 l 1,0,1
EndSplineSet
Validated: 1
EndChar

StartChar: o
Encoding: 111 111 80
Width: 1328
GlyphClass: 2
Flags: W
HStem: -20 103<525.703 858.214> 1017 103<703.627 1036.6>
VStem: 201 206<217.641 644.105> 1154 207<456.559 882.359>
LayerCount: 2
Fore
SplineSet
660 -20 m 0,0,1
 432 -20 432 -20 305 128 c 0,2,3
 201 249 201 249 201 416 c 0,4,5
 201 484 201 484 216 550 c 0,6,7
 274 808 274 808 485 972 c 0,8,9
 675 1120 675 1120 902 1120 c 0,10,11
 1131 1120 1131 1120 1257 972 c 0,12,13
 1361 851 1361 851 1361 684 c 0,14,15
 1361 618 1361 618 1346 550 c 0,16,17
 1291 294 1291 294 1077 128 c 0,18,19
 886 -20 886 -20 660 -20 c 0,0,1
682 83 m 0,20,21
 849 83 849 83 981 223 c 0,22,23
 1088 338 1088 338 1134 550 c 0,24,25
 1154 641 1154 641 1154 715 c 0,26,27
 1154 812 1154 812 1120 877 c 0,28,29
 1047 1017 1047 1017 880 1017 c 0,30,31
 714 1017 714 1017 580 877 c 0,32,33
 472 764 472 764 426 550 c 0,34,35
 407 462 407 462 407 384 c 0,36,37
 407 287 407 287 441 223 c 0,38,39
 516 83 516 83 682 83 c 0,20,21
EndSplineSet
Validated: 1
EndChar

StartChar: p
Encoding: 112 112 81
Width: 1348
GlyphClass: 2
Flags: W
HStem: -410 21G<85 316> -20 103<536.213 866.402> 1017 103<716.406 1043.99>
VStem: 85 231<-410 -291.822> 1172 208<452.598 880.28>
DStem2: 112.508 -410 287.508 -410 0.207912 0.978148<46.4724 564.081 763.361 1368.01>
LayerCount: 2
Fore
SplineSet
682 83 m 0,0,1
 858 83 858 83 991 223 c 0,2,3
 1112 349 1112 349 1155 550 c 0,4,5
 1172 628 1172 628 1172 694 c 0,6,7
 1172 799 1172 799 1130 877 c 0,8,9
 1056 1017 1056 1017 880 1017 c 0,10,11
 725 1017 725 1017 600 877 c 24,12,13
 549 820 549 820 525 705 c 2,14,-1
 459 395 l 2,15,16
 447 340 447 340 447 298 c 0,17,18
 447 253 447 253 461 223 c 8,19,20
 527 83 527 83 682 83 c 0,0,1
680 -20 m 0,21,22
 489 -20 489 -20 398 106 c 1,23,-1
 350 -116 l 2,24,25
 316 -274 316 -274 316 -410 c 1,26,-1
 85 -410 l 1,27,28
 142 -275 142 -275 175 -116 c 2,29,-1
 370 798 l 2,30,31
 400 940 400 940 405 1094 c 1,32,-1
 644 1140 l 1,33,34
 617 1070 617 1070 597 1005 c 1,35,36
 736 1120 736 1120 922 1120 c 0,37,38
 1150 1120 1150 1120 1277 972 c 0,39,40
 1380 851 1380 851 1380 685 c 0,41,42
 1380 621 1380 621 1365 550 c 0,43,44
 1311 298 1311 298 1097 128 c 0,45,46
 910 -20 910 -20 680 -20 c 0,21,22
EndSplineSet
Validated: 1
EndChar

StartChar: q
Encoding: 113 113 82
Width: 1348
GlyphClass: 2
Flags: W
HStem: -410 21G<858 1089> -20 103<537.444 866.018> 1017 103<715.928 1046.37>
VStem: 202 208<217.926 650.726> 858 231<-410 -291.822>
DStem2: 885.508 -410 1060.51 -410 0.207912 0.978148<46.4724 527.697 628.979 1233.97>
LayerCount: 2
Fore
SplineSet
702 83 m 0,0,1
 857 83 857 83 981 223 c 24,2,3
 1032 280 1032 280 1057 395 c 2,4,-1
 1123 705 l 2,5,6
 1134 759 1134 759 1134 800 c 0,7,8
 1134 846 1134 846 1120 877 c 8,9,10
 1055 1017 1055 1017 900 1017 c 0,11,12
 724 1017 724 1017 590 877 c 0,13,14
 468 751 468 751 426 550 c 0,15,16
 410 472 410 472 410 405 c 0,17,18
 410 300 410 300 451 223 c 0,19,20
 526 83 526 83 702 83 c 0,0,1
660 -20 m 0,21,22
 430 -20 430 -20 305 128 c 0,23,24
 202 250 202 250 202 417 c 0,25,26
 202 480 202 480 217 550 c 0,27,28
 271 805 271 805 485 972 c 0,29,30
 674 1120 674 1120 902 1120 c 0,31,32
 1082 1120 1082 1120 1173 1011 c 1,33,34
 1177 1052 1177 1052 1178 1094 c 1,35,-1
 1417 1140 l 1,36,37
 1357 984 1357 984 1328 849 c 2,38,-1
 1123 -116 l 2,39,40
 1089 -274 1089 -274 1089 -410 c 1,41,-1
 858 -410 l 1,42,43
 915 -275 915 -275 948 -116 c 2,44,-1
 996 106 l 1,45,46
 851 -20 851 -20 660 -20 c 0,21,22
EndSplineSet
Validated: 1
EndChar

StartChar: r
Encoding: 114 114 83
Width: 848
GlyphClass: 2
Flags: W
HStem: 0 21G<172 404.5> 1005 115<731.248 957.747>
VStem: 172 231<0 117.355> 999 10<850 873.273>
DStem2: 199.592 0 376.083 0 0.207912 0.978148<46.6552 938.149>
LayerCount: 2
Fore
SplineSet
172 0 m 1,0,1
 232 144 232 144 264 296 c 2,2,-1
 369 797 l 2,3,4
 403 957 403 957 405 1094 c 1,5,-1
 645 1139 l 1,6,7
 605 1049 605 1049 584 963 c 1,8,9
 738 1120 738 1120 903 1120 c 0,10,11
 989 1120 989 1120 1062 1101 c 1,12,-1
 1009 850 l 1,13,-1
 999 850 l 1,14,15
 980 1005 980 1005 853 1005 c 0,16,17
 703 1005 703 1005 605 871 c 0,18,19
 542 784 542 784 511 642 c 2,20,-1
 439 296 l 2,21,22
 406 142 406 142 403 0 c 1,23,-1
 172 0 l 1,0,1
EndSplineSet
Validated: 1
EndChar

StartChar: s
Encoding: 115 115 84
Width: 874
GlyphClass: 2
Flags: W
HStem: -20 104<268.134 563.92> 1026 94<569.012 797.77>
VStem: 151 10<312.062 334> 341 179<759.312 968.221> 683 186<217.319 448.911> 841 10<888 904.711>
DStem2: 588 737 490 572 0.784602 -0.62<-116.633 301.277>
LayerCount: 2
Fore
SplineSet
404 -20 m 0,0,1
 228 -20 228 -20 95 71 c 1,2,-1
 151 334 l 1,3,-1
 161 334 l 1,4,5
 168 244 168 244 206 190 c 0,6,7
 281 84 281 84 420 84 c 0,8,9
 525 84 525 84 606 161 c 0,10,11
 665 217 665 217 680 298 c 0,12,13
 683 317 683 317 683 335 c 0,14,15
 683 417 683 417 611 475 c 2,16,-1
 490 572 l 2,17,18
 341 692 341 692 341 825 c 0,19,20
 341 854 341 854 348 884 c 0,21,22
 375 997 375 997 491 1064 c 0,23,24
 584 1120 584 1120 698 1120 c 0,25,26
 799 1120 799 1120 893 1087 c 1,27,-1
 851 888 l 1,28,-1
 841 888 l 1,29,30
 811 1026 811 1026 695 1026 c 0,31,32
 633 1026 633 1026 590 998 c 0,33,34
 535 962 535 962 523 899 c 0,35,36
 520 882 520 882 520 867 c 0,37,38
 520 791 520 791 588 737 c 2,39,-1
 731 624 l 2,40,41
 869 515 869 515 869 379 c 0,42,43
 869 343 869 343 859 305 c 0,44,45
 823 165 823 165 688 68 c 0,46,47
 564 -20 564 -20 404 -20 c 0,0,1
EndSplineSet
Validated: 1
EndChar

StartChar: t
Encoding: 116 116 85
Width: 795
GlyphClass: 2
Flags: W
HStem: 0 21G<282 514> 939 161<250.973 514.978 713.665 978.027> 967 105<258.22 516 713 970.657> 1530 20G<737.087 812>
VStem: 282 231<0 120.129>
DStem2: 310.458 0 485.458 0 0.207912 0.978148<46.5285 988.603 1132.27 1527.7>
LayerCount: 2
Fore
SplineSet
282 0 m 1,0,1
 339 139 339 139 372 294 c 2,2,-1
 516 967 l 1,3,-1
 506 967 l 2,4,5
 368 967 368 967 220 939 c 1,6,-1
 254 1100 l 1,7,8
 389 1072 389 1072 528 1072 c 2,9,-1
 538 1072 l 1,10,-1
 567 1208 l 2,11,12
 602 1372 602 1372 602 1504 c 1,13,-1
 841 1550 l 1,14,15
 783 1401 783 1401 753 1259 c 2,16,-1
 713 1072 l 1,17,-1
 723 1072 l 2,18,19
 859 1072 859 1072 1009 1100 c 1,20,-1
 975 939 l 1,21,22
 836 967 836 967 701 967 c 2,23,-1
 691 967 l 1,24,-1
 547 294 l 2,25,26
 515 144 515 144 513 0 c 1,27,-1
 282 0 l 1,0,1
EndSplineSet
Validated: 1
EndChar

StartChar: u
Encoding: 117 117 86
Width: 1341
GlyphClass: 2
Flags: W
HStem: -20 115<541.28 824.772> 0 21G<938 1170>
VStem: 279 181<176.776 580.016> 938 231<0 111.188>
DStem2: 196.185 -20 375.398 -20 0.207912 0.978148<389.199 1128.61> 961.554 -20 1137.04 -20 0.207912 0.978148<246.898 1128.65>
LayerCount: 2
Fore
SplineSet
1169 0 m 1,0,1
 938 0 l 1,2,3
 970 71 970 71 991 137 c 1,4,5
 825 -20 825 -20 613 -20 c 0,6,7
 395 -20 395 -20 308 156 c 0,8,9
 279 214 279 214 279 300 c 0,10,11
 279 370 279 370 298 459 c 2,12,-1
 369 797 l 2,13,14
 401 949 401 949 405 1094 c 1,15,-1
 649 1140 l 1,16,17
 591 993 591 993 560 847 c 2,18,-1
 477 458 l 2,19,20
 460 378 460 378 460 320 c 0,21,22
 460 265 460 265 475 229 c 0,23,24
 530 95 530 95 693 95 c 0,25,26
 852 95 852 95 970 229 c 0,27,28
 1028 295 1028 295 1063 458 c 2,29,-1
 1135 796 l 2,30,31
 1167 946 1167 946 1171 1094 c 1,32,-1
 1410 1140 l 1,33,34
 1353 998 1353 998 1321 847 c 2,35,-1
 1204 295 l 2,36,37
 1171 139 1171 139 1169 0 c 1,0,1
EndSplineSet
Validated: 1
EndChar

StartChar: v
Encoding: 118 118 87
Width: 1183
GlyphClass: 2
Flags: W
HStem: 0 21G<505.5 711.5> 1080 20G<239 488 1191 1412>
VStem: 239 245<996.307 1100>
DStem2: 521 816 330 851 0.237962 -0.971274<-279.559 617.498> 668 216 839 284 0.552776 0.83333<2.90133 1039.58>
LayerCount: 2
Fore
SplineSet
506 0 m 1,0,1
 505 132 505 132 468 284 c 2,2,-1
 330 851 l 2,3,4
 303 962 303 962 239 1100 c 1,5,-1
 484 1100 l 1,6,7
 492 934 492 934 521 816 c 2,8,-1
 668 216 l 1,9,-1
 1066 816 l 2,10,11
 1157 954 1157 954 1225 1100 c 1,12,-1
 1412 1100 l 1,13,14
 1294 970 1294 970 1215 851 c 2,15,-1
 839 284 l 2,16,17
 742 138 742 138 681 0 c 1,18,-1
 506 0 l 1,0,1
EndSplineSet
Validated: 1
EndChar

StartChar: w
Encoding: 119 119 88
Width: 1686
GlyphClass: 2
Flags: W
HStem: 0 21G<388 607.5 1116 1325> 1080 20G<244 477 992 1190 1708.5 1910>
DStem2: 483 809 305 835 0.134668 -0.990891<-167.178 600.209> 564 213 715 291 0.477612 0.878571<2.50199 789.809> 1196 809 1025 862 0.13489 -0.990861<-75.403 599.243> 1277 214 1428 291 0.477092 0.878853<0.0524762 990.93>
LayerCount: 2
Fore
SplineSet
388 0 m 1,0,1
 392 55 392 55 392 109 c 0,2,3
 392 204 392 204 380 291 c 2,4,-1
 305 835 l 2,5,6
 286 973 286 973 244 1100 c 1,7,-1
 477 1100 l 1,8,9
 472 1039 472 1039 472 979 c 0,10,11
 472 890 472 890 483 809 c 2,12,-1
 564 213 l 1,13,-1
 888 809 l 2,14,15
 966 953 966 953 1018 1100 c 1,16,-1
 1190 1100 l 1,17,18
 1185 1039 1185 1039 1185 979 c 0,19,20
 1185 890 1185 890 1196 809 c 2,21,-1
 1277 214 l 1,22,-1
 1600 809 l 2,23,24
 1686 967 1686 967 1731 1100 c 1,25,-1
 1910 1100 l 1,26,27
 1789 959 1789 959 1722 835 c 2,28,-1
 1428 291 l 2,29,30
 1352 150 1352 150 1298 0 c 1,31,-1
 1116 0 l 1,32,33
 1121 57 1121 57 1121 113 c 0,34,35
 1121 202 1121 202 1108 291 c 2,36,-1
 1025 862 l 1,37,-1
 715 291 l 2,38,39
 630 135 630 135 585 0 c 1,40,-1
 388 0 l 1,0,1
EndSplineSet
Validated: 1
EndChar

StartChar: x
Encoding: 120 120 89
Width: 1056
GlyphClass: 2
Flags: W
HStem: 0 21G<22 270 760 1036> 1080 20G<254 532 1021.5 1269>
DStem2: 683 670 389 883 0.430837 -0.90243<-455.882 0 184.742 640.024> 561 519 607 429 0.683295 0.730143<-603.638 -34.2813 436.818 765.046>
LayerCount: 2
Fore
SplineSet
22 0 m 1,0,1
 162 109 162 109 256 205 c 2,2,-1
 561 519 l 1,3,-1
 389 883 l 2,4,5
 340 987 340 987 254 1100 c 1,6,-1
 515 1100 l 1,7,8
 549 955 549 955 605 836 c 2,9,-1
 683 670 l 1,10,-1
 853 844 l 2,11,12
 976 970 976 970 1067 1100 c 1,13,-1
 1269 1100 l 1,14,15
 1141 1003 1141 1003 1036 895 c 2,16,-1
 729 579 l 1,17,-1
 900 217 l 2,18,19
 954 103 954 103 1036 0 c 1,20,-1
 775 0 l 1,21,22
 745 136 745 136 685 263 c 2,23,-1
 607 429 l 1,24,-1
 438 256 l 2,25,26
 315 130 315 130 225 0 c 1,27,-1
 22 0 l 1,0,1
EndSplineSet
Validated: 1
EndChar

StartChar: y
Encoding: 121 121 90
Width: 1341
GlyphClass: 2
Flags: W
HStem: -430 104<382.858 733.899> -20 115<541.565 819.925>
VStem: 256 11<-123.137 -98> 279 181<176.776 580.016>
DStem2: 109.037 -430 288.25 -430 0.207912 0.978148<808.359 1547.77> 874.993 -430 1049.12 -430 0.207912 0.978148<334.377 586.824 664.368 1547.69>
LayerCount: 2
Fore
SplineSet
613 -20 m 0,0,1
 397 -20 397 -20 308 156 c 0,2,3
 279 214 279 214 279 300 c 0,4,5
 279 370 279 370 298 459 c 2,6,-1
 369 797 l 2,7,8
 401 949 401 949 405 1094 c 1,9,-1
 649 1140 l 1,10,11
 591 994 591 994 560 847 c 2,12,-1
 477 458 l 2,13,14
 460 378 460 378 460 320 c 0,15,16
 460 265 460 265 475 229 c 0,17,18
 530 95 530 95 693 95 c 0,19,20
 852 95 852 95 970 229 c 0,21,22
 1028 295 1028 295 1063 458 c 2,23,-1
 1135 796 l 2,24,25
 1167 946 1167 946 1171 1094 c 1,26,-1
 1410 1140 l 1,27,28
 1352 993 1352 993 1321 849 c 2,29,-1
 1169 134 l 2,30,31
 1116 -114 1116 -114 966 -257 c 0,32,33
 784 -430 784 -430 553 -430 c 0,34,35
 358 -430 358 -430 201 -357 c 1,36,-1
 256 -98 l 1,37,-1
 267 -98 l 1,38,39
 277 -180 277 -180 332 -242 c 0,40,41
 408 -326 408 -326 571 -326 c 0,42,43
 717 -326 717 -326 826 -210 c 0,44,45
 884 -149 884 -149 926 -68 c 0,46,47
 962 3 962 3 990 115 c 2,48,-1
 997 144 l 1,49,50
 823 -20 823 -20 613 -20 c 0,0,1
EndSplineSet
Validated: 1
EndChar

StartChar: z
Encoding: 122 122 91
Width: 1086
GlyphClass: 2
Flags: W
HStem: 0 104<324 1006> 996 104<426 969>
DStem2: 329 338 324 104 0.697234 0.716844<-167.864 915.239>
LayerCount: 2
Fore
SplineSet
98 0 m 1,0,-1
 85 117 l 1,1,2
 202 208 202 208 329 338 c 2,3,-1
 969 996 l 1,4,-1
 695 996 l 2,5,6
 548 996 548 996 398 968 c 1,7,-1
 426 1100 l 1,8,-1
 1200 1100 l 1,9,-1
 1209 984 l 1,10,11
 1091 893 1091 893 964 762 c 2,12,-1
 324 104 l 1,13,-1
 737 104 l 2,14,15
 888 104 888 104 1034 132 c 1,16,-1
 1006 0 l 1,17,-1
 98 0 l 1,0,-1
EndSplineSet
Validated: 1
EndChar

StartChar: braceleft
Encoding: 123 123 92
Width: 855
GlyphClass: 2
Flags: W
HStem: -246 10<647.187 653>
VStem: 334 194<-157.436 222.375> 436 194<293.625 672.923>
DStem2: 277.257 -246 472.257 -246 0.207912 0.978148<270.597 800.512 1191.41 1919.38>
LayerCount: 2
Fore
SplineSet
1079 1760 m 1,0,-1
 1077 1750 l 1,1,2
 879 1667 879 1667 832 1446 c 2,3,-1
 752 1066 l 2,4,5
 694 792 694 792 400 757 c 1,6,7
 630 728 630 728 630 536 c 0,8,9
 630 495 630 495 620 448 c 2,10,-1
 539 68 l 2,11,12
 528 19 528 19 528 -24 c 0,13,14
 528 -172 528 -172 655 -236 c 1,15,-1
 653 -246 l 1,16,17
 334 -246 334 -246 334 -19 c 0,18,19
 334 21 334 21 344 68 c 2,20,-1
 425 448 l 2,21,22
 436 497 436 497 436 540 c 0,23,24
 436 687 436 687 310 752 c 1,25,-1
 312 762 l 1,26,27
 510 846 510 846 557 1066 c 2,28,-1
 637 1446 l 2,29,30
 704 1760 704 1760 1079 1760 c 1,0,-1
EndSplineSet
Validated: 1
EndChar

StartChar: bar
Encoding: 124 124 93
Width: 660
GlyphClass: 2
Flags: W
VStem: 182 220<-180 -62.8125> 579 220<1572.81 1690>
DStem2: 211.286 -180 371.286 -180 0.207912 0.978148<44.2512 1900.99>
LayerCount: 2
Fore
SplineSet
182 -180 m 1,0,1
 244 -30 244 -30 276 120 c 2,2,-1
 545 1390 l 2,3,4
 577 1540 577 1540 579 1690 c 1,5,-1
 799 1690 l 1,6,7
 737 1540 737 1540 705 1390 c 2,8,-1
 436 120 l 2,9,10
 404 -30 404 -30 402 -180 c 1,11,-1
 182 -180 l 1,0,1
EndSplineSet
Validated: 1
EndChar

StartChar: braceright
Encoding: 125 125 94
Width: 855
GlyphClass: 2
Flags: W
HStem: 1750 10<524 529.752>
VStem: 547 194<841.077 1226.31> 648 194<1386.14 1671.04>
DStem2: 277.257 -246 472.257 -246 0.207912 0.978148<172.12 898.662 1291.07 1820.81>
LayerCount: 2
Fore
SplineSet
524 1760 m 1,0,1
 842 1760 842 1760 842 1534 c 0,2,3
 842 1494 842 1494 832 1446 c 2,4,-1
 752 1066 l 2,5,6
 741 1017 741 1017 741 974 c 0,7,8
 741 827 741 827 867 762 c 1,9,-1
 865 752 l 1,10,11
 667 668 667 668 620 448 c 2,12,-1
 539 68 l 2,13,14
 472 -246 472 -246 98 -246 c 1,15,-1
 100 -236 l 1,16,17
 298 -153 298 -153 344 68 c 2,18,-1
 425 448 l 2,19,20
 483 722 483 722 777 757 c 1,21,22
 547 786 547 786 547 978 c 0,23,24
 547 1019 547 1019 557 1066 c 2,25,-1
 637 1446 l 2,26,27
 648 1496 648 1496 648 1538 c 0,28,29
 648 1685 648 1685 522 1750 c 1,30,-1
 524 1760 l 1,0,1
EndSplineSet
Validated: 1
EndChar

StartChar: asciitilde
Encoding: 126 126 95
Width: 1106
GlyphClass: 2
Flags: W
HStem: 551 168<826.527 1032.12> 759 168<387.261 593.473>
VStem: 267 10<551 557.449> 1143 10<920.551 927>
DStem2: 732 851 594 715 0.730021 -0.683424<-106.825 227.791>
LayerCount: 2
Fore
SplineSet
332 858 m 1,0,1
 434 927 434 927 545 927 c 0,2,3
 650 927 650 927 732 851 c 2,4,-1
 826 763 l 2,5,6
 873 719 873 719 922 719 c 272,7,8
 1053 719 1053 719 1143 927 c 1,9,-1
 1153 927 l 1,10,-1
 1088 620 l 1,11,12
 991 551 991 551 875 551 c 0,13,14
 770 551 770 551 688 627 c 2,15,-1
 594 715 l 2,16,17
 547 759 547 759 498 759 c 272,18,19
 367 759 367 759 277 551 c 1,20,-1
 267 551 l 1,21,-1
 332 858 l 1,0,1
EndSplineSet
Validated: 1
EndChar

StartChar: exclamdown
Encoding: 161 161 97
Width: 692
GlyphClass: 2
Flags: W
HStem: -410 21G<113 405> 856 264<477.308 634.836>
VStem: 420 172<578 750> 423 267<910.383 1065.82>
DStem2: 153.233 -410 365.233 -410 0.207912 0.978148<99.9172 1190.12>
LayerCount: 2
Fore
SplineSet
405 -410 m 1,0,-1
 113 -410 l 1,1,2
 183 -256 183 -256 217 -110 c 2,3,-1
 420 750 l 25,4,-1
 592 750 l 25,5,-1
 429 -110 l 2,6,7
 404 -242 404 -242 404 -365 c 0,8,9
 404 -383 404 -383 405 -410 c 1,0,-1
584 1120 m 0,10,11
 638 1120 638 1120 668 1082 c 0,12,13
 690 1054 690 1054 690 1017 c 0,14,15
 690 1005 690 1005 686 988 c 0,16,17
 673 932 673 932 628 894 c 128,-1,18
 583 856 583 856 528 856 c 0,19,20
 472 856 472 856 444 894 c 0,21,22
 423 922 423 922 423 958 c 0,23,24
 423 976 423 976 426 988 c 0,25,26
 440 1044 440 1044 484 1082 c 0,27,28
 529 1120 529 1120 584 1120 c 0,10,11
EndSplineSet
Validated: 1
EndChar

StartChar: cent
Encoding: 162 162 98
Width: 1198
GlyphClass: 2
Flags: W
HStem: -15 107<535.123 619 740 931.34> 1016 104<724.46 836 960 1091.55>
VStem: 202 208<227.024 648.825> 584 100<-180 -80> 894 100<1180 1280>
DStem2: 584 -180 684 -180 0.207912 0.978148<20.7912 168.671 290.665 1214.43 1349.77 1492.55>
LayerCount: 2
Fore
SplineSet
619 -15 m 1,0,1
 417 7 417 7 309 132 c 0,2,3
 202 257 202 257 202 424 c 0,4,5
 202 485 202 485 216 551 c 0,6,7
 270 804 270 804 485 972 c 0,8,9
 642 1095 642 1095 859 1116 c 1,10,-1
 894 1280 l 1,11,-1
 994 1280 l 1,12,-1
 960 1120 l 1,13,14
 1157 1118 1157 1118 1299 1018 c 1,15,-1
 1247 772 l 1,16,-1
 1237 771 l 1,17,18
 1154 1012 1154 1012 938 1016 c 1,19,-1
 740 84 l 1,20,21
 955 88 955 88 1158 329 c 1,22,-1
 1168 328 l 1,23,-1
 1124 122 l 1,24,25
 929 -17 929 -17 718 -20 c 1,26,-1
 684 -180 l 1,27,-1
 584 -180 l 1,28,-1
 619 -15 l 1,0,1
642 92 m 1,29,-1
 836 1008 l 1,30,31
 696 983 696 983 593 878 c 0,32,33
 471 755 471 755 427 550 c 0,34,35
 410 471 410 471 410 404 c 0,36,37
 410 298 410 298 453 222 c 0,38,39
 513 117 513 117 642 92 c 1,29,-1
EndSplineSet
Validated: 1
EndChar

StartChar: sterling
Encoding: 163 163 99
Width: 967
GlyphClass: 2
Flags: W
HStem: 0 124<430 867> 786 105<247.094 367 584 841.657> 1415 115<777.327 1036.9>
VStem: 1078 10<1260 1283.27>
DStem2: 199.931 0 394.931 0 0.207912 0.978148<173.162 803.56 951.382 1361.74>
LayerCount: 2
Fore
SplineSet
172 0 m 1,0,1
 231 148 231 148 262 294 c 2,2,-1
 367 786 l 1,3,-1
 357 786 l 2,4,5
 290 786 290 786 212 760 c 1,6,-1
 245 917 l 1,7,8
 312 891 312 891 379 891 c 2,9,-1
 389 891 l 1,10,-1
 426 1064 l 2,11,12
 475 1295 475 1295 595 1404 c 0,13,14
 734 1530 734 1530 963 1530 c 0,15,16
 1067 1530 1067 1530 1141 1511 c 1,17,-1
 1088 1260 l 1,18,-1
 1078 1260 l 1,19,20
 1065 1415 1065 1415 921 1415 c 0,21,22
 806 1415 806 1415 728 1328 c 0,23,24
 661 1252 661 1252 621 1065 c 2,25,-1
 584 891 l 1,26,-1
 594 891 l 2,27,28
 730 891 730 891 880 919 c 1,29,-1
 846 758 l 1,30,31
 707 786 707 786 572 786 c 2,32,-1
 562 786 l 1,33,-1
 457 294 l 2,34,35
 439 209 439 209 430 124 c 1,36,-1
 593 124 l 2,37,38
 735 124 735 124 900 154 c 1,39,-1
 867 0 l 1,40,-1
 172 0 l 1,0,1
EndSplineSet
Validated: 1
EndChar

StartChar: currency
Encoding: 164 164 100
Width: 1594
GlyphClass: 2
Flags: W
HStem: 191 103<711.148 1046.38> 1228 103<891.938 1224.48>
VStem: 390 205<427.81 857.158> 1342 206<666.82 1092.25>
DStem2: 194 209 283 96 0.769494 0.638654<0 326.281 1572.71 1861.18> 562 1401 424 1287 0.613482 -0.789709<5.36631 244.196 1261.13 1509.42>
LayerCount: 2
Fore
SplineSet
869 294 m 0,0,1
 1036 294 1036 294 1169 434 c 0,2,3
 1276 549 1276 549 1322 761 c 0,4,5
 1342 852 1342 852 1342 926 c 0,6,7
 1342 1023 1342 1023 1308 1088 c 0,8,9
 1235 1228 1235 1228 1068 1228 c 0,10,11
 902 1228 902 1228 768 1088 c 0,12,13
 660 975 660 975 614 761 c 0,14,15
 595 671 595 671 595 595 c 0,16,17
 595 498 595 498 629 434 c 0,18,19
 703 294 703 294 869 294 c 0,0,1
562 1401 m 1,20,-1
 710 1211 l 1,21,22
 885 1331 885 1331 1090 1331 c 0,23,24
 1289 1331 1289 1331 1409 1219 c 1,25,-1
 1628 1401 l 1,26,-1
 1718 1287 l 1,27,-1
 1498 1104 l 1,28,29
 1548 1010 1548 1010 1548 894 c 0,30,31
 1548 831 1548 831 1533 761 c 0,32,33
 1489 553 1489 553 1338 403 c 1,34,-1
 1488 209 l 1,35,-1
 1351 96 l 1,36,-1
 1199 292 l 1,37,38
 1037 191 1037 191 848 191 c 0,39,40
 651 191 651 191 530 301 c 1,41,-1
 283 96 l 1,42,-1
 194 209 l 1,43,-1
 441 414 l 1,44,45
 390 509 390 509 390 626 c 0,46,47
 390 690 390 690 405 761 c 0,48,49
 445 951 445 951 574 1093 c 1,50,-1
 424 1287 l 1,51,-1
 562 1401 l 1,20,-1
EndSplineSet
Validated: 1
EndChar

StartChar: yen
Encoding: 165 165 101
Width: 1323
GlyphClass: 2
Flags: W
HStem: 0 21G<530 791> 384 164<358.028 645.631 870.655 1162.97> 414 104<365.501 648 870 1155.47> 652 164<415.028 632.532 1025.5 1219.97> 1490 20G<321 596 1382 1644>
VStem: 530 260<0 116.235>
DStem2: 824 786 450 1268 0.361947 -0.932199<-756.754 -69.9105> 560.002 0 760.002 0 0.207912 0.978148<52.3588 423.249 571.133 651.148> 870 786 1022 788 0.630455 0.776225<97.3817 902.4>
LayerCount: 2
Fore
SplineSet
530 0 m 1,0,1
 593 152 593 152 624 300 c 2,2,-1
 648 414 l 1,3,-1
 633 414 l 2,4,5
 483 414 483 414 327 384 c 1,6,-1
 361 548 l 1,7,8
 505 518 505 518 655 518 c 2,9,-1
 670 518 l 1,10,-1
 695 637 l 1,11,-1
 678 682 l 1,12,13
 534 681 534 681 384 652 c 1,14,-1
 418 816 l 1,15,16
 525 794 525 794 636 788 c 1,17,-1
 450 1268 l 2,18,19
 397 1404 397 1404 321 1510 c 1,20,-1
 587 1510 l 1,21,22
 605 1382 605 1382 658 1237 c 2,23,-1
 824 786 l 1,24,-1
 870 786 l 1,25,-1
 1230 1237 l 2,26,27
 1347 1384 1347 1384 1417 1510 c 1,28,-1
 1644 1510 l 1,29,30
 1523 1403 1523 1403 1413 1268 c 2,31,-1
 1022 788 l 1,32,33
 1134 794 1134 794 1251 816 c 1,34,-1
 1217 652 l 1,35,36
 1079 681 1079 681 937 682 c 1,37,-1
 894 629 l 1,38,-1
 870 518 l 1,39,-1
 888 518 l 2,40,41
 1036 518 1036 518 1194 548 c 1,42,-1
 1160 384 l 1,43,44
 1015 414 1015 414 866 414 c 2,45,-1
 848 414 l 1,46,-1
 824 300 l 2,47,48
 792 148 792 148 790 0 c 1,49,-1
 530 0 l 1,0,1
EndSplineSet
Validated: 1
EndChar

StartChar: brokenbar
Encoding: 166 166 102
Width: 660
GlyphClass: 2
Flags: W
VStem: 182 220<-181 -63.8125> 358 220<529.812 647> 403 220<862 979.188> 579 220<1572.81 1690>
DStem2: 211.77 -181 371.77 -181 0.207912 0.978148<44.1442 835.71 1110.31 1901.87>
LayerCount: 2
Fore
SplineSet
182 -181 m 1,0,1
 244 -31 244 -31 275 119 c 2,2,-1
 324 347 l 2,3,4
 356 497 356 497 358 647 c 1,5,-1
 578 647 l 1,6,7
 516 497 516 497 484 347 c 2,8,-1
 435 119 l 2,9,10
 403 -31 403 -31 402 -181 c 1,11,-1
 182 -181 l 1,0,1
579 1690 m 1,12,-1
 799 1690 l 1,13,14
 737 1540 737 1540 705 1390 c 2,15,-1
 657 1162 l 2,16,17
 625 1012 625 1012 623 862 c 1,18,-1
 403 862 l 1,19,20
 465 1012 465 1012 497 1162 c 2,21,-1
 545 1390 l 2,22,23
 577 1540 577 1540 579 1690 c 1,12,-1
EndSplineSet
Validated: 1
EndChar

StartChar: section
Encoding: 167 167 103
Width: 987
GlyphClass: 2
Flags: W
HStem: -20 94<380.23 608.988> 1436 94<699.012 927.77>
VStem: 309 186<651.089 882.681> 327 10<195.289 212> 471 179<1169.31 1378.22> 658 179<131.779 340.688> 813 186<627.319 858.911> 971 10<1298 1314.71>
DStem2: 688 528 447 476 0.784602 -0.62<-275.868 142.042> 861 1034 620 982 0.784602 -0.62<-298.891 119.019>
LayerCount: 2
Fore
SplineSet
480 -20 m 0,0,1
 379 -20 379 -20 285 13 c 1,2,-1
 327 212 l 1,3,-1
 337 212 l 1,4,5
 367 74 367 74 483 74 c 0,6,7
 545 74 545 74 588 102 c 0,8,9
 643 138 643 138 655 201 c 0,10,11
 658 218 658 218 658 233 c 0,12,13
 658 309 658 309 590 363 c 2,14,-1
 447 476 l 2,15,16
 309 585 309 585 309 721 c 0,17,18
 309 757 309 757 319 795 c 0,19,20
 355 935 355 935 490 1032 c 1,21,-1
 572 939 l 1,22,23
 513 883 513 883 498 802 c 0,24,25
 495 783 495 783 495 765 c 0,26,27
 495 683 495 683 567 625 c 2,28,-1
 688 528 l 2,29,30
 837 408 837 408 837 275 c 0,31,32
 837 246 837 246 830 216 c 0,33,34
 803 103 803 103 687 36 c 0,35,36
 594 -20 594 -20 480 -20 c 0,0,1
828 1530 m 0,37,38
 929 1530 929 1530 1023 1497 c 1,39,-1
 981 1298 l 1,40,-1
 971 1298 l 1,41,42
 941 1436 941 1436 825 1436 c 0,43,44
 763 1436 763 1436 720 1408 c 0,45,46
 665 1372 665 1372 653 1309 c 0,47,48
 650 1292 650 1292 650 1277 c 0,49,50
 650 1201 650 1201 718 1147 c 2,51,-1
 861 1034 l 2,52,53
 999 925 999 925 999 789 c 0,54,55
 999 753 999 753 989 715 c 0,56,57
 953 575 953 575 818 478 c 1,58,-1
 736 571 l 1,59,60
 795 627 795 627 810 708 c 0,61,62
 813 727 813 727 813 745 c 0,63,64
 813 827 813 827 741 885 c 2,65,-1
 620 982 l 2,66,67
 471 1102 471 1102 471 1235 c 0,68,69
 471 1264 471 1264 478 1294 c 0,70,71
 505 1407 505 1407 621 1474 c 0,72,73
 714 1530 714 1530 828 1530 c 0,37,38
EndSplineSet
Validated: 1
EndChar

StartChar: dieresis
Encoding: 168 168 104
Width: 654
GlyphClass: 2
Flags: W
HStem: 1292 238<391.568 542.432 711.927 862.597>
VStem: 347 240<1336.51 1485.49> 667 240<1336.51 1485.49>
LayerCount: 2
Fore
SplineSet
813 1530 m 128,-1,1
 861 1530 861 1530 888 1496 c 0,2,3
 907 1471 907 1471 907 1439 c 0,4,5
 907 1426 907 1426 904 1411 c 0,6,7
 893 1361 893 1361 852 1326.5 c 128,-1,8
 811 1292 811 1292 763 1292 c 128,-1,9
 715 1292 715 1292 687 1326 c 0,10,11
 667 1351 667 1351 667 1384 c 0,12,13
 667 1397 667 1397 670 1411 c 0,14,15
 681 1461 681 1461 723 1495.5 c 128,-1,0
 765 1530 765 1530 813 1530 c 128,-1,1
492 1530 m 128,-1,17
 541 1530 541 1530 568 1496 c 0,18,19
 587 1471 587 1471 587 1439 c 0,20,21
 587 1426 587 1426 584 1411 c 0,22,23
 573 1361 573 1361 532 1326.5 c 128,-1,24
 491 1292 491 1292 442 1292 c 128,-1,25
 393 1292 393 1292 366 1326 c 0,26,27
 347 1351 347 1351 347 1383 c 0,28,29
 347 1396 347 1396 350 1411 c 0,30,31
 361 1461 361 1461 402 1495.5 c 128,-1,16
 443 1530 443 1530 492 1530 c 128,-1,17
EndSplineSet
Validated: 1
EndChar

StartChar: copyright
Encoding: 169 169 105
Width: 1418
GlyphClass: 2
Flags: W
HStem: 386 77<624.878 999.312> 548 101<725.771 993.56> 1112 21G<1151 1195.25> 1258 103<835.768 1093.99> 1453 77<825.688 1200.37>
VStem: 343 82<659.426 1055.31> 503 151<725.678 1054.1> 1400 82<860.688 1256.57>
LayerCount: 2
Fore
SplineSet
1018 1530 m 0,0,1
 1260 1530 1260 1530 1387 1368 c 0,2,3
 1482 1247 1482 1247 1482 1097 c 0,4,5
 1482 1019 1482 1019 1473 964 c 0,6,7
 1433 718 1433 718 1234 553 c 0,8,9
 1032 386 1032 386 807 386 c 0,10,11
 565 386 565 386 438 548 c 0,12,13
 343 669 343 669 343 819 c 0,14,15
 343 897 343 897 352 952 c 0,16,17
 392 1199 392 1199 591 1363 c 0,18,19
 793 1530 793 1530 1018 1530 c 0,0,1
1017 1453 m 0,20,21
 827 1453 827 1453 655 1312 c 0,22,23
 477 1166 477 1166 436 953 c 0,24,25
 425 896 425 896 425 849 c 0,26,27
 425 701 425 701 501 602 c 0,28,29
 608 463 608 463 808 463 c 0,30,31
 998 463 998 463 1170 604 c 0,32,33
 1348 750 1348 750 1389 963 c 0,34,35
 1400 1020 1400 1020 1400 1067 c 0,36,37
 1400 1213 1400 1213 1324 1314 c 0,38,39
 1218 1453 1218 1453 1017 1453 c 0,20,21
1164 802 m 1,40,-1
 1137 672 l 1,41,42
 989 548 989 548 824 548 c 0,43,44
 657 548 657 548 568 666 c 0,45,46
 503 753 503 753 503 864 c 0,47,48
 503 907 503 907 513 954 c 0,49,50
 549 1122 549 1122 690 1241 c 0,51,52
 833 1361 833 1361 996 1361 c 0,53,54
 1133 1361 1133 1361 1225 1272 c 1,55,-1
 1191 1112 l 1,56,-1
 1154 1112 l 1,57,58
 1148 1135 1148 1135 1133 1163 c 0,59,60
 1082 1258 1082 1258 974 1258 c 128,-1,61
 866 1258 866 1258 775 1163 c 0,62,63
 687 1070 687 1070 663 953 c 0,64,65
 654 912 654 912 654 875 c 0,66,67
 654 803 654 803 686 744 c 0,68,69
 739 649 739 649 845 649 c 0,70,71
 981 649 981 649 1128 802 c 1,72,-1
 1164 802 l 1,40,-1
EndSplineSet
Validated: 1
EndChar

StartChar: ordfeminine
Encoding: 170 170 106
Width: 700
GlyphClass: 2
Flags: W
HStem: 683 154<224.928 497.311 506.624 517.314 526.627 798.072> 713 94<232.501 790.468> 941 73<477.339 633.6> 1276 71<517.318 670.368> 1453 77<518.915 714.261>
VStem: 322 138<1039.42 1227.93> 690 96<1061.57 1235.16> 726 124<1316.89 1443.83>
LayerCount: 2
Fore
SplineSet
686 1145 m 0,0,1
 690 1161 690 1161 690 1177 c 0,2,3
 690 1209 690 1209 674 1236 c 0,4,5
 651 1276 651 1276 601.5 1276 c 128,-1,6
 552 1276 552 1276 512 1236 c 24,7,8
 475 1200 475 1200 464 1146 c 0,9,10
 460 1129 460 1129 460 1113 c 0,11,12
 460 1080 460 1080 475 1054 c 0,13,14
 497 1014 497 1014 546.5 1014 c 128,-1,15
 596 1014 596 1014 639 1055 c 0,16,17
 674 1089 674 1089 686 1145 c 0,0,1
675 1530 m 0,18,19
 794 1530 794 1530 838 1438 c 0,20,21
 850 1412 850 1412 850 1371 c 0,22,23
 850 1333 850 1333 840 1282 c 2,24,-1
 804 1108 l 2,25,26
 789 1035 789 1035 786 951 c 1,27,-1
 628 951 l 1,28,-1
 636 967 l 1,29,30
 579 941 579 941 497.5 941 c 128,-1,31
 416 941 416 941 362 997 c 0,32,33
 322 1040 322 1040 322 1100 c 0,34,35
 322 1122 322 1122 327 1146 c 0,36,37
 347 1241 347 1241 426 1293 c 0,38,39
 507 1347 507 1347 589.5 1347 c 128,-1,40
 672 1347 672 1347 721 1316 c 1,41,42
 726 1342 726 1342 726 1363 c 0,43,44
 726 1380 726 1380 723 1394 c 0,45,46
 710 1453 710 1453 627 1453 c 0,47,48
 555 1453 555 1453 495 1396 c 0,49,50
 462 1365 462 1365 446 1344 c 1,51,-1
 436 1344 l 1,52,-1
 464 1475 l 1,53,54
 561 1530 561 1530 675 1530 c 0,18,19
228 837 m 1,55,56
 372 807 372 807 522 807 c 0,57,58
 670 807 670 807 828 837 c 1,59,-1
 795 683 l 1,60,61
 650 713 650 713 502 713 c 0,62,63
 352 713 352 713 195 683 c 1,64,-1
 228 837 l 1,55,56
EndSplineSet
Validated: 1
EndChar

StartChar: guillemotleft
Encoding: 171 171 107
Width: 1310
GlyphClass: 2
Flags: W
DStem2: 443 747 259 747 0.456869 -0.889534<0 478.587> 259 747 443 747 0.684436 0.729073<125.936 680.59> 858 747 674 747 0.456869 -0.889534<0 478.587> 674 747 858 747 0.684436 0.729073<125.936 680.59>
LayerCount: 2
Fore
SplineSet
1119 1270 m 1,0,-1
 1380 1270 l 1,1,2
 1238 1151 1238 1151 1134 1041 c 2,3,-1
 858 747 l 1,4,-1
 1009 453 l 2,5,6
 1064 346 1064 346 1158 224 c 1,7,-1
 897 224 l 1,8,9
 865 368 865 368 805 487 c 2,10,-1
 674 747 l 1,11,-1
 915 1007 l 2,12,13
 1025 1126 1025 1126 1119 1270 c 1,0,-1
704 1270 m 1,14,-1
 965 1270 l 1,15,16
 823 1151 823 1151 719 1041 c 2,17,-1
 443 747 l 1,18,-1
 594 453 l 2,19,20
 649 346 649 346 743 224 c 1,21,-1
 482 224 l 1,22,23
 450 368 450 368 390 487 c 2,24,-1
 259 747 l 1,25,-1
 500 1007 l 2,26,27
 610 1126 610 1126 704 1270 c 1,14,-1
EndSplineSet
Validated: 1
EndChar

StartChar: logicalnot
Encoding: 172 172 108
Width: 1133
GlyphClass: 2
Flags: W
HStem: 668 154<335.501 998.947>
VStem: 907 154<368 435.365>
LayerCount: 2
Fore
SplineSet
331 852 m 1,0,1
 475 822 475 822 625 822 c 2,2,-1
 858 822 l 2,3,4
 1006 822 1006 822 1164 852 c 1,5,-1
 1061 368 l 1,6,-1
 907 368 l 1,7,8
 967 510 967 510 1001 668 c 9,9,-1
 592 668 l 2,10,11
 442 668 442 668 286 638 c 1,12,-1
 331 852 l 1,0,1
EndSplineSet
Validated: 1
EndChar

StartChar: uni00AD
Encoding: 173 173 109
Width: 1133
GlyphClass: 2
Flags: W
HStem: 638 214<327.985 1122.01> 668 154<335.501 1114.47>
LayerCount: 2
Fore
SplineSet
331 852 m 1,0,1
 475 822 475 822 625 822 c 2,2,-1
 858 822 l 2,3,4
 1006 822 1006 822 1164 852 c 1,5,-1
 1119 638 l 1,6,7
 974 668 974 668 825 668 c 2,8,-1
 592 668 l 2,9,10
 442 668 442 668 286 638 c 1,11,-1
 331 852 l 1,0,1
EndSplineSet
Validated: 1
EndChar

StartChar: registered
Encoding: 174 174 110
Width: 1418
GlyphClass: 2
Flags: W
HStem: 386 77<624.878 999.856> 870 102<844 886.963> 1258 102<895.167 1040.05> 1453 77<825.688 1200.37>
VStem: 343 82<659.426 1055.31> 598 179<565 690.132> 1060 149<1031.18 1226.27> 1400 82<860.251 1256.57>
DStem2: 578.818 386 718.818 386 0.207912 0.978148<219.223 523.984 628.329 920.074> 1035 907 887 871 0.414868 -0.909881<-5.29393 295.394>
LayerCount: 2
Fore
SplineSet
844 972 m 1,0,-1
 884 972 l 2,1,2
 949 972 949 972 1000 1015 c 0,3,4
 1041 1050 1041 1050 1055 1115 c 0,5,6
 1060 1137 1060 1137 1060 1156 c 0,7,8
 1060 1192 1060 1192 1042 1215 c 0,9,10
 1009 1258 1009 1258 944 1258 c 2,11,-1
 907 1258 l 1,12,13
 897 1224 897 1224 890 1190 c 2,14,-1
 844 972 l 1,0,-1
1017 1453 m 0,15,16
 827 1453 827 1453 655 1312 c 0,17,18
 477 1166 477 1166 436 953 c 0,19,20
 425 896 425 896 425 849 c 0,21,22
 425 701 425 701 501 602 c 0,23,24
 608 463 608 463 808 463 c 0,25,26
 970 463 970 463 1118 565 c 1,27,-1
 1003 565 l 1,28,29
 989 647 989 647 961 708 c 2,30,-1
 887 871 l 2,31,32
 886 870 886 870 862 870 c 2,33,-1
 822 870 l 1,34,-1
 793 735 l 2,35,36
 777 661 777 661 777 565 c 1,37,-1
 598 565 l 1,38,39
 632 636 632 636 653 735 c 2,40,-1
 750 1190 l 2,41,42
 768 1274 768 1274 768 1336 c 0,43,44
 768 1348 768 1348 767 1360 c 1,45,-1
 966 1360 l 2,46,47
 1102 1360 1102 1360 1162 1294 c 0,48,49
 1209 1243 1209 1243 1209 1165 c 0,50,51
 1209 1141 1209 1141 1205 1115 c 0,52,53
 1188 1015 1188 1015 1084 938 c 0,54,55
 1054 916 1054 916 1035 907 c 1,56,-1
 1123 714 l 2,57,58
 1138 680 1138 680 1181 613 c 1,59,60
 1350 757 1350 757 1389 963 c 0,61,62
 1400 1020 1400 1020 1400 1067 c 0,63,64
 1400 1213 1400 1213 1324 1314 c 0,65,66
 1218 1453 1218 1453 1017 1453 c 0,15,16
1018 1530 m 0,67,68
 1260 1530 1260 1530 1387 1368 c 0,69,70
 1482 1247 1482 1247 1482 1097 c 0,71,72
 1482 1019 1482 1019 1473 964 c 0,73,74
 1433 718 1433 718 1234 553 c 0,75,76
 1032 386 1032 386 807 386 c 0,77,78
 565 386 565 386 438 548 c 0,79,80
 343 669 343 669 343 819 c 0,81,82
 343 897 343 897 352 952 c 0,83,84
 392 1199 392 1199 591 1363 c 0,85,86
 793 1530 793 1530 1018 1530 c 0,67,68
EndSplineSet
Validated: 1
EndChar

StartChar: macron
Encoding: 175 175 111
Width: 640
GlyphClass: 2
Flags: W
HStem: 1278 174<355.952 594.241 601.725 618.275 625.698 865.048> 1308 114<363.494 857.475>
VStem: 322 577
LayerCount: 2
Fore
SplineSet
359 1452 m 1,0,1
 503 1422 503 1422 622 1422 c 0,2,3
 740 1422 740 1422 899 1452 c 1,4,-1
 862 1278 l 1,5,6
 717 1308 717 1308 598 1308 c 0,7,8
 478 1308 478 1308 322 1278 c 1,9,-1
 359 1452 l 1,0,1
EndSplineSet
Validated: 1
EndChar

StartChar: degree
Encoding: 176 176 112
Width: 696
GlyphClass: 2
Flags: W
HStem: 944 90<473.782 682.552> 1439 91<539.448 748.097>
VStem: 306 133<1068.01 1330.67> 783 133<1142.96 1405.25>
LayerCount: 2
Fore
SplineSet
673 1530 m 0,0,1
 796 1530 796 1530 861 1449 c 0,2,3
 916 1383 916 1383 916 1299 c 0,4,5
 916 1269 916 1269 909 1237 c 0,6,7
 882 1108 882 1108 774 1022 c 0,8,9
 676 944 676 944 549 944 c 0,10,11
 426 944 426 944 361 1025 c 0,12,13
 306 1091 306 1091 306 1175 c 0,14,15
 306 1205 306 1205 313 1237 c 0,16,17
 341 1367 341 1367 448 1452 c 0,18,19
 546 1530 546 1530 673 1530 c 0,0,1
654 1439 m 0,20,21
 584 1439 584 1439 522 1379 c 0,22,23
 464 1323 464 1323 446 1237 c 0,24,25
 439 1206 439 1206 439 1179 c 0,26,27
 439 1129 439 1129 462 1094 c 0,28,29
 499 1034 499 1034 568 1034 c 0,30,31
 638 1034 638 1034 700 1094 c 0,32,33
 758 1151 758 1151 776 1237 c 0,34,35
 783 1268 783 1268 783 1295 c 0,36,37
 783 1344 783 1344 760 1379 c 0,38,39
 722 1439 722 1439 654 1439 c 0,20,21
EndSplineSet
Validated: 1
EndChar

StartChar: plusminus
Encoding: 177 177 113
Width: 1133
GlyphClass: 2
Flags: W
HStem: 210 214<236.985 1031.01> 240 154<244.501 1023.47> 774 214<356.985 660.375 848.609 1151.01> 804 154<364.501 661 848 1143.47>
VStem: 559 214<464 581.188> 736 214<1179.86 1298>
DStem2: 534.244 210 688.244 210 0.207912 0.978148<302.683 607.374 796.888 1101.51>
LayerCount: 2
Fore
SplineSet
240 424 m 1,0,1
 384 394 384 394 534 394 c 2,2,-1
 767 394 l 2,3,4
 915 394 915 394 1073 424 c 1,5,-1
 1028 210 l 1,6,7
 883 240 883 240 734 240 c 2,8,-1
 501 240 l 2,9,10
 351 240 351 240 195 210 c 1,11,-1
 240 424 l 1,0,1
736 1298 m 1,12,-1
 950 1298 l 1,13,14
 888 1146 888 1146 856 998 c 2,15,-1
 848 958 l 1,16,-1
 887 958 l 2,17,18
 1035 958 1035 958 1193 988 c 1,19,-1
 1148 774 l 1,20,21
 1003 804 1003 804 854 804 c 2,22,-1
 815 804 l 1,23,-1
 806 764 l 2,24,25
 774 614 774 614 773 464 c 1,26,-1
 559 464 l 1,27,28
 621 614 621 614 652 764 c 2,29,-1
 661 804 l 1,30,-1
 621 804 l 2,31,32
 471 804 471 804 315 774 c 1,33,-1
 360 988 l 1,34,35
 504 958 504 958 654 958 c 2,36,-1
 694 958 l 1,37,-1
 702 998 l 2,38,39
 734 1146 734 1146 736 1298 c 1,12,-1
EndSplineSet
Validated: 1
EndChar

StartChar: uni00B2
Encoding: 178 178 114
Width: 633
GlyphClass: 2
Flags: W
HStem: 853 117<411 764> 1536 102<487.246 705.801>
VStem: 389 10<1394 1398.4> 724 158<1315.19 1492.22>
LayerCount: 2
Fore
SplineSet
668 1638 m 0,0,1
 767 1638 767 1638 827 1576 c 0,2,3
 882 1519 882 1519 882 1445 c 0,4,5
 882 1422 882 1422 877 1398 c 0,6,7
 845 1246 845 1246 618 1128 c 0,8,9
 468 1050 468 1050 411 970 c 1,10,-1
 619 970 l 2,11,12
 707 970 707 970 793 989 c 1,13,-1
 764 853 l 1,14,-1
 231 853 l 1,15,16
 302 1056 302 1056 580 1230 c 0,17,18
 700 1305 700 1305 720 1396 c 0,19,20
 724 1416 724 1416 724 1433 c 0,21,22
 724 1468 724 1468 706 1493 c 0,23,24
 674 1536 674 1536 608 1536 c 0,25,26
 495 1536 495 1536 399 1394 c 1,27,-1
 389 1394 l 1,28,-1
 428 1577 l 1,29,30
 539 1638 539 1638 668 1638 c 0,0,1
EndSplineSet
Validated: 1
EndChar

StartChar: uni00B3
Encoding: 179 179 115
Width: 612
GlyphClass: 2
Flags: W
HStem: 843 103<347.235 576.366> 1526 102<442 675>
VStem: 640 162<1009.62 1216.74>
DStem2: 463 1303 630 1329 0.689006 0.724756<133.908 305.615>
LayerCount: 2
Fore
SplineSet
442 1628 m 1,0,-1
 848 1628 l 1,1,-1
 845 1539 l 1,2,3
 782 1491 782 1491 715 1419 c 2,4,-1
 630 1329 l 1,5,6
 705 1319 705 1319 750 1278 c 0,7,8
 802 1232 802 1232 802 1155 c 0,9,10
 802 1127 802 1127 795 1095 c 0,11,12
 774 996 774 996 673 919 c 0,13,14
 575 843 575 843 431 843 c 0,15,16
 322 843 322 843 242 904 c 1,17,-1
 281 1088 l 1,18,-1
 291 1088 l 1,19,20
 338 946 338 946 464 946 c 0,21,22
 526 946 526 946 578 991 c 0,23,24
 621 1030 621 1030 635 1098 c 0,25,26
 640 1124 640 1124 640 1145 c 0,27,28
 640 1186 640 1186 620 1208 c 0,29,30
 581 1250 581 1250 491 1250 c 1,31,-1
 463 1303 l 1,32,-1
 675 1526 l 1,33,-1
 590 1526 l 2,34,35
 498 1526 498 1526 416 1507 c 1,36,-1
 442 1628 l 1,0,-1
EndSplineSet
Validated: 1
EndChar

StartChar: acute
Encoding: 180 180 116
Width: 489
GlyphClass: 2
Flags: W
HStem: 1200 330
VStem: 305 459
LayerCount: 2
Fore
SplineSet
764 1530 m 1,0,-1
 762 1520 l 1,1,2
 675 1332 675 1332 438 1200 c 1,3,-1
 305 1200 l 17,4,-1
 307 1210 l 1,5,6
 497 1366 497 1366 532 1530 c 1,7,-1
 764 1530 l 1,0,-1
EndSplineSet
Validated: 1
EndChar

StartChar: uni00B5
Encoding: 181 181 117
Width: 1341
GlyphClass: 2
Flags: W
HStem: -410 21G<90 321> -20 115<541.602 825.265> 0 21G<938 1170>
VStem: 90 231<-410 -278.882> 938 231<0 111.188>
DStem2: 112.721 -410 292.508 -410 0.207912 0.978148<47.4678 497.608 788.03 1527.35> 878.657 -410 1054.15 -410 0.207912 0.978148<645.61 1527.33>
LayerCount: 2
Fore
SplineSet
1169 0 m 1,0,-1
 938 0 l 1,1,2
 970 71 970 71 991 137 c 1,3,4
 825 -20 825 -20 613 -20 c 0,5,6
 473 -20 473 -20 389 40 c 1,7,-1
 355 -116 l 2,8,9
 321 -274 321 -274 321 -410 c 1,10,-1
 90 -410 l 1,11,12
 141 -276 141 -276 175 -117 c 2,13,-1
 369 797 l 2,14,15
 401 946 401 946 405 1094 c 1,16,-1
 649 1140 l 1,17,18
 592 1000 592 1000 560 847 c 10,19,-1
 477 458 l 2,20,21
 460 378 460 378 460 320 c 0,22,23
 460 265 460 265 475 229 c 0,24,25
 530 95 530 95 693 95 c 0,26,27
 854 95 854 95 970 229 c 0,28,29
 1030 298 1030 298 1063 458 c 2,30,-1
 1135 796 l 2,31,32
 1167 945 1167 945 1171 1094 c 1,33,-1
 1410 1140 l 1,34,35
 1353 998 1353 998 1321 847 c 2,36,-1
 1204 295 l 2,37,38
 1171 139 1171 139 1169 0 c 1,0,-1
EndSplineSet
Validated: 1
EndChar

StartChar: paragraph
Encoding: 182 182 118
Width: 1113
GlyphClass: 2
Flags: W
HStem: 0 21G<683 785.246 847 944> 705 815<672.048 867.435> 1446 64<1088 1154>
DStem2: 713.233 0 781 0 0.207912 0.978148<14.0895 756.423> 847 0 913.233 0 0.207912 0.978148<24.5591 1474.41>
LayerCount: 2
Fore
SplineSet
683 0 m 1,0,1
 745 150 745 150 777 300 c 2,2,-1
 870 740 l 1,3,4
 788 705 788 705 697 705 c 0,5,6
 524 705 524 705 436 820 c 0,7,8
 375 901 375 901 375 1011 c 0,9,10
 375 1058 375 1058 386 1110 c 0,11,12
 424 1287 424 1287 560 1404 c 0,13,14
 696 1520 696 1520 870 1520 c 0,15,16
 919 1520 919 1520 961 1510 c 1,17,-1
 1264 1510 l 1,18,19
 1202 1360 1202 1360 1170 1210 c 2,20,-1
 977 300 l 2,21,22
 945 150 945 150 943 0 c 1,23,-1
 847 0 l 1,24,-1
 1154 1446 l 1,25,-1
 1088 1446 l 1,26,-1
 781 0 l 1,27,-1
 683 0 l 1,0,1
EndSplineSet
Validated: 1
EndChar

StartChar: periodcentered
Encoding: 183 183 119
Width: 660
GlyphClass: 2
Flags: W
HStem: 624 264<412.164 569.692>
VStem: 357 267<678.18 833.617>
LayerCount: 2
Fore
SplineSet
519 888 m 0,0,1
 575 888 575 888 603 850 c 0,2,3
 624 822 624 822 624 786 c 0,4,5
 624 768 624 768 621 756 c 0,6,7
 607 700 607 700 563 662 c 0,8,9
 518 624 518 624 463 624 c 0,10,11
 409 624 409 624 379 662 c 0,12,13
 357 690 357 690 357 727 c 0,14,15
 357 739 357 739 361 756 c 0,16,17
 374 812 374 812 419 850 c 128,-1,18
 464 888 464 888 519 888 c 0,0,1
EndSplineSet
Validated: 1
EndChar

StartChar: cedilla
Encoding: 184 184 120
Width: 376
GlyphClass: 2
Flags: W
HStem: -460 138<-18 120.412> -137 137<81 137.723>
VStem: 147 129<-295.682 -153.693>
LayerCount: 2
Fore
SplineSet
81 0 m 1,0,-1
 175 0 l 1,1,-1
 158 -79 l 1,2,3
 276 -120 276 -120 276 -215 c 0,4,5
 276 -233 276 -233 272 -253 c 0,6,7
 228 -460 228 -460 -48 -460 c 1,8,-1
 -18 -322 l 1,9,10
 127 -322 127 -322 145 -234 c 0,11,12
 147 -224 147 -224 147 -215 c 0,13,14
 147 -155 147 -155 52 -137 c 1,15,-1
 81 0 l 1,0,-1
EndSplineSet
Validated: 1
EndChar

StartChar: uni00B9
Encoding: 185 185 121
Width: 468
GlyphClass: 2
Flags: W
VStem: 370 179<853 978.422>
DStem2: 364 1477 413 1402 0.789122 0.614236<0 136.262> 388.865 853 528.865 853 0.207912 0.978148<36.1336 653.34>
LayerCount: 2
Fore
SplineSet
719 1653 m 1,0,1
 683 1576 683 1576 666 1498 c 2,2,-1
 565 1023 l 6,3,4
 549 946 549 946 549 853 c 5,5,-1
 370 853 l 1,6,7
 404 925 404 925 425 1023 c 2,8,-1
 525 1492 l 17,9,-1
 413 1402 l 1,10,-1
 364 1477 l 1,11,-1
 549 1621 l 1,12,-1
 719 1653 l 1,0,1
EndSplineSet
Validated: 1
EndChar

StartChar: ordmasculine
Encoding: 186 186 122
Width: 704
GlyphClass: 2
Flags: W
HStem: 683 154<226.928 499.311 508.624 519.314 528.627 800.072> 713 94<234.501 792.468> 939 73<483.938 665.41> 1458 72<563.605 745.123>
VStem: 305 143<1075.97 1334.81> 782 141<1136.1 1394.06>
LayerCount: 2
Fore
SplineSet
677 1530 m 0,0,1
 800 1530 800 1530 868 1449 c 0,2,3
 923 1384 923 1384 923 1299 c 0,4,5
 923 1268 923 1268 916 1234 c 0,6,7
 889 1103 889 1103 779 1018 c 0,8,9
 678 939 678 939 552 939 c 0,10,11
 424 939 424 939 360 1020 c 0,12,13
 305 1087 305 1087 305 1171 c 0,14,15
 305 1202 305 1202 312 1235 c 0,16,17
 341 1368 341 1368 449 1451 c 0,18,19
 552 1530 552 1530 677 1530 c 0,0,1
662 1458 m 0,20,21
 594 1458 594 1458 534 1397 c 24,22,23
 480 1342 480 1342 458 1235 c 0,24,25
 448 1189 448 1189 448 1152 c 0,26,27
 448 1106 448 1106 464 1075 c 0,28,29
 497 1012 497 1012 567 1012 c 0,30,31
 638 1012 638 1012 696 1075 c 24,32,33
 749 1132 749 1132 772 1235 c 0,34,35
 782 1282 782 1282 782 1318 c 0,36,37
 782 1365 782 1365 765 1395 c 0,38,39
 729 1458 729 1458 662 1458 c 0,20,21
230 837 m 1,40,41
 374 807 374 807 524 807 c 0,42,43
 672 807 672 807 830 837 c 1,44,-1
 797 683 l 1,45,46
 652 713 652 713 504 713 c 0,47,48
 354 713 354 713 197 683 c 1,49,-1
 230 837 l 1,40,41
EndSplineSet
Validated: 1
EndChar

StartChar: guillemotright
Encoding: 187 187 123
Width: 1310
GlyphClass: 2
Flags: W
DStem2: 493 453 713 487 0.685751 0.727836<-150.415 403.937> 954 747 618 1041 0.459259 -0.888303<-562.543 -84.5036> 908 453 1128 487 0.685751 0.727836<-150.415 403.937> 1369 747 1033 1041 0.459259 -0.888303<-562.543 -84.5036>
LayerCount: 2
Fore
SplineSet
470 1270 m 1,0,-1
 731 1270 l 1,1,2
 763 1126 763 1126 823 1007 c 2,3,-1
 954 747 l 1,4,-1
 713 487 l 2,5,6
 603 368 603 368 509 224 c 1,7,-1
 248 224 l 1,8,9
 393 346 393 346 493 453 c 2,10,-1
 770 747 l 1,11,-1
 618 1041 l 2,12,13
 562 1151 562 1151 470 1270 c 1,0,-1
885 1270 m 1,14,-1
 1146 1270 l 1,15,16
 1178 1126 1178 1126 1238 1007 c 2,17,-1
 1369 747 l 1,18,-1
 1128 487 l 2,19,20
 1018 368 1018 368 924 224 c 1,21,-1
 663 224 l 1,22,23
 808 346 808 346 908 453 c 2,24,-1
 1185 747 l 1,25,-1
 1033 1041 l 2,26,27
 977 1151 977 1151 885 1270 c 1,14,-1
EndSplineSet
Validated: 1
EndChar

StartChar: onequarter
Encoding: 188 188 124
Width: 1546
GlyphClass: 2
Flags: W
HStem: 0 21G<262 521.5 1113 1291> 180 122<1334.25 1384> 180 102<960 1170 1333 1384> 1510 0G<686.125 775 1248 1503>
VStem: 444 179<730 855.422> 1113 178<0 127.5>
DStem2: 307.699 0 447.699 0 0.207912 0.978148<782.442 1399.65> 438 1354 487 1279 0.787505 0.616308<0 136.033> 933 387 960 282 0.682805 0.730601<-56.5472 379.097> 1120 1225 1294 1251 0.557671 0.830062<-1366.16 321.489> 1131.87 0 1271.87 0 0.207912 0.978148<35.685 183.995 323.525 616.464>
LayerCount: 2
Fore
SplineSet
793 1530 m 1,0,1
 757 1453 757 1453 740 1375 c 2,2,-1
 639 900 l 2,3,4
 623 823 623 823 623 730 c 1,5,-1
 444 730 l 1,6,7
 478 802 478 802 499 900 c 2,8,-1
 599 1369 l 17,9,-1
 487 1279 l 1,10,-1
 438 1354 l 1,11,-1
 622 1498 l 1,12,-1
 793 1530 l 1,0,1
1291 0 m 1,13,-1
 1113 0 l 1,14,15
 1152 92 1152 92 1168 170 c 10,16,-1
 1170 180 l 1,17,-1
 817 180 l 1,18,-1
 806 267 l 1,19,20
 870 320 870 320 933 387 c 10,21,-1
 1186 655 l 18,22,23
 1244 716 1244 716 1292 795 c 1,24,-1
 1467 826 l 1,25,26
 1427 725 1427 725 1405 625 c 2,27,-1
 1333 288 l 1,28,29
 1373 288 1373 288 1410 302 c 1,30,-1
 1384 180 l 1,31,-1
 1310 180 l 1,32,-1
 1308 170 l 18,33,34
 1291 85 1291 85 1291 0 c 1,13,-1
1192 282 m 1,35,-1
 1260 603 l 1,36,-1
 960 282 l 1,37,-1
 1192 282 l 1,35,-1
262 0 m 1,38,39
 375 116 375 116 471 259 c 10,40,-1
 1120 1225 l 2,41,42
 1215 1367 1215 1367 1281 1510 c 1,43,-1
 1503 1510 l 1,44,45
 1390 1394 1390 1394 1294 1251 c 2,46,-1
 645 285 l 2,47,48
 559 156 559 156 484 0 c 1,49,-1
 262 0 l 1,38,39
EndSplineSet
Validated: 1
EndChar

StartChar: onehalf
Encoding: 189 189 125
Width: 1616
GlyphClass: 2
Flags: W
HStem: 0 117<1063 1416> 683 102<1139.25 1357.8> 1510 0G<686.125 775 1248 1503>
VStem: 444 179<730 855.491> 1041 10<541 545.403> 1376 158<461.696 651.505>
DStem2: 307.699 0 447.699 0 0.207912 0.978148<782.502 1399.65> 438 1354 487 1279 0.787505 0.616308<0 136.033> 1120 1225 1294 1251 0.557671 0.830062<-1366.16 321.489>
LayerCount: 2
Fore
SplineSet
883 0 m 1,0,1
 954 203 954 203 1232 377 c 0,2,3
 1352 452 1352 452 1372 543 c 0,4,5
 1376 563 1376 563 1376 580 c 0,6,7
 1376 615 1376 615 1358 640 c 0,8,9
 1326 683 1326 683 1260 683 c 0,10,11
 1147 683 1147 683 1051 541 c 1,12,-1
 1041 541 l 1,13,-1
 1080 724 l 1,14,15
 1191 785 1191 785 1320 785 c 0,16,17
 1419 785 1419 785 1479 723 c 0,18,19
 1534 666 1534 666 1534 592 c 0,20,21
 1534 569 1534 569 1529 545 c 0,22,23
 1497 393 1497 393 1270 275 c 0,24,25
 1120 197 1120 197 1063 117 c 1,26,-1
 1271 117 l 2,27,28
 1359 117 1359 117 1445 136 c 1,29,-1
 1416 0 l 1,30,-1
 883 0 l 1,0,1
793 1530 m 1,31,32
 757 1453 757 1453 740 1375 c 2,33,-1
 639 900 l 2,34,35
 623 825 623 825 623 730 c 1,36,-1
 444 730 l 1,37,38
 478 802 478 802 499 900 c 2,39,-1
 599 1369 l 17,40,-1
 487 1279 l 1,41,-1
 438 1354 l 1,42,-1
 622 1498 l 1,43,-1
 793 1530 l 1,31,32
262 0 m 1,44,45
 376 117 376 117 471 259 c 10,46,-1
 1120 1225 l 2,47,48
 1215 1367 1215 1367 1281 1510 c 1,49,-1
 1503 1510 l 1,50,51
 1389 1393 1389 1393 1294 1251 c 2,52,-1
 645 285 l 2,53,54
 559 156 559 156 484 0 c 1,55,-1
 262 0 l 1,44,45
EndSplineSet
Validated: 1
EndChar

StartChar: threequarters
Encoding: 190 190 126
Width: 1609
GlyphClass: 2
Flags: W
HStem: 0 21G<326 585.5 1176 1354> 180 122<1397.25 1447> 180 102<1023 1233 1396 1447> 735 103<424.235 653.366> 1418 102<519 752>
VStem: 717 162<901.624 1108.74> 1176 178<0 127.5>
DStem2: 540 1195 708 1221 0.689006 0.724756<134.597 305.615> 996 387 1023 282 0.682805 0.730601<-56.5472 379.097> 1184 1225 1358 1251 0.557671 0.830062<-1366.16 321.489> 1194.87 0 1334.87 0 0.207912 0.978148<35.685 183.995 323.525 616.464>
LayerCount: 2
Fore
SplineSet
519 1520 m 1,0,-1
 925 1520 l 1,1,-1
 922 1431 l 1,2,3
 859 1383 859 1383 792 1311 c 2,4,-1
 708 1221 l 1,5,6
 783 1211 783 1211 827 1170 c 0,7,8
 879 1124 879 1124 879 1047 c 0,9,10
 879 1019 879 1019 872 987 c 0,11,12
 851 888 851 888 750 811 c 0,13,14
 652 735 652 735 508 735 c 0,15,16
 399 735 399 735 319 796 c 1,17,-1
 358 980 l 1,18,-1
 368 980 l 1,19,20
 415 838 415 838 541 838 c 0,21,22
 603 838 603 838 655 883 c 0,23,24
 698 922 698 922 712 990 c 0,25,26
 717 1016 717 1016 717 1037 c 0,27,28
 717 1078 717 1078 697 1100 c 0,29,30
 658 1142 658 1142 568 1142 c 1,31,-1
 540 1195 l 1,32,-1
 752 1418 l 1,33,-1
 667 1418 l 2,34,35
 575 1418 575 1418 493 1399 c 1,36,-1
 519 1520 l 1,0,-1
1354 0 m 1,37,-1
 1176 0 l 1,38,39
 1215 92 1215 92 1231 170 c 10,40,-1
 1233 180 l 1,41,-1
 880 180 l 1,42,-1
 869 267 l 1,43,44
 933 320 933 320 996 387 c 10,45,-1
 1249 655 l 18,46,47
 1307 716 1307 716 1355 795 c 1,48,-1
 1530 826 l 1,49,50
 1490 725 1490 725 1468 625 c 2,51,-1
 1396 288 l 1,52,53
 1436 288 1436 288 1473 302 c 1,54,-1
 1447 180 l 1,55,-1
 1373 180 l 1,56,-1
 1371 170 l 18,57,58
 1354 85 1354 85 1354 0 c 1,37,-1
1255 282 m 1,59,-1
 1323 603 l 1,60,-1
 1023 282 l 1,61,-1
 1255 282 l 1,59,-1
326 0 m 1,62,63
 439 116 439 116 535 259 c 10,64,-1
 1184 1225 l 2,65,66
 1279 1367 1279 1367 1345 1510 c 1,67,-1
 1567 1510 l 1,68,69
 1454 1394 1454 1394 1358 1251 c 2,70,-1
 709 285 l 2,71,72
 623 156 623 156 548 0 c 1,73,-1
 326 0 l 1,62,63
EndSplineSet
Validated: 1
EndChar

StartChar: questiondown
Encoding: 191 191 127
Width: 1194
GlyphClass: 2
Flags: W
HStem: -430 126<438.974 772.758> -41 20G<1000.5 1040> 856 264<804.308 961.836>
VStem: 140 214<-220.169 101.017> 750 267<910.383 1065.82> 776 116<633.061 740> 1030 10<-26.4717 -21>
LayerCount: 2
Fore
SplineSet
911 1120 m 0,0,1
 965 1120 965 1120 995 1082 c 0,2,3
 1017 1054 1017 1054 1017 1017 c 0,4,5
 1017 1005 1017 1005 1013 988 c 0,6,7
 1000 932 1000 932 955 894 c 128,-1,8
 910 856 910 856 855 856 c 0,9,10
 799 856 799 856 771 894 c 0,11,12
 750 922 750 922 750 958 c 0,13,14
 750 976 750 976 753 988 c 0,15,16
 767 1044 767 1044 811 1082 c 0,17,18
 856 1120 856 1120 911 1120 c 0,0,1
549 -430 m 0,19,20
 329 -430 329 -430 220 -301 c 0,21,22
 140 -207 140 -207 140 -86 c 0,23,24
 140 -44 140 -44 150 0 c 0,25,26
 205 258 205 258 504 424 c 0,27,28
 736 553 736 553 776 740 c 1,29,-1
 892 740 l 1,30,31
 834 466 834 466 574 298 c 0,32,33
 401 186 401 186 365 18 c 0,34,35
 354 -34 354 -34 354 -78 c 0,36,37
 354 -159 354 -159 391 -212 c 0,38,39
 454 -304 454 -304 595 -304 c 0,40,41
 753 -304 753 -304 905 -168 c 0,42,43
 971 -109 971 -109 1030 -21 c 1,44,-1
 1040 -21 l 1,45,-1
 978 -312 l 1,46,47
 759 -430 759 -430 549 -430 c 0,19,20
EndSplineSet
Validated: 1
EndChar

StartChar: multiply
Encoding: 215 215 128
Width: 1040
GlyphClass: 2
Flags: W
HStem: 1095 20G<513.762 567.5 919 991.762>
DStem2: 535 717 621 608 0.771373 0.636383<-326.948 41.0178 216.004 583.926> 702 854 547 773 0.618872 -0.785492<-296.896 0 142.15 439.089>
LayerCount: 2
Fore
SplineSet
355 964 m 1,0,-1
 538 1115 l 1,1,2
 597 987 597 987 679 882 c 2,3,-1
 702 854 l 1,4,-1
 735 882 l 2,5,6
 862 986 862 986 976 1115 c 1,7,-1
 1095 964 l 1,8,9
 949 878 949 878 821 773 c 2,10,-1
 787 745 l 1,11,-1
 809 717 l 2,12,13
 892 611 892 611 1002 526 c 1,14,-1
 819 375 l 1,15,16
 761 502 761 502 677 608 c 2,17,-1
 655 636 l 1,18,-1
 621 608 l 2,19,20
 492 502 492 502 381 375 c 1,21,-1
 262 526 l 1,22,23
 407 611 407 611 535 717 c 2,24,-1
 569 745 l 1,25,-1
 547 773 l 2,26,27
 466 878 466 878 355 964 c 1,0,-1
EndSplineSet
Validated: 1
EndChar

StartChar: Oslash
Encoding: 216 216 129
Width: 1726
GlyphClass: 2
Flags: W
HStem: -20 126<684.359 1102.88> 1404 126<942.834 1362.62>
VStem: 239 225<342.562 839.878> 1583 225<670.604 1166.72>
DStem2: 298 43 373 -20 0.674375 0.738389<4.05965 151.486 345.419 1687.97 1874.54 2014.46>
LayerCount: 2
Fore
SplineSet
373 -20 m 1,0,-1
 298 43 l 1,1,-1
 400 155 l 1,2,3
 387 169 387 169 374 183 c 0,4,5
 239 337 239 337 239 563 c 0,6,7
 239 653 239 653 260 755 c 0,8,9
 336 1111 336 1111 617 1327 c 0,10,11
 881 1530 881 1530 1187 1530 c 0,12,13
 1407 1530 1407 1530 1561 1425 c 1,14,-1
 1657 1530 l 1,15,-1
 1732 1468 l 1,16,-1
 1636 1363 l 1,17,18
 1654 1346 1654 1346 1671 1327 c 0,19,20
 1808 1171 1808 1171 1808 945 c 0,21,22
 1808 856 1808 856 1786 755 c 0,23,24
 1710 401 1710 401 1428 183 c 0,25,26
 1164 -20 1164 -20 858 -20 c 0,27,28
 631 -20 631 -20 475 91 c 1,29,-1
 373 -20 l 1,0,-1
885 106 m 0,30,31
 1133 106 1133 106 1329 306 c 0,32,33
 1504 484 1504 484 1562 755 c 0,34,35
 1583 855 1583 855 1583 942 c 0,36,37
 1583 1092 1583 1092 1520 1204 c 0,38,39
 1514 1214 1514 1214 1509 1223 c 1,40,-1
 591 219 l 1,41,42
 700 106 700 106 885 106 c 0,30,31
531 298 m 1,43,-1
 1447 1300 l 1,44,45
 1339 1404 1339 1404 1160 1404 c 0,46,47
 914 1404 914 1404 718 1204 c 0,48,49
 546 1028 546 1028 486 755 c 0,50,51
 464 655 464 655 464 568 c 0,52,53
 464 418 464 418 527 306 c 0,54,55
 529 302 529 302 531 298 c 1,43,-1
EndSplineSet
Validated: 1
EndChar

StartChar: divide
Encoding: 247 247 130
Width: 1133
GlyphClass: 2
Flags: W
HStem: 181 264<547.164 704.692> 638 214<327.985 1122.01> 668 154<335.501 1114.47> 1024 264<741.164 898.692>
VStem: 492 267<235.18 390.617> 686 267<1078.18 1233.62>
LayerCount: 2
Fore
SplineSet
848 1288 m 0,0,1
 904 1288 904 1288 932 1250 c 0,2,3
 953 1222 953 1222 953 1186 c 0,4,5
 953 1168 953 1168 950 1156 c 0,6,7
 936 1100 936 1100 892 1062 c 0,8,9
 847 1024 847 1024 792 1024 c 0,10,11
 738 1024 738 1024 708 1062 c 0,12,13
 686 1090 686 1090 686 1127 c 0,14,15
 686 1139 686 1139 690 1156 c 0,16,17
 703 1212 703 1212 748 1250 c 128,-1,18
 793 1288 793 1288 848 1288 c 0,0,1
598 181 m 0,19,20
 544 181 544 181 514 219 c 0,21,22
 492 247 492 247 492 284 c 0,23,24
 492 296 492 296 496 313 c 0,25,26
 509 369 509 369 554 407 c 128,-1,27
 599 445 599 445 654 445 c 0,28,29
 710 445 710 445 738 407 c 0,30,31
 759 379 759 379 759 343 c 0,32,33
 759 325 759 325 756 313 c 0,34,35
 742 257 742 257 698 219 c 0,36,37
 653 181 653 181 598 181 c 0,19,20
331 852 m 1,38,39
 475 822 475 822 625 822 c 2,40,-1
 858 822 l 2,41,42
 1006 822 1006 822 1164 852 c 1,43,-1
 1119 638 l 1,44,45
 974 668 974 668 825 668 c 2,46,-1
 592 668 l 2,47,48
 442 668 442 668 286 638 c 1,49,-1
 331 852 l 1,38,39
EndSplineSet
Validated: 1
EndChar

StartChar: oslash
Encoding: 248 248 131
Width: 1328
GlyphClass: 2
Flags: W
HStem: -20 103<524.729 858.214> 1017 103<703.627 1036.66>
VStem: 201 206<250.666 644.105> 1154 207<456.559 858.219>
DStem2: 238 41 314 -20 0.67828 0.734803<6.72628 114.328 281.656 1206.21 1372.17 1468.42>
LayerCount: 2
Fore
SplineSet
660 -20 m 0,0,1
 496 -20 496 -20 385 56 c 1,2,-1
 314 -20 l 1,3,-1
 238 41 l 1,4,-1
 311 121 l 1,5,6
 308 125 308 125 305 128 c 0,7,8
 201 249 201 249 201 416 c 0,9,10
 201 484 201 484 216 550 c 0,11,12
 274 808 274 808 485 972 c 0,13,14
 675 1120 675 1120 902 1120 c 0,15,16
 1060 1120 1060 1120 1169 1050 c 1,17,-1
 1234 1120 l 1,18,-1
 1310 1059 l 1,19,-1
 1244 987 l 1,20,21
 1251 980 1251 980 1257 972 c 0,22,23
 1361 851 1361 851 1361 684 c 0,24,25
 1361 618 1361 618 1346 550 c 0,26,27
 1291 294 1291 294 1077 128 c 0,28,29
 886 -20 886 -20 660 -20 c 0,0,1
682 83 m 0,30,31
 849 83 849 83 981 223 c 0,32,33
 1088 338 1088 338 1134 550 c 0,34,35
 1154 641 1154 641 1154 715 c 0,36,37
 1154 801 1154 801 1128 861 c 1,38,-1
 483 163 l 1,39,40
 556 83 556 83 682 83 c 0,30,31
429 248 m 1,41,-1
 1072 944 l 1,42,43
 1000 1017 1000 1017 880 1017 c 0,44,45
 714 1017 714 1017 580 877 c 0,46,47
 472 764 472 764 426 550 c 0,48,49
 407 462 407 462 407 384 c 0,50,51
 407 305 407 305 429 248 c 1,41,-1
EndSplineSet
Validated: 1
EndChar

StartChar: endash
Encoding: 8211 8211 132
Width: 1233
GlyphClass: 2
Flags: W
HStem: 638 214<377.985 1172.01> 668 154<385.501 1164.47>
LayerCount: 2
Fore
SplineSet
381 852 m 1,0,1
 525 822 525 822 675 822 c 2,2,-1
 908 822 l 2,3,4
 1056 822 1056 822 1214 852 c 1,5,-1
 1169 638 l 1,6,7
 1024 668 1024 668 875 668 c 2,8,-1
 642 668 l 2,9,10
 492 668 492 668 336 638 c 1,11,-1
 381 852 l 1,0,1
EndSplineSet
Validated: 1
EndChar

StartChar: emdash
Encoding: 8212 8212 133
Width: 1533
GlyphClass: 2
Flags: W
HStem: 638 214<377.985 883.516 916.828 933.172 966.484 1472.01> 668 154<385.501 1464.47>
LayerCount: 2
Fore
SplineSet
381 852 m 1,0,1
 525 822 525 822 675 822 c 2,2,-1
 1208 822 l 2,3,4
 1356 822 1356 822 1514 852 c 1,5,-1
 1469 638 l 1,6,7
 1324 668 1324 668 1175 668 c 2,8,-1
 642 668 l 2,9,10
 492 668 492 668 336 638 c 1,11,-1
 381 852 l 1,0,1
EndSplineSet
Validated: 1
EndChar

StartChar: afii00208
Encoding: 8213 8213 134
Width: 1533
GlyphClass: 2
Flags: W
HStem: 638 214<377.985 883.516 916.828 933.172 966.484 1472.01> 668 154<385.501 1464.47>
LayerCount: 2
Fore
SplineSet
381 852 m 1,0,1
 525 822 525 822 675 822 c 2,2,-1
 1208 822 l 2,3,4
 1356 822 1356 822 1514 852 c 1,5,-1
 1469 638 l 1,6,7
 1324 668 1324 668 1175 668 c 2,8,-1
 642 668 l 2,9,10
 492 668 492 668 336 638 c 1,11,-1
 381 852 l 1,0,1
EndSplineSet
Validated: 1
EndChar

StartChar: quoteleft
Encoding: 8216 8216 135
Width: 378
GlyphClass: 2
Flags: W
HStem: 978 572
VStem: 302 187<1083.09 1313.7>
LayerCount: 2
Fore
SplineSet
657 1550 m 1,0,-1
 655 1540 l 1,1,2
 522 1420 522 1420 493 1282 c 0,3,4
 489 1261 489 1261 489 1242 c 0,5,6
 489 1170 489 1170 551 1118 c 1,7,-1
 381 978 l 1,8,9
 302 1056 302 1056 302 1155 c 0,10,11
 302 1183 302 1183 308 1213 c 0,12,13
 355 1435 355 1435 657 1550 c 1,0,-1
EndSplineSet
Validated: 1
EndChar

StartChar: quoteright
Encoding: 8217 8217 136
Width: 378
GlyphClass: 2
Flags: W
HStem: 978 572
VStem: 426 188<1216.82 1394.98>
LayerCount: 2
Fore
SplineSet
534 1550 m 1,0,1
 614 1472 614 1472 614 1372 c 0,2,3
 614 1345 614 1345 608 1315 c 0,4,5
 561 1093 561 1093 258 978 c 1,6,-1
 260 988 l 1,7,8
 393 1108 393 1108 422 1246 c 0,9,10
 426 1267 426 1267 426 1286 c 0,11,12
 426 1358 426 1358 365 1410 c 1,13,-1
 534 1550 l 1,0,1
EndSplineSet
Validated: 1
EndChar

StartChar: quotesinglbase
Encoding: 8218 8218 137
Width: 378
GlyphClass: 2
Flags: W
HStem: -292 572
VStem: 156 188<-53.1848 124.979>
LayerCount: 2
Fore
SplineSet
265 280 m 1,0,1
 344 202 344 202 344 103 c 0,2,3
 344 75 344 75 338 45 c 0,4,5
 291 -177 291 -177 -12 -292 c 1,6,-1
 -10 -282 l 1,7,8
 123 -162 123 -162 152 -24 c 0,9,10
 156 -3 156 -3 156 16 c 0,11,12
 156 88 156 88 95 140 c 1,13,-1
 265 280 l 1,0,1
EndSplineSet
Validated: 1
EndChar

StartChar: quotereversed
Encoding: 8219 8219 138
Width: 378
GlyphClass: 2
Flags: W
HStem: 978 572
VStem: 322 156<1107.17 1319.94>
LayerCount: 2
Fore
SplineSet
502 1550 m 1,0,1
 613 1410 l 1,2,3
 507 1344 507 1344 486 1246 c 0,4,5
 478 1210 478 1210 478 1174 c 0,6,7
 478 1076 478 1076 538 988 c 1,8,-1
 536 978 l 1,9,10
 322 1075 322 1075 322 1247 c 0,11,12
 322 1280 322 1280 330 1315 c 0,13,14
 358 1450 358 1450 502 1550 c 1,0,1
EndSplineSet
Validated: 1
EndChar

StartChar: quotedblleft
Encoding: 8220 8220 139
Width: 672
GlyphClass: 2
Flags: W
HStem: 978 572
VStem: 302 187<1083.09 1313.7> 596 187<1083.09 1313.7>
LayerCount: 2
Fore
SplineSet
657 1550 m 1,0,-1
 655 1540 l 1,1,2
 522 1420 522 1420 493 1282 c 0,3,4
 489 1261 489 1261 489 1242 c 0,5,6
 489 1170 489 1170 551 1118 c 1,7,-1
 381 978 l 1,8,9
 302 1056 302 1056 302 1155 c 0,10,11
 302 1183 302 1183 308 1213 c 0,12,13
 355 1435 355 1435 657 1550 c 1,0,-1
951 1550 m 1,14,-1
 949 1540 l 1,15,16
 816 1420 816 1420 787 1282 c 0,17,18
 783 1261 783 1261 783 1242 c 0,19,20
 783 1170 783 1170 845 1118 c 1,21,-1
 675 978 l 1,22,23
 596 1056 596 1056 596 1155 c 0,24,25
 596 1183 596 1183 602 1213 c 0,26,27
 649 1435 649 1435 951 1550 c 1,14,-1
EndSplineSet
Validated: 1
EndChar

StartChar: quotedblright
Encoding: 8221 8221 140
Width: 672
GlyphClass: 2
Flags: W
HStem: 978 572
VStem: 426 188<1216.82 1394.98> 720 188<1216.82 1394.98>
LayerCount: 2
Fore
SplineSet
828 1550 m 1,0,1
 908 1472 908 1472 908 1372 c 0,2,3
 908 1345 908 1345 902 1315 c 0,4,5
 855 1093 855 1093 552 978 c 1,6,-1
 554 988 l 1,7,8
 687 1108 687 1108 716 1246 c 0,9,10
 720 1267 720 1267 720 1286 c 0,11,12
 720 1358 720 1358 659 1410 c 1,13,-1
 828 1550 l 1,0,1
534 1550 m 1,14,15
 614 1472 614 1472 614 1372 c 0,16,17
 614 1345 614 1345 608 1315 c 0,18,19
 561 1093 561 1093 258 978 c 1,20,-1
 260 988 l 1,21,22
 393 1108 393 1108 422 1246 c 0,23,24
 426 1267 426 1267 426 1286 c 0,25,26
 426 1358 426 1358 365 1410 c 1,27,-1
 534 1550 l 1,14,15
EndSplineSet
Validated: 1
EndChar

StartChar: quotedblbase
Encoding: 8222 8222 141
Width: 672
GlyphClass: 2
Flags: W
HStem: -292 572
VStem: 156 188<-53.1848 124.979> 450 188<-53.1848 124.979>
LayerCount: 2
Fore
SplineSet
559 280 m 1,0,1
 638 202 638 202 638 103 c 0,2,3
 638 75 638 75 632 45 c 0,4,5
 585 -177 585 -177 282 -292 c 1,6,-1
 284 -282 l 1,7,8
 417 -162 417 -162 446 -24 c 0,9,10
 450 -3 450 -3 450 16 c 0,11,12
 450 88 450 88 389 140 c 1,13,-1
 559 280 l 1,0,1
265 280 m 1,14,15
 344 202 344 202 344 103 c 0,16,17
 344 75 344 75 338 45 c 0,18,19
 291 -177 291 -177 -12 -292 c 1,20,-1
 -10 -282 l 1,21,22
 123 -162 123 -162 152 -24 c 0,23,24
 156 -3 156 -3 156 16 c 0,25,26
 156 88 156 88 95 140 c 1,27,-1
 265 280 l 1,14,15
EndSplineSet
Validated: 1
EndChar

StartChar: dagger
Encoding: 8224 8224 142
Width: 1133
GlyphClass: 2
Flags: W
HStem: 0 21G<456 677> 984 214<401.918 701.438 894.578 1195.08> 1014 154<409.501 702 894 1187.47> 1490 20G<776 997>
VStem: 456 220<0 117.188> 777 220<1392.34 1510>
DStem2: 486.468 0 646.468 0 0.207912 0.978148<44.0056 1036.65 1227.21 1532.78>
LayerCount: 2
Fore
SplineSet
456 0 m 1,0,1
 518 150 518 150 550 300 c 2,2,-1
 702 1014 l 1,3,-1
 666 1014 l 2,4,5
 516 1014 516 1014 359 984 c 1,6,-1
 405 1198 l 1,7,8
 549 1168 549 1168 698 1168 c 2,9,-1
 734 1168 l 1,10,-1
 743 1210 l 2,11,12
 775 1359 775 1359 777 1510 c 1,13,-1
 997 1510 l 1,14,15
 935 1359 935 1359 903 1210 c 2,16,-1
 894 1168 l 1,17,-1
 931 1168 l 2,18,19
 1079 1168 1079 1168 1238 1198 c 1,20,-1
 1192 984 l 1,21,22
 1047 1014 1047 1014 899 1014 c 2,23,-1
 862 1014 l 1,24,-1
 710 300 l 2,25,26
 678 150 678 150 676 0 c 1,27,-1
 456 0 l 1,0,1
EndSplineSet
Validated: 1
EndChar

StartChar: daggerdbl
Encoding: 8225 8225 143
Width: 1133
GlyphClass: 2
Flags: W
HStem: 0 21G<456 678> 312 214<258.918 558.438 752.562 1052.08> 342 154<266.532 559 752 1044.5> 984 214<401.918 701.438 895.562 1195.08> 1014 154<409.501 702 895 1187.47> 1490 20G<776 998>
VStem: 456 221<0 117.188> 777 221<1392.81 1510>
DStem2: 486.306 0 647.306 0 0.207912 0.978148<44.2773 349.64 540.402 1036.69 1227.45 1532.81>
LayerCount: 2
Fore
SplineSet
456 0 m 1,0,1
 518 150 518 150 550 300 c 2,2,-1
 559 342 l 1,3,-1
 523 342 l 2,4,5
 375 342 375 342 216 312 c 1,6,-1
 262 526 l 1,7,8
 407 496 407 496 555 496 c 2,9,-1
 591 496 l 1,10,-1
 702 1014 l 1,11,-1
 666 1014 l 2,12,13
 516 1014 516 1014 359 984 c 1,14,-1
 405 1198 l 1,15,16
 549 1168 549 1168 698 1168 c 2,17,-1
 734 1168 l 1,18,-1
 743 1210 l 2,19,20
 775 1359 775 1359 777 1510 c 1,21,-1
 998 1510 l 1,22,23
 936 1360 936 1360 904 1210 c 2,24,-1
 895 1168 l 1,25,-1
 931 1168 l 2,26,27
 1079 1168 1079 1168 1238 1198 c 1,28,-1
 1192 984 l 1,29,30
 1047 1014 1047 1014 899 1014 c 2,31,-1
 863 1014 l 1,32,-1
 752 496 l 1,33,-1
 788 496 l 2,34,35
 938 496 938 496 1095 526 c 1,36,-1
 1049 312 l 1,37,38
 905 342 905 342 756 342 c 2,39,-1
 720 342 l 1,40,-1
 711 300 l 2,41,42
 679 151 679 151 677 0 c 1,43,-1
 456 0 l 1,0,1
EndSplineSet
Validated: 1
EndChar

StartChar: bullet
Encoding: 8226 8226 144
Width: 962
GlyphClass: 2
Flags: W
HStem: 415 680<541.037 741.296>
VStem: 302 679<655.625 856.479>
LayerCount: 2
Fore
SplineSet
569 415 m 0,0,1
 430 415 430 415 356 515 c 0,2,3
 302 587 302 587 302 680 c 0,4,5
 302 716 302 716 310 755 c 0,6,7
 340 894 340 894 458 995 c 0,8,9
 575 1095 575 1095 714 1095 c 0,10,11
 854 1095 854 1095 928 995 c 0,12,13
 981 923 981 923 981 831 c 0,14,15
 981 796 981 796 972 755 c 0,16,17
 942 615 942 615 824.5 515 c 128,-1,18
 707 415 707 415 569 415 c 0,0,1
EndSplineSet
Validated: 1
EndChar

StartChar: ellipsis
Encoding: 8230 8230 145
Width: 1190
GlyphClass: 2
Flags: W
HStem: -20 264<125.164 282.692 541.164 698.692 955.164 1112.69>
VStem: 70 267<34.1802 189.617> 486 267<34.1802 189.617> 900 267<34.1802 189.617>
LayerCount: 2
Fore
SplineSet
1006 -20 m 0,0,1
 952 -20 952 -20 922 18 c 0,2,3
 900 46 900 46 900 83 c 0,4,5
 900 95 900 95 904 112 c 0,6,7
 917 168 917 168 962 206 c 128,-1,8
 1007 244 1007 244 1062 244 c 0,9,10
 1118 244 1118 244 1146 206 c 0,11,12
 1167 178 1167 178 1167 142 c 0,13,14
 1167 124 1167 124 1164 112 c 0,15,16
 1150 56 1150 56 1106 18 c 0,17,18
 1061 -20 1061 -20 1006 -20 c 0,0,1
592 -20 m 0,19,20
 538 -20 538 -20 508 18 c 0,21,22
 486 46 486 46 486 83 c 0,23,24
 486 95 486 95 490 112 c 0,25,26
 503 168 503 168 548 206 c 128,-1,27
 593 244 593 244 648 244 c 0,28,29
 704 244 704 244 732 206 c 0,30,31
 753 178 753 178 753 142 c 0,32,33
 753 124 753 124 750 112 c 0,34,35
 736 56 736 56 692 18 c 0,36,37
 647 -20 647 -20 592 -20 c 0,19,20
176 -20 m 0,38,39
 122 -20 122 -20 92 18 c 0,40,41
 70 46 70 46 70 83 c 0,42,43
 70 95 70 95 74 112 c 0,44,45
 87 168 87 168 132 206 c 128,-1,46
 177 244 177 244 232 244 c 0,47,48
 288 244 288 244 316 206 c 0,49,50
 337 178 337 178 337 142 c 0,51,52
 337 124 337 124 334 112 c 0,53,54
 320 56 320 56 276 18 c 0,55,56
 231 -20 231 -20 176 -20 c 0,38,39
EndSplineSet
Validated: 1
EndChar

StartChar: perthousand
Encoding: 8240 8240 146
Width: 2369
GlyphClass: 2
Flags: W
HStem: -20 100<1081.61 1302.21 1804.61 2025.21> 0 21G<370 629.5> 529 101<1157.54 1377.74 1880.54 2100.74> 880 100<588.611 809.214> 1429 101<665.035 885.236> 1490 20G<1356 1611>
VStem: 398 149<1047.22 1302.17> 891 149<147.223 402.172> 927 149<1108.29 1361.78> 1420 149<208.289 461.777> 1614 149<147.223 402.172> 2143 149<208.289 461.777>
DStem2: 1228 1225 1402 1251 0.557671 0.830062<-1366.16 321.489>
LayerCount: 2
Fore
SplineSet
1884 -20 m 0,0,1
 1749 -20 1749 -20 1675 69 c 0,2,3
 1614 142 1614 142 1614 235 c 0,4,5
 1614 269 1614 269 1622 305 c 0,6,7
 1653 449 1653 449 1772 544 c 0,8,9
 1881 630 1881 630 2022 630 c 0,10,11
 2157 630 2157 630 2231 541 c 0,12,13
 2292 469 2292 469 2292 374 c 0,14,15
 2292 341 2292 341 2284 305 c 0,16,17
 2254 162 2254 162 2134 66 c 0,18,19
 2026 -20 2026 -20 1884 -20 c 0,0,1
1905 80 m 0,20,21
 1983 80 1983 80 2051 146 c 0,22,23
 2115 209 2115 209 2136 305 c 0,24,25
 2143 339 2143 339 2143 369 c 0,26,27
 2143 424 2143 424 2118 463 c 0,28,29
 2076 529 2076 529 2000 529 c 0,30,31
 1922 529 1922 529 1854 463 c 0,32,33
 1790 401 1790 401 1770 305 c 0,34,35
 1763 270 1763 270 1763 240 c 0,36,37
 1763 185 1763 185 1787 146 c 0,38,39
 1828 80 1828 80 1905 80 c 0,20,21
1161 -20 m 0,40,41
 1026 -20 1026 -20 952 69 c 0,42,43
 891 142 891 142 891 235 c 0,44,45
 891 269 891 269 899 305 c 0,46,47
 930 449 930 449 1049 544 c 0,48,49
 1158 630 1158 630 1299 630 c 0,50,51
 1434 630 1434 630 1508 541 c 0,52,53
 1569 469 1569 469 1569 374 c 0,54,55
 1569 341 1569 341 1561 305 c 0,56,57
 1531 162 1531 162 1411 66 c 0,58,59
 1303 -20 1303 -20 1161 -20 c 0,40,41
1182 80 m 0,60,61
 1260 80 1260 80 1328 146 c 0,62,63
 1392 209 1392 209 1413 305 c 0,64,65
 1420 339 1420 339 1420 369 c 0,66,67
 1420 424 1420 424 1395 463 c 0,68,69
 1353 529 1353 529 1277 529 c 0,70,71
 1199 529 1199 529 1131 463 c 0,72,73
 1067 401 1067 401 1047 305 c 0,74,75
 1040 270 1040 270 1040 240 c 0,76,77
 1040 185 1040 185 1064 146 c 0,78,79
 1105 80 1105 80 1182 80 c 0,60,61
806 1530 m 0,80,81
 941 1530 941 1530 1015 1441 c 0,82,83
 1076 1369 1076 1369 1076 1274 c 0,84,85
 1076 1241 1076 1241 1068 1205 c 0,86,87
 1038 1062 1038 1062 918 966 c 0,88,89
 810 880 810 880 668 880 c 0,90,91
 533 880 533 880 459 969 c 0,92,93
 398 1042 398 1042 398 1135 c 0,94,95
 398 1169 398 1169 406 1205 c 0,96,97
 437 1349 437 1349 556 1444 c 0,98,99
 665 1530 665 1530 806 1530 c 0,80,81
785 1429 m 0,100,101
 707 1429 707 1429 639 1363 c 0,102,103
 575 1301 575 1301 554 1205 c 0,104,105
 547 1170 547 1170 547 1140 c 0,106,107
 547 1085 547 1085 571 1046 c 0,108,109
 612 980 612 980 689 980 c 0,110,111
 767 980 767 980 835 1046 c 0,112,113
 899 1109 899 1109 920 1205 c 0,114,115
 927 1240 927 1240 927 1270 c 0,116,117
 927 1324 927 1324 903 1363 c 0,118,119
 861 1429 861 1429 785 1429 c 0,100,101
370 0 m 1,120,121
 483 116 483 116 579 259 c 10,122,-1
 1228 1225 l 2,123,124
 1323 1367 1323 1367 1389 1510 c 1,125,-1
 1611 1510 l 1,126,127
 1498 1394 1498 1394 1402 1251 c 2,128,-1
 753 285 l 2,129,130
 667 156 667 156 592 0 c 1,131,-1
 370 0 l 1,120,121
EndSplineSet
Validated: 1
EndChar

StartChar: minute
Encoding: 8242 8242 147
Width: 443
GlyphClass: 2
Flags: W
HStem: 1100 430
VStem: 284 434
LayerCount: 2
Fore
SplineSet
508 1530 m 1,0,-1
 718 1530 l 1,1,2
 537 1317 537 1317 434 1100 c 9,3,-1
 284 1100 l 17,4,5
 433 1318 433 1318 508 1530 c 1,0,-1
EndSplineSet
Validated: 1
EndChar

StartChar: second
Encoding: 8243 8243 148
Width: 729
GlyphClass: 2
Flags: W
HStem: 1100 430
LayerCount: 2
Fore
SplineSet
794 1530 m 1,0,-1
 1004 1530 l 1,1,2
 823 1317 823 1317 720 1100 c 9,3,-1
 570 1100 l 17,4,5
 719 1318 719 1318 794 1530 c 1,0,-1
508 1530 m 1,6,-1
 718 1530 l 1,7,8
 537 1317 537 1317 434 1100 c 9,9,-1
 284 1100 l 17,10,11
 433 1318 433 1318 508 1530 c 1,6,-1
EndSplineSet
Validated: 1
EndChar

StartChar: guilsinglleft
Encoding: 8249 8249 149
Width: 895
GlyphClass: 2
Flags: W
DStem2: 443 747 259 747 0.456869 -0.889534<0 478.587> 259 747 443 747 0.684436 0.729073<125.936 680.59>
LayerCount: 2
Fore
SplineSet
704 1270 m 1,0,-1
 965 1270 l 1,1,2
 823 1151 823 1151 719 1041 c 2,3,-1
 443 747 l 1,4,-1
 594 453 l 2,5,6
 649 346 649 346 743 224 c 1,7,-1
 482 224 l 1,8,9
 450 368 450 368 390 487 c 2,10,-1
 259 747 l 1,11,-1
 500 1007 l 2,12,13
 610 1126 610 1126 704 1270 c 1,0,-1
EndSplineSet
Validated: 1
EndChar

StartChar: guilsinglright
Encoding: 8250 8250 150
Width: 895
GlyphClass: 2
Flags: W
DStem2: 493 453 713 487 0.685751 0.727836<-150.415 403.937> 954 747 618 1041 0.459259 -0.888303<-562.543 -84.5036>
LayerCount: 2
Fore
SplineSet
470 1270 m 1,0,-1
 731 1270 l 1,1,2
 763 1126 763 1126 823 1007 c 2,3,-1
 954 747 l 1,4,-1
 713 487 l 2,5,6
 603 368 603 368 509 224 c 1,7,-1
 248 224 l 1,8,9
 393 346 393 346 493 453 c 2,10,-1
 770 747 l 1,11,-1
 618 1041 l 2,12,13
 562 1151 562 1151 470 1270 c 1,0,-1
EndSplineSet
Validated: 1
EndChar

StartChar: fraction
Encoding: 8260 8260 151
Width: 940
GlyphClass: 2
Flags: W
HStem: 0 21G<10 269.5> 1490 20G<996 1251>
DStem2: 868 1225 1042 1251 0.557671 0.830062<-1366.16 321.489>
LayerCount: 2
Fore
SplineSet
10 0 m 1,0,1
 123 116 123 116 219 259 c 10,2,-1
 868 1225 l 2,3,4
 963 1367 963 1367 1029 1510 c 1,5,-1
 1251 1510 l 1,6,7
 1138 1394 1138 1394 1042 1251 c 2,8,-1
 393 285 l 2,9,10
 307 156 307 156 232 0 c 1,11,-1
 10 0 l 1,0,1
EndSplineSet
Validated: 1
EndChar

StartChar: Euro
Encoding: 8364 8364 152
Width: 1727
GlyphClass: 2
Flags: W
HStem: -20 126<820.439 1263.08> 549 174<250.952 338.124 724.766 1203.05> 579 114<575 1195.47> 785 174<300.952 370.24 772.203 1253.05> 815 114<639 1245.47> 1404 126<1076.95 1511.83>
VStem: 340 226<359.274 568 706 801.281>
LayerCount: 2
Fore
SplineSet
1010 -20 m 0,0,1
 650 -20 650 -20 476 183 c 0,2,3
 340 342 340 342 340 568 c 1,4,5
 280 561 280 561 217 549 c 1,6,-1
 254 723 l 1,7,8
 301 713 301 713 352 706 c 1,9,10
 356 730 356 730 361 755 c 0,11,12
 366 779 366 779 372 802 c 1,13,14
 318 795 318 795 267 785 c 1,15,-1
 304 959 l 1,16,17
 361 947 361 947 419 940 c 1,18,19
 515 1170 515 1170 719 1327 c 0,20,21
 983 1530 983 1530 1339 1530 c 0,22,23
 1616 1530 1616 1530 1805 1402 c 1,24,-1
 1740 1098 l 1,25,-1
 1730 1098 l 1,26,27
 1614 1404 1614 1404 1312 1404 c 0,28,29
 1044 1404 1044 1404 824 1198 c 0,30,31
 706 1088 706 1088 639 929 c 1,32,-1
 980 929 l 2,33,34
 1128 929 1128 929 1287 959 c 1,35,-1
 1250 785 l 1,36,37
 1105 815 1105 815 956 815 c 2,38,-1
 601 815 l 1,39,40
 593 786 593 786 587 756 c 0,41,42
 580 724 580 724 575 693 c 1,43,-1
 930 693 l 2,44,45
 1078 693 1078 693 1237 723 c 1,46,-1
 1200 549 l 1,47,48
 1055 579 1055 579 906 579 c 2,49,-1
 566 579 l 1,50,51
 566 424 566 424 635 312 c 0,52,53
 763 106 763 106 1037 106 c 0,54,55
 1348 106 1348 106 1605 412 c 1,56,-1
 1615 412 l 1,57,-1
 1563 168 l 1,58,59
 1310 -20 1310 -20 1010 -20 c 0,0,1
EndSplineSet
Validated: 1
EndChar

StartChar: afii61248
Encoding: 8453 8453 153
Width: 2007
GlyphClass: 2
Flags: W
HStem: -20 101<1348.3 1619.35> 0 21G<530 789.5> 690 102<1458.04 1732.02> 717 101<602.577 888.941> 1427 103<712.702 1014.54> 1490 20G<1516 1771>
VStem: 379 151<893.688 1223.16> 1131 149<152.969 484.201> 1799 151<284.09 619.91>
DStem2: 1388 1225 1562 1251 0.557671 0.830062<-1366.13 321.464>
LayerCount: 2
Fore
SplineSet
1455 -20 m 0,0,1
 1286 -20 1286 -20 1196 99 c 0,2,3
 1131 185 1131 185 1131 295 c 0,4,5
 1131 339 1131 339 1141 386 c 0,6,7
 1178 560 1178 560 1316 676 c 0,8,9
 1455 792 1455 792 1624.5 792 c 128,-1,10
 1794 792 1794 792 1884 673 c 0,11,12
 1950 587 1950 587 1950 478 c 0,13,14
 1950 434 1950 434 1939 386 c 0,15,16
 1901 213 1901 213 1764 96 c 0,17,18
 1627 -20 1627 -20 1455 -20 c 0,0,1
1475 81 m 128,-1,20
 1588 81 1588 81 1680 175 c 0,21,22
 1763 261 1763 261 1790 386 c 0,23,24
 1799 430 1799 430 1799 470 c 0,25,26
 1799 540 1799 540 1770 596 c 0,27,28
 1720 690 1720 690 1605 690 c 0,29,30
 1489 690 1489 690 1400 596 c 0,31,32
 1316 508 1316 508 1290 386 c 0,33,34
 1280 340 1280 340 1280 300 c 0,35,36
 1280 230 1280 230 1310 175 c 0,37,19
 1362 81 1362 81 1475 81 c 128,-1,20
1034 971 m 1,38,-1
 1003 821 l 1,39,40
 882 717 882 717 720 717 c 0,41,42
 533 717 533 717 443 835 c 0,43,44
 379 921 379 921 379 1031 c 0,45,46
 379 1075 379 1075 389 1123 c 0,47,48
 425 1291 425 1291 566 1410 c 0,49,50
 709 1530 709 1530 892 1530 c 0,51,52
 1046 1530 1046 1530 1129 1476 c 1,53,-1
 1087 1281 l 1,54,-1
 1077 1281 l 1,55,56
 1071 1304 1071 1304 1056 1332 c 0,57,58
 1005 1427 1005 1427 870 1427 c 0,59,60
 742 1427 742 1427 651 1332 c 0,61,62
 563 1239 563 1239 538 1122 c 0,63,64
 530 1082 530 1082 530 1045 c 0,65,66
 530 973 530 973 562 913 c 0,67,68
 615 818 615 818 741 818 c 0,69,70
 877 818 877 818 1024 971 c 1,71,-1
 1034 971 l 1,38,-1
530 0 m 1,72,73
 643 116 643 116 739 259 c 10,74,-1
 1388 1225 l 2,75,76
 1483 1366 1483 1366 1549 1510 c 1,77,-1
 1771 1510 l 1,78,79
 1658 1394 1658 1394 1562 1251 c 2,80,-1
 913 285 l 2,81,82
 827 157 827 157 752 0 c 1,83,-1
 530 0 l 1,72,73
EndSplineSet
Validated: 1
EndChar

StartChar: afii61289
Encoding: 8467 8467 154
Width: 958
GlyphClass: 2
Flags: W
HStem: -20 136<493.285 609.793> 0 21G<50 267.222> 1510 20G<957 1028>
LayerCount: 2
Fore
SplineSet
486 466 m 1,0,1
 648 708 648 708 737 860 c 0,2,3
 896 1134 896 1134 944 1359 c 1,4,5
 826 1238 826 1238 730 1067 c 0,6,7
 544 740 544 740 486 466 c 1,0,1
50 0 m 1,8,9
 205 158 205 158 304 282 c 1,10,11
 310 366 310 366 326 443 c 0,12,13
 366 629 366 629 459 848 c 0,14,15
 633 1251 633 1251 822 1434 c 0,16,17
 920 1530 920 1530 994 1530 c 0,18,19
 1062 1530 1062 1530 1086 1479 c 0,20,21
 1099 1453 1099 1453 1099 1410 c 0,22,23
 1099 1371 1099 1371 1088 1318 c 0,24,25
 1068 1226 1068 1226 1006 1072 c 0,26,27
 862 722 862 722 480 271 c 1,28,29
 480 116 480 116 536 116 c 0,30,31
 560 116 560 116 593.5 145 c 128,-1,32
 627 174 627 174 664 228 c 1,33,-1
 840 228 l 1,34,35
 736 100 736 100 659 40 c 128,-1,36
 582 -20 582 -20 498 -20 c 0,37,38
 378 -20 378 -20 324 90 c 1,39,-1
 251 0 l 1,40,-1
 50 0 l 1,8,9
EndSplineSet
Validated: 1
EndChar

StartChar: trademark
Encoding: 8482 8482 155
Width: 1844
GlyphClass: 2
Flags: W
HStem: 1409 121<375 567.312 715.688 927.08> 1428 102<375 568 702.917 921.037>
VStem: 408 179<755 874.2> 568 147<1230.78 1428> 849 150<755 846.732> 1085 143<1323.28 1530> 1244 135<755 841.899>
DStem2: 428.928 755 568.928 755 0.207912 0.978148<35.4328 686.18> 920 920 1030 924 0.288335 0.95753<-133.836 405.653> 1247 1376 1138 1278 0.240014 -0.97077<68.9739 466.533> 1359 923 1465 909 0.563507 0.826112<2.5548 493.014> 1668 924 1805 920 0.120465 0.992718<-69.1012 357.715>
LayerCount: 2
Fore
SplineSet
1085 1530 m 1,0,-1
 1228 1530 l 1,1,2
 1229 1453 1229 1453 1247 1376 c 2,3,-1
 1359 923 l 1,4,-1
 1668 1376 l 2,5,6
 1705 1429 1705 1429 1754 1530 c 1,7,-1
 1898 1530 l 1,8,9
 1882 1488 1882 1488 1868 1423 c 0,10,11
 1863 1398 1863 1398 1859 1365 c 2,12,-1
 1805 920 l 2,13,14
 1800 881 1800 881 1800 837 c 0,15,16
 1800 798 1800 798 1804 755 c 1,17,-1
 1628 755 l 1,18,19
 1646 806 1646 806 1658 860 c 0,20,21
 1665 891 1665 891 1668 924 c 2,22,-1
 1712 1279 l 1,23,-1
 1465 909 l 2,24,25
 1418 838 1418 838 1379 755 c 1,26,-1
 1244 755 l 1,27,28
 1240 847 1240 847 1225 909 c 2,29,-1
 1138 1278 l 1,30,-1
 1030 924 l 2,31,32
 1023 900 1023 900 1015 860 c 0,33,34
 1002 800 1002 800 999 755 c 1,35,-1
 849 755 l 1,36,37
 892 830 892 830 920 920 c 2,38,-1
 1054 1365 l 2,39,40
 1061 1389 1061 1389 1068 1423 c 0,41,42
 1076 1458 1076 1458 1085 1530 c 1,0,-1
375 1530 m 1,43,-1
 950 1530 l 1,44,-1
 924 1409 l 1,45,46
 829 1428 829 1428 759 1428 c 2,47,-1
 715 1428 l 1,48,49
 705 1395 705 1395 698 1362 c 2,50,-1
 604 920 l 2,51,52
 587 839 587 839 587 755 c 1,53,-1
 408 755 l 1,54,55
 445 834 445 834 464 920 c 2,56,-1
 558 1362 l 2,57,58
 565 1395 565 1395 568 1428 c 1,59,-1
 524 1428 l 2,60,61
 452 1428 452 1428 349 1409 c 1,62,-1
 375 1530 l 1,43,-1
EndSplineSet
Validated: 1
EndChar

StartChar: uni2126
Encoding: 8486 8486 156
Width: 1806
GlyphClass: 2
Flags: W
HStem: 0 180<84.9735 462.719 1407.28 1756> 0 150<92.4399 464 1406 1756> 1404 126<983.834 1401.26>
VStem: 285 220<354.782 843.829> 1624 225<674.651 1166.83>
LayerCount: 2
Fore
SplineSet
50 0 m 1,0,-1
 88 180 l 1,1,2
 230 150 230 150 382 150 c 2,3,-1
 464 150 l 1,4,5
 442 172 442 172 421 197 c 0,6,7
 285 369 285 369 285 588 c 0,8,9
 285 668 285 668 303 755 c 0,10,11
 379 1113 379 1113 658 1327 c 0,12,13
 922 1530 922 1530 1228 1530 c 128,-1,14
 1534 1530 1534 1530 1712 1327 c 0,15,16
 1849 1171 1849 1171 1849 946 c 0,17,18
 1849 856 1849 856 1827 755 c 0,19,20
 1759 437 1759 437 1469 197 c 0,21,22
 1439 172 1439 172 1406 150 c 1,23,-1
 1488 150 l 2,24,25
 1641 150 1641 150 1794 180 c 1,26,-1
 1756 0 l 1,27,-1
 1074 0 l 1,28,-1
 1106 150 l 1,29,30
 1277 211 1277 211 1370 306 c 24,31,32
 1544 484 1544 484 1602 755 c 0,33,34
 1623 855 1623 855 1624 942 c 0,35,36
 1624 1092 1624 1092 1561 1204 c 0,37,38
 1450 1404 1450 1404 1201 1404 c 0,39,40
 955 1404 955 1404 759 1204 c 0,41,42
 584 1026 584 1026 526 755 c 0,43,44
 505 655 505 655 505 568 c 0,45,46
 505 418 505 418 568 306 c 0,47,48
 620 213 620 213 765 150 c 1,49,-1
 733 0 l 1,50,-1
 50 0 l 1,0,-1
EndSplineSet
Validated: 1
EndChar

StartChar: estimated
Encoding: 8494 8494 157
Width: 1330
GlyphClass: 2
Flags: W
HStem: -20 92<474.816 877.985> 525 80<477 1112> 1036 84<679.003 1065.2>
LayerCount: 2
Fore
SplineSet
1147 204 m 1,0,1
 1046 103 1046 103 964 58 c 0,2,3
 821 -20 821 -20 661 -20 c 0,4,5
 405 -20 405 -20 286 139 c 0,6,7
 201 252 201 252 201 407 c 0,8,9
 201 474 201 474 217 550 c 0,10,11
 268 788 268 788 451 952 c 24,12,13
 640 1120 640 1120 904 1120 c 0,14,15
 1153 1120 1153 1120 1269 964 c 272,16,17
 1359 843 1359 843 1359 677 c 0,18,19
 1359 605 1359 605 1342 525 c 1,20,-1
 460 525 l 1,21,-1
 389 192 l 1,22,23
 474 72 474 72 681 72 c 256,24,25
 804 72 804 72 908 132 c 0,26,27
 1001 186 1001 186 1068 266 c 1,28,-1
 1147 204 l 1,0,1
477 605 m 1,29,-1
 1112 605 l 1,30,-1
 1175 903 l 1,31,32
 1072 1036 1072 1036 886 1036 c 0,33,34
 695 1036 695 1036 542 914 c 1,35,-1
 477 605 l 1,29,-1
EndSplineSet
Validated: 1
EndChar

StartChar: partialdiff
Encoding: 8706 8706 158
Width: 1285
GlyphClass: 2
Flags: W
HStem: -20 153<437.241 699.292> 870 170<722.652 999.301> 1378 152<776.721 1115.99>
VStem: 214 191<164.14 478.052> 1178 184<934.086 1313.68>
LayerCount: 2
Fore
SplineSet
508 -20 m 0,0,1
 214 -20 214 -20 214 240 c 0,2,3
 214 300 214 300 230 375 c 0,4,5
 284 631 284 631 459 815 c 0,6,7
 675 1040 675 1040 893 1040 c 0,8,9
 1080 1040 1080 1040 1150 930 c 1,10,11
 1178 1063 1178 1063 1178 1153 c 0,12,13
 1178 1202 1178 1202 1170 1239 c 0,14,15
 1139 1378 1139 1378 971 1378 c 0,16,17
 840 1378 840 1378 695 1294 c 1,18,-1
 732 1468 l 1,19,20
 879 1530 879 1530 1028 1530 c 0,21,22
 1362 1530 1362 1530 1362 1173 c 0,23,24
 1362 1069 1362 1069 1334 934 c 0,25,26
 1251 545 1251 545 1022.5 262.5 c 128,-1,27
 794 -20 794 -20 508 -20 c 0,0,1
553 133 m 0,28,29
 691 133 691 133 833 286 c 128,-1,30
 975 439 975 439 1065 680 c 1,31,32
 1061 765 1061 765 1008.5 817.5 c 128,-1,33
 956 870 956 870 880 870 c 0,34,35
 720 870 720 870 587.5 710 c 128,-1,36
 455 550 455 550 416 369 c 0,37,38
 405 319 405 319 405 280 c 0,39,40
 405 133 405 133 553 133 c 0,28,29
EndSplineSet
Validated: 1
EndChar

StartChar: uni2206
Encoding: 8710 8710 159
Width: 1590
GlyphClass: 2
Flags: W
HStem: 0 124<290 1312> 1490 20G<987 1211>
DStem2: 864 1225 1043 1268 0.554505 0.832181<-1229.53 132.239> 1246 1225 1043 1268 0.238116 -0.971237<-88.0144 1080.91>
LayerCount: 2
Fore
SplineSet
5 0 m 1,0,1
 125 127 125 127 214 259 c 2,2,-1
 864 1225 l 2,3,4
 949 1351 949 1351 1025 1510 c 1,5,-1
 1207 1510 l 1,6,7
 1215 1351 1215 1351 1246 1225 c 2,8,-1
 1486 259 l 2,9,10
 1517 136 1517 136 1585 0 c 1,11,-1
 5 0 l 1,0,1
290 124 m 1,12,-1
 1312 124 l 1,13,14
 1302 212 1302 212 1284 285 c 2,15,-1
 1043 1268 l 1,16,-1
 388 285 l 2,17,18
 333 203 333 203 290 124 c 1,12,-1
EndSplineSet
Validated: 1
EndChar

StartChar: product
Encoding: 8719 8719 160
Width: 1549
GlyphClass: 2
Flags: W
HStem: -410 21G<83 344 1032 1293> 1386 124<690.424 1436>
VStem: 83 260<-410 -292.812> 1032 260<-410 -292.812>
DStem2: 112.658 -410 312.658 -410 0.207912 0.978148<52.4903 1876.5> 1062.23 -410 1262.23 -410 0.207912 0.978148<52.3708 1831.58>
LayerCount: 2
Fore
SplineSet
83 -410 m 1,0,1
 145 -260 145 -260 177 -110 c 2,2,-1
 457 1210 l 2,3,4
 489 1360 489 1360 491 1510 c 1,5,-1
 1700 1510 l 1,6,7
 1638 1360 1638 1360 1606 1210 c 2,8,-1
 1326 -110 l 2,9,10
 1294 -260 1294 -260 1292 -410 c 1,11,-1
 1032 -410 l 1,12,13
 1094 -260 1094 -260 1126 -110 c 2,14,-1
 1406 1210 l 2,15,16
 1424 1294 1424 1294 1436 1386 c 1,17,-1
 703 1386 l 17,18,19
 675 1294 675 1294 657 1210 c 2,20,-1
 377 -110 l 2,21,22
 345 -260 345 -260 343 -410 c 1,23,-1
 83 -410 l 1,0,1
EndSplineSet
Validated: 1
EndChar

StartChar: summation
Encoding: 8721 8721 161
Width: 1278
GlyphClass: 2
Flags: W
HStem: -410 124<352 1091> 1356 154<877.5 1374.07> 1386 124<677 1368.01>
DStem2: 222 -151 352 -286 0.560737 0.827994<-35.941 850.888>
LayerCount: 2
Fore
SplineSet
13 -410 m 1,0,1
 144 -268 144 -268 222 -151 c 2,2,-1
 694 557 l 25,3,-1
 520 1251 l 2,4,5
 482 1402 482 1402 421 1510 c 1,6,-1
 1404 1510 l 1,7,-1
 1371 1356 l 1,8,9
 1276 1386 1276 1386 1078 1386 c 2,10,-1
 677 1386 l 1,11,-1
 908 535 l 1,12,-1
 352 -286 l 1,13,-1
 817 -286 l 2,14,15
 977 -286 977 -286 1124 -256 c 1,16,-1
 1091 -410 l 1,17,-1
 13 -410 l 1,0,1
EndSplineSet
Validated: 1
EndChar

StartChar: uni2215
Encoding: 8725 8725 162
Width: 940
GlyphClass: 2
Flags: W
HStem: 0 21G<10 269.5> 1490 20G<996 1251>
DStem2: 868 1225 1042 1251 0.557671 0.830062<-1366.16 321.489>
LayerCount: 2
Fore
SplineSet
10 0 m 1,0,1
 123 116 123 116 219 259 c 10,2,-1
 868 1225 l 2,3,4
 963 1367 963 1367 1029 1510 c 1,5,-1
 1251 1510 l 1,6,7
 1138 1394 1138 1394 1042 1251 c 2,8,-1
 393 285 l 2,9,10
 307 156 307 156 232 0 c 1,11,-1
 10 0 l 1,0,1
EndSplineSet
Validated: 1
EndChar

StartChar: uni2219
Encoding: 8729 8729 163
Width: 660
GlyphClass: 2
Flags: W
HStem: 624 264<412.164 569.692>
VStem: 357 267<678.18 833.617>
LayerCount: 2
Fore
SplineSet
519 888 m 0,0,1
 575 888 575 888 603 850 c 0,2,3
 624 822 624 822 624 786 c 0,4,5
 624 768 624 768 621 756 c 0,6,7
 607 700 607 700 563 662 c 0,8,9
 518 624 518 624 463 624 c 0,10,11
 409 624 409 624 379 662 c 0,12,13
 357 690 357 690 357 727 c 0,14,15
 357 739 357 739 361 756 c 0,16,17
 374 812 374 812 419 850 c 128,-1,18
 464 888 464 888 519 888 c 0,0,1
EndSplineSet
Validated: 1
EndChar

StartChar: radical
Encoding: 8730 8730 164
Width: 1278
GlyphClass: 2
Flags: W
HStem: 0 21G<421 601> 1490 20G<1348.5 1599>
VStem: 218 231<695.61 792> 421 146<0 91.8555>
DStem2: 553 246 317 533 0.238155 -0.971227<-550.806 -2.97159> 553 246 728 285 0.560531 0.828134<2.17037 1504.24>
LayerCount: 2
Fore
SplineSet
421 0 m 1,0,1
 421 136 421 136 382 285 c 2,2,-1
 317 533 l 2,3,4
 286 651 286 651 218 792 c 1,5,-1
 449 792 l 1,6,7
 453 653 453 653 489 507 c 2,8,-1
 553 246 l 9,9,-1
 1217 1227 l 2,10,11
 1320 1379 1320 1379 1377 1510 c 1,12,-1
 1599 1510 l 1,13,14
 1477 1380 1477 1380 1390 1253 c 2,15,-1
 728 285 l 2,16,17
 635 149 635 149 567 0 c 1,18,-1
 421 0 l 1,0,1
EndSplineSet
Validated: 1
EndChar

StartChar: infinity
Encoding: 8734 8734 165
Width: 1479
GlyphClass: 2
Flags: W
HStem: 430 134<492.234 731.041 1007.23 1246.04> 945 135<553.959 792.668 1068.96 1307.67>
VStem: 306 148<612.424 844.121> 831 138<664.438 845.781> 1346 148<663.828 887.902>
CounterMasks: 1 38
LayerCount: 2
Fore
SplineSet
602 564 m 0,0,1
 680 564 680 564 746 620 c 0,2,3
 808 673 808 673 826 755 c 0,4,5
 827 760 827 760 828 764 c 0,6,7
 831 784 831 784 831 803 c 0,8,9
 831 854 831 854 803 889 c 0,10,11
 759 945 759 945 683 945 c 0,12,13
 605 945 605 945 539 889 c 0,14,15
 477 837 477 837 460 755 c 0,16,17
 454 729 454 729 454 706 c 0,18,19
 454 655 454 655 482 620 c 0,20,21
 525 564 525 564 602 564 c 0,0,1
683 1080 m 0,22,23
 838 1080 838 1080 916 987 c 0,24,25
 926 975 926 975 934 963 c 1,26,27
 950 979 950 979 968 994 c 0,28,29
 1070 1080 1070 1080 1198 1080 c 0,30,31
 1353 1080 1353 1080 1431 987 c 0,32,33
 1494 911 1494 911 1494 813 c 0,34,35
 1494 785 1494 785 1489 755 c 0,36,37
 1465 615 1465 615 1347 516 c 0,38,39
 1245 430 1245 430 1117 430 c 0,40,41
 962 430 962 430 884 523 c 0,42,43
 874 535 874 535 866 547 c 1,44,45
 850 531 850 531 832 516 c 0,46,47
 730 430 730 430 602 430 c 0,48,49
 447 430 447 430 369 523 c 0,50,51
 306 598 306 598 306 696 c 0,52,53
 306 724 306 724 311 755 c 0,54,55
 335 895 335 895 453 994 c 0,56,57
 555 1080 555 1080 683 1080 c 0,22,23
1117 564 m 0,58,59
 1195 564 1195 564 1261 620 c 0,60,61
 1323 673 1323 673 1341 755 c 0,62,63
 1346 780 1346 780 1346 803 c 0,64,65
 1346 854 1346 854 1318 889 c 0,66,67
 1274 945 1274 945 1198 945 c 0,68,69
 1120 945 1120 945 1054 889 c 0,70,71
 992 837 992 837 975 755 c 0,72,73
 969 729 969 729 969 706 c 0,74,75
 969 655 969 655 997 620 c 0,76,77
 1040 564 1040 564 1117 564 c 0,58,59
EndSplineSet
Validated: 1
EndChar

StartChar: approxequal
Encoding: 8776 8776 166
Width: 1106
GlyphClass: 2
Flags: W
HStem: 354 168<784.527 990.118> 562 168<345.261 551.473> 748 168<868.527 1074.12> 956 168<429.261 635.473>
DStem2: 225 354 235 354 0.207912 0.978148<2.07912 22.4789 404.934 425.334> 690 654 552 518 0.730021 -0.683424<-106.825 227.791> 774 1048 636 912 0.730021 -0.683424<-106.825 227.791> 1021.08 354 1031.33 354 0.207912 0.978148<364 384.4 766.855 787.255>
LayerCount: 2
Fore
SplineSet
290 661 m 1,0,1
 392 730 392 730 503 730 c 0,2,3
 608 730 608 730 690 654 c 2,4,-1
 784 566 l 2,5,6
 831 522 831 522 880 522 c 272,7,8
 1011 522 1011 522 1101 730 c 1,9,-1
 1111 730 l 1,10,-1
 1046 423 l 1,11,12
 949 354 949 354 833 354 c 0,13,14
 728 354 728 354 646 430 c 2,15,-1
 552 518 l 2,16,17
 505 562 505 562 456 562 c 272,18,19
 325 562 325 562 235 354 c 1,20,-1
 225 354 l 1,21,-1
 290 661 l 1,0,1
374 1055 m 1,22,23
 476 1124 476 1124 587 1124 c 0,24,25
 692 1124 692 1124 774 1048 c 2,26,-1
 868 960 l 2,27,28
 915 916 915 916 964 916 c 272,29,30
 1095 916 1095 916 1185 1124 c 1,31,-1
 1195 1124 l 1,32,-1
 1130 817 l 1,33,34
 1033 748 1033 748 917 748 c 0,35,36
 812 748 812 748 730 824 c 2,37,-1
 636 912 l 2,38,39
 589 956 589 956 540 956 c 272,40,41
 409 956 409 956 319 748 c 1,42,-1
 309 748 l 1,43,-1
 374 1055 l 1,22,23
EndSplineSet
Validated: 1
EndChar

StartChar: notequal
Encoding: 8800 8800 167
Width: 1290
GlyphClass: 2
Flags: W
HStem: 454 214<366.985 453.061 779.859 1161.01> 484 154<778 1153.78> 822 214<444.985 827.125 1152 1239.01> 852 154<452.501 829>
DStem2: 455 473 593 451 0.703126 0.711065<-245.887 0 344.436 532.463 874.781 1126.16>
LayerCount: 2
Fore
SplineSet
448 1036 m 1,0,1
 592 1006 592 1006 742 1006 c 2,2,-1
 982 1006 l 1,3,-1
 1016 1041 l 2,4,5
 1145 1171 1145 1171 1231 1296 c 1,6,-1
 1465 1296 l 1,7,8
 1332 1201 1332 1201 1211 1078 c 2,9,-1
 1150 1016 l 1,10,11
 1214 1023 1214 1023 1281 1036 c 1,12,-1
 1236 822 l 1,13,14
 1113 847 1113 847 988 851 c 1,15,-1
 778 638 l 1,16,-1
 897 638 l 2,17,18
 1045 638 1045 638 1203 668 c 1,19,-1
 1158 454 l 1,20,21
 1023 484 1023 484 864 484 c 2,22,-1
 626 484 l 1,23,-1
 593 451 l 2,24,25
 477 333 477 333 378 196 c 1,26,-1
 142 196 l 1,27,28
 291 307 291 307 396 414 c 2,29,-1
 455 473 l 1,30,31
 393 466 393 466 325 454 c 1,32,-1
 370 668 l 1,33,34
 492 643 492 643 619 639 c 1,35,-1
 829 852 l 1,36,-1
 709 852 l 2,37,38
 559 852 559 852 403 822 c 1,39,-1
 448 1036 l 1,0,1
EndSplineSet
Validated: 1
EndChar

StartChar: lessequal
Encoding: 8804 8804 168
Width: 1250
GlyphClass: 2
Flags: W
HStem: 120 214<217.985 1079.01> 150 154<225.501 1071.47>
DStem2: 571 876 583 697 0.883851 -0.467769<4.21361 662.18> 664 1079 571 876 0.928477 0.371391<-161.451 602.487>
LayerCount: 2
Fore
SplineSet
221 334 m 1,0,1
 365 304 365 304 515 304 c 2,2,-1
 815 304 l 2,3,4
 963 304 963 304 1121 334 c 1,5,-1
 1076 120 l 1,6,7
 931 150 931 150 782 150 c 2,8,-1
 482 150 l 2,9,10
 332 150 332 150 176 120 c 1,11,-1
 221 334 l 1,0,1
319 797 m 1,12,-1
 358 979 l 1,13,14
 506 1010 506 1010 664 1079 c 2,15,-1
 1056 1249 l 2,16,17
 1211 1317 1211 1317 1348 1403 c 1,18,-1
 1293 1142 l 1,19,20
 1139 1103 1139 1103 986 1042 c 2,21,-1
 571 876 l 25,22,-1
 913 695 l 2,23,24
 1047 624 1047 624 1176 595 c 1,25,-1
 1129 373 l 1,26,27
 1020 465 1020 465 903 527 c 2,28,-1
 583 697 l 2,29,30
 463 761 463 761 319 797 c 1,12,-1
EndSplineSet
Validated: 1
EndChar

StartChar: greaterequal
Encoding: 8805 8805 169
Width: 1250
GlyphClass: 2
Flags: W
HStem: 120 214<267.985 1129.01> 150 154<275.501 1121.47>
DStem2: 724 1249 715 1081 0.883283 -0.46884<-205.236 452.862> 1056 900 571 527 0.928477 0.371391<-763.202 -0.290058>
LayerCount: 2
Fore
SplineSet
271 334 m 1,0,1
 415 304 415 304 565 304 c 2,2,-1
 865 304 l 2,3,4
 1013 304 1013 304 1171 334 c 1,5,-1
 1126 120 l 1,6,7
 981 150 981 150 832 150 c 2,8,-1
 532 150 l 2,9,10
 382 150 382 150 226 120 c 1,11,-1
 271 334 l 1,0,1
498 1403 m 1,12,13
 607 1311 607 1311 724 1249 c 2,14,-1
 1044 1079 l 2,15,16
 1165 1015 1165 1015 1308 979 c 1,17,-1
 1269 797 l 1,18,19
 1121 766 1121 766 963 697 c 2,20,-1
 571 527 l 2,21,22
 419 461 419 461 279 373 c 1,23,-1
 335 634 l 1,24,25
 492 674 492 674 641 734 c 2,26,-1
 1056 900 l 25,27,-1
 715 1081 l 2,28,29
 581 1152 581 1152 451 1181 c 1,30,-1
 498 1403 l 1,12,13
EndSplineSet
Validated: 1
EndChar

StartChar: lozenge
Encoding: 9674 9674 170
Width: 1134
GlyphClass: 2
Flags: W
HStem: -20 21G<554.926 579.531> 1510 20G<875.965 899.605>
DStem2: 257 738 444 764 0.625536 0.780196<137.26 717.758> 444 764 257 738 0.374342 -0.927291<0 534.609> 641 267 563 -20 0.637091 0.770789<0 572.354> 892 1530 807 1217 0.355404 -0.934713<262.356 803.334>
LayerCount: 2
Fore
SplineSet
641 267 m 1,0,-1
 1001 712 l 1,1,-1
 807 1217 l 1,2,-1
 444 764 l 1,3,-1
 641 267 l 1,0,-1
563 -20 m 1,4,-1
 257 738 l 1,5,-1
 892 1530 l 1,6,-1
 1192 741 l 1,7,-1
 563 -20 l 1,4,-1
EndSplineSet
Validated: 1
EndChar

StartChar: four
Encoding: 52 52 171
Width: 1238
Flags: W
HStem: 0 21G<749 1000> 360 154<1075.47 1195> 360 124<300 856 1073 1195> 1530 20G<1199.5 1299>
VStem: 749 250<0 120.469>
DStem2: 362 711 300 484 0.682673 0.730724<-204.691 890.224> 779.48 0 969.48 0 0.207912 0.978148<50.2404 368.043 541.297 1318.68>
LayerCount: 2
Fore
SplineSet
749 0 m 1,0,1
 814 167 814 167 843 300 c 2,2,-1
 856 360 l 1,3,-1
 140 360 l 1,4,-1
 123 484 l 1,5,6
 243 585 243 585 362 711 c 2,7,-1
 867 1247 l 2,8,9
 986 1373 986 1373 1070 1510 c 1,10,-1
 1329 1550 l 17,11,12
 1269 1408 1269 1408 1236 1250 c 2,13,-1
 1073 491 l 1,14,15
 1152 499 1152 499 1227 514 c 1,16,-1
 1195 360 l 1,17,-1
 1046 360 l 1,18,-1
 1033 300 l 2,19,20
 1001 150 1001 150 999 0 c 1,21,-1
 749 0 l 1,0,1
882 484 m 1,22,-1
 1053 1290 l 1,23,-1
 300 484 l 1,24,-1
 882 484 l 1,22,-1
EndSplineSet
Validated: 1
EndChar

StartChar: ampersand
Encoding: 38 38 172
Width: 1694
Flags: W
HStem: -20 124<554.901 939.482> 0 21G<1316 1614> 775 155<758.112 982.318> 1406 124<788.01 1061.56>
VStem: 235 216<207.011 544.75> 486 184<1011.71 1279.44>
DStem2: 1226 694 1023 679 0.458643 -0.888621<-196.012 192.315> 1314 523 1363 428 0.612425 0.790529<0 477.629>
LayerCount: 2
Fore
SplineSet
1196 349 m 1,0,-1
 1023 679 l 2,1,2
 972 775 972 775 854 775 c 0,3,4
 721 775 721 775 600 676 c 0,5,6
 491 587 491 587 462 450 c 0,7,8
 451 400 451 400 451 357 c 0,9,10
 451 265 451 265 499 203 c 0,11,12
 574 104 574 104 713 104 c 0,13,14
 867 104 867 104 984 166 c 0,15,16
 1087 220 1087 220 1196 349 c 1,0,-1
1614 0 m 1,17,-1
 1323 0 l 1,18,19
 1309 128 1309 128 1245 255 c 1,20,21
 1159 158 1159 158 1069 94 c 0,22,23
 909 -20 909 -20 686 -20 c 0,24,25
 446 -20 446 -20 333 106 c 0,26,27
 235 215 235 215 235 354 c 0,28,29
 235 400 235 400 246 450 c 0,30,31
 288 646 288 646 472 770 c 0,32,33
 564 832 564 832 689 850 c 1,34,35
 486 933 486 933 486 1107 c 0,36,37
 486 1142 486 1142 494 1180 c 0,38,39
 532 1360 532 1360 702 1465 c 0,40,41
 807 1530 807 1530 971 1530 c 0,42,43
 1105 1530 1105 1530 1201 1474 c 1,44,-1
 1148 1223 l 1,45,-1
 1138 1223 l 1,46,47
 1086 1406 1086 1406 945 1406 c 0,48,49
 846 1406 846 1406 783 1358 c 0,50,51
 701 1296 701 1296 676 1179 c 0,52,53
 670 1153 670 1153 670 1128 c 0,54,55
 670 1065 670 1065 708 1018 c 0,56,57
 778 930 778 930 945 930 c 2,58,-1
 1125 930 l 1,59,60
 1158 826 1158 826 1226 694 c 2,61,-1
 1314 523 l 1,62,-1
 1410 646 l 2,63,64
 1533 803 1533 803 1575 930 c 1,65,-1
 1782 930 l 1,66,67
 1648 796 1648 796 1559 681 c 2,68,-1
 1363 428 l 1,69,-1
 1466 229 l 2,70,71
 1527 112 1527 112 1614 0 c 1,17,-1
EndSplineSet
Validated: 1
EndChar

StartChar: AE
Encoding: 198 198 173
Width: 1842
Flags: W
HStem: 0 124<1198 1742> 697 124<822 1122 1339 1759.5> 1356 154<1471.31 1913.07> 1386 124<1455.6 1905.5>
DStem2: 233 260 418 282 0.599735 0.800199<-206.713 652.553 802.155 1540.53> 974.233 0 1164.23 0 0.207912 0.978148<171.305 712.491 878.898 1449.39>
LayerCount: 2
Fore
SplineSet
5 0 m 1,0,1
 138 134 138 134 233 260 c 2,2,-1
 957 1226 l 2,3,4
 1066 1372 1066 1372 1142 1510 c 1,5,-1
 1943 1510 l 1,6,-1
 1910 1356 l 1,7,8
 1766 1386 1766 1386 1617 1386 c 2,9,-1
 1469 1386 l 1,10,11
 1439 1294 1439 1294 1421 1210 c 2,12,-1
 1339 821 l 1,13,-1
 1497 821 l 2,14,15
 1647 821 1647 821 1803 851 c 1,16,-1
 1764 667 l 1,17,18
 1620 697 1620 697 1470 697 c 2,19,-1
 1312 697 l 1,20,-1
 1228 300 l 2,21,22
 1210 216 1210 216 1198 124 c 1,23,-1
 1468 124 l 2,24,25
 1626 124 1626 124 1775 154 c 1,26,-1
 1742 0 l 1,27,-1
 944 0 l 1,28,29
 1006 150 1006 150 1038 300 c 2,30,-1
 1122 697 l 1,31,-1
 738 697 l 1,32,-1
 418 282 l 2,33,34
 306 138 306 138 227 0 c 1,35,-1
 5 0 l 1,0,1
1262 1424 m 1,36,-1
 822 821 l 1,37,-1
 1149 821 l 1,38,-1
 1231 1210 l 2,39,40
 1254 1317 1254 1317 1262 1424 c 1,36,-1
EndSplineSet
Validated: 1
EndChar

StartChar: Eth
Encoding: 208 208 174
Width: 1599
Flags: W
HStem: 0 124<424 971.287> 687 143<212.992 348.56 561.703 948.008> 717 83<560 940.191> 1386 124<681.597 1215.66>
VStem: 1453 226<662.918 1146.54>
DStem2: 200.085 0 389.597 0 0.207912 0.978148<170.263 725.862 857.349 1455.64>
LayerCount: 2
Fore
SplineSet
170 0 m 1,0,1
 233 153 233 153 264 300 c 2,2,-1
 351 710 l 1,3,4
 273 703 273 703 186 687 c 1,5,-1
 216 830 l 1,6,7
 296 815 296 815 372 807 c 1,8,-1
 457 1210 l 2,9,10
 489 1362 489 1362 491 1510 c 1,11,-1
 1017 1510 l 2,12,13
 1363 1510 1363 1510 1541 1307 c 0,14,15
 1679 1149 1679 1149 1679 930 c 0,16,17
 1679 847 1679 847 1659 755 c 0,18,19
 1588 420 1588 420 1305 201 c 0,20,21
 1044 0 1044 0 696 0 c 2,22,-1
 170 0 l 1,0,1
424 124 m 1,23,-1
 722 124 l 2,24,25
 1009 124 1009 124 1206 324 c 0,26,27
 1381 502 1381 502 1434 755 c 0,28,29
 1453 845 1453 845 1453 925 c 0,30,31
 1453 1070 1453 1070 1390 1184 c 0,32,33
 1279 1382 1279 1382 991 1384 c 2,34,-1
 695 1386 l 1,35,36
 665 1295 665 1295 647 1210 c 2,37,-1
 560 800 l 1,38,-1
 669 800 l 2,39,40
 812 800 812 800 975 830 c 1,41,-1
 945 687 l 1,42,43
 791 717 791 717 651 717 c 2,44,-1
 542 717 l 1,45,-1
 454 300 l 2,46,47
 433 201 433 201 424 124 c 1,23,-1
EndSplineSet
Validated: 1
EndChar

StartChar: Dcroat
Encoding: 272 272 175
Width: 1599
Flags: W
HStem: 0 124<424 971.287> 687 143<212.992 348.56 561.703 948.008> 717 83<560 940.191> 1386 124<681.597 1215.66>
VStem: 1453 226<662.918 1146.54>
DStem2: 200.085 0 389.597 0 0.207912 0.978148<170.263 725.862 857.349 1455.64>
LayerCount: 2
Fore
SplineSet
170 0 m 1,0,1
 233 153 233 153 264 300 c 2,2,-1
 351 710 l 1,3,4
 273 703 273 703 186 687 c 1,5,-1
 216 830 l 1,6,7
 296 815 296 815 372 807 c 1,8,-1
 457 1210 l 2,9,10
 489 1362 489 1362 491 1510 c 1,11,-1
 1017 1510 l 2,12,13
 1363 1510 1363 1510 1541 1307 c 0,14,15
 1679 1149 1679 1149 1679 930 c 0,16,17
 1679 847 1679 847 1659 755 c 0,18,19
 1588 420 1588 420 1305 201 c 0,20,21
 1044 0 1044 0 696 0 c 2,22,-1
 170 0 l 1,0,1
424 124 m 1,23,-1
 722 124 l 2,24,25
 1009 124 1009 124 1206 324 c 0,26,27
 1381 502 1381 502 1434 755 c 0,28,29
 1453 845 1453 845 1453 925 c 0,30,31
 1453 1070 1453 1070 1390 1184 c 0,32,33
 1279 1382 1279 1382 991 1384 c 2,34,-1
 695 1386 l 1,35,36
 665 1295 665 1295 647 1210 c 2,37,-1
 560 800 l 1,38,-1
 669 800 l 2,39,40
 812 800 812 800 975 830 c 1,41,-1
 945 687 l 1,42,43
 791 717 791 717 651 717 c 2,44,-1
 542 717 l 1,45,-1
 454 300 l 2,46,47
 433 201 433 201 424 124 c 1,23,-1
EndSplineSet
Validated: 1
EndChar

StartChar: Hbar
Encoding: 294 294 176
Width: 1550
Flags: W
HStem: 0 21G<170 421 1130 1381> 697 124<565 1308> 1249 143<332.892 466.561 1652.35 1778.11> 1279 83<688 1430> 1490 20G<490.5 741 1451 1701>
VStem: 170 250<0 117.188> 491 250<1389.75 1510> 1130 250<0 117.188> 1451 250<1389.75 1510>
DStem2: 200.233 0 389.848 0 0.207912 0.978148<50.2917 751.995 878.898 1300.08> 1160.23 0 1350.23 0 0.207912 0.978148<50.2917 712.491 839.395 1307.14>
LayerCount: 2
Fore
SplineSet
170 0 m 1,0,1
 232 150 232 150 264 300 c 2,2,-1
 457 1210 l 2,3,4
 464 1241 464 1241 469 1272 c 1,5,6
 391 1265 391 1265 305 1249 c 1,7,-1
 336 1392 l 1,8,9
 411 1377 411 1377 482 1370 c 1,10,11
 490 1440 490 1440 491 1510 c 1,12,-1
 741 1510 l 1,13,14
 710 1436 710 1436 688 1362 c 1,15,-1
 1442 1362 l 1,16,17
 1451 1436 1451 1436 1451 1510 c 1,18,-1
 1701 1510 l 1,19,20
 1672 1440 1672 1440 1650 1370 c 1,21,22
 1725 1377 1725 1377 1806 1392 c 1,23,-1
 1775 1249 l 1,24,25
 1696 1264 1696 1264 1621 1272 c 1,26,27
 1613 1241 1613 1241 1607 1210 c 2,28,-1
 1414 300 l 2,29,30
 1382 150 1382 150 1380 0 c 1,31,-1
 1130 0 l 1,32,33
 1192 150 1192 150 1224 300 c 2,34,-1
 1308 697 l 1,35,-1
 538 697 l 1,36,-1
 454 300 l 2,37,38
 422 150 422 150 420 0 c 1,39,-1
 170 0 l 1,0,1
1430 1279 m 1,40,-1
 664 1279 l 1,41,42
 655 1245 655 1245 647 1210 c 2,43,-1
 565 821 l 1,44,-1
 1335 821 l 1,45,-1
 1417 1210 l 2,46,47
 1425 1245 1425 1245 1430 1279 c 1,40,-1
EndSplineSet
Validated: 1
EndChar

StartChar: Lslash
Encoding: 321 321 177
Width: 998
Flags: W
HStem: 0 124<434 978> 1100 20G<880.5 955.842> 1490 20G<490 751>
VStem: 491 260<1392.81 1510>
DStem2: 199.576 0 400.233 0 0.207912 0.978148<172.918 425.294 557.338 715.377 834.04 1532.99> 565 775 540 659 0.771604 0.636103<0 501.276>
LayerCount: 2
Fore
SplineSet
170 0 m 1,0,1
 232 150 232 150 264 300 c 2,2,-1
 288 416 l 1,3,-1
 209 517 l 1,4,5
 264 547 264 547 325 588 c 1,6,-1
 457 1210 l 2,7,8
 489 1360 489 1360 491 1510 c 1,9,-1
 751 1510 l 1,10,11
 689 1360 689 1360 657 1210 c 2,12,-1
 565 775 l 1,13,-1
 699 886 l 2,14,15
 821 986 821 986 940 1120 c 1,16,-1
 1020 1019 l 1,17,18
 879 938 879 938 745 828 c 2,19,-1
 540 659 l 1,20,-1
 464 300 l 2,21,22
 446 216 446 216 434 124 c 1,23,-1
 704 124 l 2,24,25
 862 124 862 124 1011 154 c 1,26,-1
 978 0 l 1,27,-1
 170 0 l 1,0,1
EndSplineSet
Validated: 1
EndChar

StartChar: Eng
Encoding: 330 330 178
Width: 1560
Flags: W
HStem: -430 10<791 800.257> 0 21G<170 421> 1379 151<922.493 1239.81> 1530 20G<637.261 725>
VStem: 170 250<0 116.711> 1368 201<782.094 1246.59>
DStem2: 108.407 -430 298.377 -430 0.207912 0.978148<489.957 1660.83> 1068.6 -430 1268.6 -430 0.207912 0.978148<250.077 1521.97>
LayerCount: 2
Fore
SplineSet
170 0 m 1,0,1
 232 151 232 151 264 300 c 2,2,-1
 457 1210 l 2,3,4
 490 1366 490 1366 492 1504 c 1,5,-1
 749 1550 l 1,6,7
 701 1434 701 1434 673 1319 c 1,8,9
 888 1530 888 1530 1150 1530 c 0,10,11
 1387 1530 1387 1530 1499 1348 c 0,12,13
 1569 1234 1569 1234 1569 1067 c 0,14,15
 1569 981 1569 981 1544 864 c 2,16,-1
 1360 0 l 2,17,18
 1268 -430 1268 -430 789 -430 c 1,19,-1
 791 -420 l 1,20,21
 1089 -335 1089 -335 1160 0 c 2,22,-1
 1343 862 l 2,23,24
 1368 980 1368 980 1368 1065 c 128,-1,25
 1368 1150 1368 1150 1344 1206 c 8,26,27
 1271 1379 1271 1379 1068 1379 c 0,28,29
 870 1379 870 1379 734 1222 c 0,30,31
 622 1094 622 1094 573 862 c 2,32,-1
 454 300 l 2,33,34
 422 149 422 149 420 0 c 1,35,-1
 170 0 l 1,0,1
EndSplineSet
Validated: 1
EndChar

StartChar: OE
Encoding: 338 338 179
Width: 1934
Flags: W
HStem: -20 126<675.457 1085.86> 0 124<1290 1834> 697 124<1431 1851.5> 1356 154<1563.31 2005.07> 1386 124<1547.6 1997.5> 1404 126<932.834 1345.41>
VStem: 229 225<342.562 839.878>
DStem2: 1061.98 -20 1251.98 -20 0.207912 0.978148<191.149 772.441 899.345 1409.84>
LayerCount: 2
Fore
SplineSet
1834 0 m 1,0,-1
 1036 0 l 17,1,2
 944 -20 944 -20 848 -20 c 0,3,4
 542 -20 542 -20 364 183 c 0,5,6
 229 337 229 337 229 563 c 0,7,8
 229 654 229 654 250 755 c 0,9,10
 326 1111 326 1111 607 1327 c 0,11,12
 871 1530 871 1530 1177 1530 c 0,13,14
 1272 1530 1272 1530 1356 1510 c 9,15,-1
 2035 1510 l 1,16,-1
 2002 1356 l 1,17,18
 1858 1386 1858 1386 1709 1386 c 2,19,-1
 1561 1386 l 1,20,21
 1531 1294 1531 1294 1513 1210 c 2,22,-1
 1431 821 l 1,23,-1
 1589 821 l 2,24,25
 1739 821 1739 821 1895 851 c 1,26,-1
 1856 667 l 1,27,28
 1712 697 1712 697 1562 697 c 2,29,-1
 1404 697 l 1,30,-1
 1320 300 l 2,31,32
 1302 216 1302 216 1290 124 c 1,33,-1
 1560 124 l 2,34,35
 1718 124 1718 124 1867 154 c 1,36,-1
 1834 0 l 1,0,-1
1348 1363 m 1,37,38
 1264 1404 1264 1404 1150 1404 c 0,39,40
 904 1404 904 1404 708 1204 c 0,41,42
 536 1028 536 1028 476 755 c 0,43,44
 454 655 454 655 454 568 c 0,45,46
 454 418 454 418 517 306 c 0,47,48
 628 106 628 106 875 106 c 0,49,50
 988 106 988 106 1089 147 c 1,51,52
 1113 224 1113 224 1130 300 c 2,53,-1
 1323 1210 l 2,54,55
 1340 1286 1340 1286 1348 1363 c 1,37,38
EndSplineSet
Validated: 1
EndChar

StartChar: Tbar
Encoding: 358 358 180
Width: 1100
Flags: W
HStem: 0 21G<425 676> 680 143<391.992 601.465 817.566 1028.01> 1356 154<341 738.047 951.953 1371.07> 1386 124<341 740 936.125 1363.5>
VStem: 425 250<0 117.188> 740 210<1223.75 1386>
DStem2: 454.51 0 644.51 0 0.207912 0.978148<50.442 723.817 852.37 1412.32>
LayerCount: 2
Fore
SplineSet
425 0 m 1,0,1
 487 150 487 150 519 300 c 2,2,-1
 605 708 l 1,3,4
 492 703 492 703 365 680 c 1,5,-1
 395 823 l 1,6,7
 515 800 515 800 624 795 c 1,8,-1
 712 1210 l 2,9,10
 731 1298 731 1298 740 1386 c 1,11,-1
 615 1386 l 2,12,13
 465 1386 465 1386 308 1356 c 1,14,-1
 341 1510 l 1,15,-1
 1401 1510 l 1,16,-1
 1368 1356 l 1,17,18
 1224 1386 1224 1386 1075 1386 c 2,19,-1
 950 1386 l 1,20,21
 921 1298 921 1298 902 1210 c 2,22,-1
 814 795 l 1,23,24
 928 800 928 800 1055 823 c 1,25,-1
 1025 680 l 1,26,27
 907 703 907 703 795 708 c 1,28,-1
 709 300 l 2,29,30
 677 150 677 150 675 0 c 1,31,-1
 425 0 l 1,0,1
EndSplineSet
Validated: 1
EndChar

StartChar: ae
Encoding: 230 230 181
Width: 1969
Flags: W
HStem: -20 103<423.884 738.699 1236.23 1588.59> 499 105<1136 1781.56> 649 103<523.832 840.948> 1018 102<570.178 896.062 1397.62 1704.06>
VStem: 149 201<155.969 463.848> 391 10<784 794.782> 915 190<263.525 497.221> 1790 213<605.731 911.202>
LayerCount: 2
Fore
SplineSet
525 -20 m 0,0,1
 336 -20 336 -20 236 80 c 0,2,3
 149 167 149 167 149 286 c 0,4,5
 149 324 149 324 158 366 c 0,6,7
 195 540 195 540 358 652 c 0,8,9
 504 752 504 752 689 752 c 0,10,11
 868 752 868 752 968 661 c 1,12,13
 980 725 980 725 980 777 c 0,14,15
 980 831 980 831 967 871 c 0,16,17
 918 1018 918 1018 741 1018 c 0,18,19
 569 1018 569 1018 452 871 c 0,20,21
 421 834 421 834 401 784 c 1,22,-1
 391 784 l 1,23,-1
 441 1021 l 1,24,25
 605 1120 605 1120 819 1120 c 0,26,27
 1055 1120 1055 1120 1145 946 c 1,28,29
 1160 960 1160 960 1176 972 c 0,30,31
 1366 1120 1366 1120 1583 1120 c 0,32,33
 1845 1120 1845 1120 1949 930 c 0,34,35
 2003 830 2003 830 2003 703 c 0,36,37
 2003 631 2003 631 1986 550 c 1,38,-1
 1924 499 l 9,39,-1
 1114 499 l 1,40,41
 1105 442 1105 442 1105 394 c 0,42,43
 1105 291 1105 291 1144 222 c 0,44,45
 1223 84 1223 84 1413 84 c 0,46,47
 1622 84 1622 84 1829 329 c 1,48,-1
 1839 328 l 1,49,-1
 1795 122 l 1,50,51
 1596 -20 1596 -20 1391 -20 c 0,52,53
 1171 -20 1171 -20 1037 85 c 24,54,55
 1003 112 1003 112 969 151 c 1,56,57
 892 92 892 92 826 56 c 24,58,59
 687 -20 687 -20 525 -20 c 0,0,1
907 373 m 2,60,61
 915 411 915 411 915 445 c 0,62,63
 915 505 915 505 889 550 c 0,64,65
 832 649 832 649 690 649 c 0,66,67
 551 649 551 649 457 551 c 0,68,69
 379 470 379 470 357 366 c 0,70,71
 350 331 350 331 350 298 c 0,72,73
 350 234 350 234 378 181 c 0,74,75
 431 83 431 83 570 83 c 0,76,77
 710 83 710 83 811 182 c 0,78,79
 882 251 882 251 904 359 c 2,80,-1
 907 373 l 2,60,61
1136 604 m 1,81,-1
 1775 604 l 1,82,83
 1790 695 1790 695 1790 762 c 0,84,85
 1790 831 1790 831 1774 874 c 0,86,87
 1721 1017 1721 1017 1561 1017 c 0,88,89
 1405 1017 1405 1017 1271 877 c 0,90,91
 1183 785 1183 785 1136 604 c 1,81,-1
EndSplineSet
Validated: 1
EndChar

StartChar: dcroat
Encoding: 273 273 182
Width: 1348
Flags: W
HStem: -20 103<525.273 861.611> 0 21G<945 1176.5> 1017 103<703.379 1041.7> 1249 143<939.892 1242.62 1445.41 1576.11> 1279 83<947.84 1243> 1530 20G<1400.09 1486>
VStem: 202 205<218.151 643.648>
DStem2: 968.896 -20 1143.26 -20 0.207912 0.978148<230.772 835.151 1038.73 1327.6>
LayerCount: 2
Fore
SplineSet
1176 0 m 1,0,1
 945 0 l 1,2,3
 964 45 964 45 981 93 c 1,4,5
 841 -20 841 -20 660 -20 c 0,6,7
 430 -20 430 -20 305 128 c 0,8,9
 202 251 202 251 202 417 c 0,10,11
 202 480 202 480 217 550 c 0,12,13
 271 805 271 805 485 972 c 0,14,15
 674 1120 674 1120 902 1120 c 0,16,17
 1094 1120 1094 1120 1185 996 c 1,18,-1
 1230 1208 l 2,19,20
 1237 1243 1237 1243 1243 1279 c 1,21,-1
 1219 1279 l 2,22,23
 1079 1279 1079 1279 912 1249 c 1,24,-1
 943 1392 l 1,25,26
 1098 1362 1098 1362 1237 1362 c 2,27,-1
 1255 1362 l 1,28,29
 1263 1432 1263 1432 1265 1504 c 1,30,-1
 1504 1550 l 1,31,32
 1468 1456 1468 1456 1443 1369 c 1,33,34
 1520 1376 1520 1376 1604 1392 c 1,35,-1
 1573 1249 l 1,36,37
 1493 1264 1493 1264 1418 1272 c 9,38,-1
 1210 294 l 2,39,40
 1177 136 1177 136 1176 0 c 1,0,1
682 83 m 0,41,42
 857 83 857 83 981 223 c 0,43,44
 1032 280 1032 280 1057 395 c 2,45,-1
 1123 705 l 2,46,47
 1134 759 1134 759 1134 800 c 0,48,49
 1134 846 1134 846 1120 877 c 0,50,51
 1055 1017 1055 1017 880 1017 c 0,52,53
 714 1017 714 1017 580 877 c 0,54,55
 472 764 472 764 426 550 c 0,56,57
 407 460 407 460 407 384 c 0,58,59
 407 287 407 287 441 223 c 0,60,61
 516 83 516 83 682 83 c 0,41,42
EndSplineSet
Validated: 1
EndChar

StartChar: longs
Encoding: 383 383 183
Width: 900
Flags: W
HStem: 0 21G<272 504.5> 786 105<219.22 467> 1445 85<867.401 1104.98>
VStem: 272 231<0 123.543> 1144 10<1290 1313.27>
DStem2: 299.931 0 475.251 0 0.207912 0.978148<46.7047 803.56 902.497 1362.56>
LayerCount: 2
Fore
SplineSet
272 0 m 1,0,1
 331 148 331 148 362 294 c 2,2,-1
 467 786 l 1,3,4
 329 786 329 786 181 758 c 1,5,-1
 215 919 l 1,6,7
 350 891 350 891 489 891 c 1,8,-1
 526 1064 l 2,9,10
 575 1295 575 1295 695 1404 c 0,11,12
 834 1530 834 1530 1043 1530 c 0,13,14
 1127 1530 1127 1530 1201 1511 c 1,15,-1
 1154 1290 l 1,16,-1
 1144 1290 l 1,17,18
 1131 1445 1131 1445 1007 1445 c 0,19,20
 892 1445 892 1445 815 1358 c 0,21,22
 748 1282 748 1282 708 1095 c 2,23,-1
 537 294 l 2,24,25
 506 146 506 146 503 0 c 1,26,-1
 272 0 l 1,0,1
EndSplineSet
Validated: 1
EndChar

StartChar: florin
Encoding: 402 402 184
Width: 800
Flags: W
HStem: -430 21G<-69 106.5> 786 105<247.094 367 564 821.657> 1445 85<767.401 1004.98>
VStem: 1044 10<1290 1313.27>
DStem2: 108.533 -430 283.533 -430 0.207912 0.978148<156.362 1243.17 1386.83 1802.17>
LayerCount: 2
Fore
SplineSet
-71 -430 m 1,0,1
 -69 -420 l 1,2,3
 135 -307 135 -307 174 -122 c 2,4,-1
 367 786 l 17,5,-1
 357 786 l 2,6,7
 290 786 290 786 212 760 c 1,8,-1
 245 917 l 1,9,10
 312 891 312 891 379 891 c 2,11,-1
 389 891 l 1,12,-1
 426 1064 l 2,13,14
 475 1295 475 1295 595 1404 c 0,15,16
 734 1530 734 1530 943 1530 c 0,17,18
 1027 1530 1027 1530 1101 1511 c 1,19,20
 1054 1290 l 1,21,-1
 1044 1290 l 1,22,23
 1031 1445 1031 1445 907 1445 c 0,24,25
 792 1445 792 1445 715 1358 c 0,26,27
 648 1282 648 1282 608 1095 c 2,28,-1
 564 891 l 1,29,-1
 574 891 l 2,30,31
 710 891 710 891 860 919 c 1,32,-1
 826 758 l 1,33,34
 687 786 687 786 552 786 c 2,35,-1
 542 786 l 9,36,-1
 349 -122 l 2,37,38
 284 -430 284 -430 -71 -430 c 1,0,1
EndSplineSet
Validated: 1
EndChar

StartChar: hbar
Encoding: 295 295 185
Width: 1341
Flags: W
HStem: 0 21G<172 404 933 1170.5> 1005 115<751.757 1030.57> 1249 143<332.892 466.53 669.344 969.108> 1279 83<669 961.191> 1530 20G<627.087 712>
VStem: 172 231<0 119.331> 933 236<0 120.085> 1114 182<522.219 923.714>
DStem2: 200.232 0 375.158 0 0.207912 0.978148<46.3953 936.106 1016.79 1300.08> 961.296 0 1140.51 0 0.207912 0.978148<47.7586 795.799>
LayerCount: 2
Fore
SplineSet
172 0 m 1,0,1
 229 137 229 137 263 295 c 2,2,-1
 457 1208 l 2,3,4
 464 1240 464 1240 469 1272 c 1,5,6
 390 1264 390 1264 305 1249 c 1,7,-1
 336 1392 l 1,8,9
 411 1377 411 1377 482 1370 c 1,10,11
 489 1436 489 1436 492 1504 c 1,12,-1
 731 1550 l 1,13,14
 693 1452 693 1452 669 1362 c 1,15,-1
 691 1362 l 2,16,17
 834 1362 834 1362 997 1392 c 1,18,-1
 966 1249 l 1,19,20
 812 1279 812 1279 673 1279 c 2,21,-1
 647 1279 l 1,22,-1
 579 959 l 1,23,24
 749 1120 749 1120 962 1120 c 0,25,26
 1183 1120 1183 1120 1268 943 c 0,27,28
 1296 885 1296 885 1296 800 c 0,29,30
 1296 730 1296 730 1277 641 c 2,31,-1
 1203 294 l 2,32,33
 1172 149 1172 149 1169 0 c 1,34,-1
 933 0 l 1,35,36
 993 148 993 148 1024 295 c 2,37,-1
 1097 642 l 2,38,39
 1114 723 1114 723 1114 783 c 0,40,41
 1114 837 1114 837 1100 871 c 0,42,43
 1043 1005 1043 1005 882 1005 c 128,-1,44
 721 1005 721 1005 605 871 c 0,45,46
 544 800 544 800 511 642 c 2,47,-1
 438 295 l 2,48,49
 405 138 405 138 403 0 c 1,50,-1
 172 0 l 1,0,1
EndSplineSet
Validated: 1
EndChar

StartChar: kgreenlandic
Encoding: 312 312 186
Width: 1214
Flags: W
HStem: 0 21G<172 404.5 877 1209> 1080 20G<1009.5 1290>
VStem: 172 231<0 120.415>
DStem2: 199.508 0 375.2 0 0.207912 0.978148<46.8534 492.492 660.185 1108.87> 505 610 664 615 0.77162 0.636083<125.868 735.73> 664 615 529 497 0.640184 -0.768221<4.22522 622.136>
LayerCount: 2
Fore
SplineSet
172 0 m 1,0,1
 230 144 230 144 262 294 c 2,2,-1
 370 799 l 2,3,4
 399 935 399 935 405 1095 c 1,5,-1
 644 1140 l 1,6,7
 586 992 586 992 556 850 c 2,8,-1
 505 610 l 1,9,-1
 824 867 l 2,10,11
 958 975 958 975 1061 1100 c 1,12,-1
 1290 1100 l 1,13,14
 1150 1004 1150 1004 1045 920 c 2,15,-1
 664 615 l 1,16,-1
 1034 171 l 2,17,18
 1113 76 1113 76 1209 0 c 1,19,-1
 904 0 l 1,20,21
 850 120 850 120 758 228 c 2,22,-1
 529 497 l 1,23,-1
 470 446 l 1,24,-1
 438 297 l 2,25,26
 406 148 406 148 403 0 c 1,27,-1
 172 0 l 1,0,1
EndSplineSet
Validated: 1
EndChar

StartChar: lslash
Encoding: 322 322 187
Width: 724
Flags: W
HStem: 0 21G<246 477> 1100 20G<798.5 866.04> 1530 20G<701.087 775>
VStem: 246 231<0 118.178>
DStem2: 274.002 0 448.592 0 0.207912 0.978148<46.3697 634.874 754.515 851.105 970.746 1527.11>
LayerCount: 2
Fore
SplineSet
246 0 m 1,0,1
 303 135 303 135 336 294 c 2,2,-1
 406 621 l 1,3,4
 307 535 307 535 198 416 c 1,5,-1
 120 517 l 1,6,7
 246 585 246 585 394 708 c 2,8,-1
 431 738 l 1,9,-1
 531 1208 l 2,10,11
 561 1350 561 1350 566 1504 c 1,12,-1
 805 1550 l 1,13,14
 745 1394 745 1394 717 1259 c 2,15,-1
 643 914 l 1,16,17
 747 1004 747 1004 850 1120 c 1,18,-1
 931 1019 l 1,19,20
 790 938 790 938 656 828 c 2,21,-1
 618 797 l 1,22,-1
 511 294 l 2,23,24
 477 136 477 136 477 0 c 1,25,-1
 246 0 l 1,0,1
EndSplineSet
Validated: 1
EndChar

StartChar: eng
Encoding: 331 331 188
Width: 1341
Flags: W
HStem: -430 10<592 601.257> 0 21G<172 404> 1005 115<749.735 1033.23>
VStem: 172 231<0 119.331> 1114 182<521.219 923.558>
DStem2: 108.193 -430 283.896 -430 0.207912 0.978148<486.135 1374.4> 869.601 -430 1049.6 -430 0.207912 0.978148<236.126 1235.44>
LayerCount: 2
Fore
SplineSet
172 0 m 1,0,1
 229 137 229 137 263 295 c 2,2,-1
 369 797 l 2,3,4
 402 950 402 950 405 1094 c 1,5,-1
 644 1140 l 1,6,7
 609 1049 609 1049 584 963 c 1,8,9
 750 1120 750 1120 962 1120 c 0,10,11
 1180 1120 1180 1120 1267 943 c 0,12,13
 1296 884 1296 884 1296 798 c 0,14,15
 1295 726 1295 726 1277 641 c 2,16,-1
 1141 0 l 2,17,18
 1050 -430 1050 -430 590 -430 c 1,19,-1
 592 -420 l 1,20,21
 890 -335 890 -335 961 0 c 2,22,-1
 1097 642 l 2,23,24
 1114 722 1114 722 1114 783 c 0,25,26
 1114 837 1114 837 1100 871 c 0,27,28
 1043 1005 1043 1005 882 1005 c 128,-1,29
 721 1005 721 1005 605 871 c 0,30,31
 544 800 544 800 511 642 c 2,32,-1
 438 295 l 2,33,34
 405 138 405 138 403 0 c 1,35,-1
 172 0 l 1,0,1
EndSplineSet
Validated: 1
EndChar

StartChar: eth
Encoding: 240 240 189
Width: 1328
Flags: W
HStem: -20 103<523.585 858.961> 1017 103<703.379 1038.44> 1121 130<701.471 777.109> 1400 130<1259.72 1334.64> 1490 20G<839 1074>
VStem: 202 205<232.307 643.797> 1154 204<456.711 889.156>
DStem2: 1151 1242 975 1264 0.409439 -0.912337<-89.2355 102.609>
LayerCount: 2
Fore
SplineSet
682 83 m 0,0,1
 849 83 849 83 981 223 c 0,2,3
 1088 338 1088 338 1134 550 c 0,4,5
 1154 641 1154 641 1154 715 c 0,6,7
 1154 812 1154 812 1120 877 c 0,8,9
 1047 1017 1047 1017 880 1017 c 0,10,11
 714 1017 714 1017 580 877 c 0,12,13
 470 762 470 762 426 550 c 0,14,15
 407 458 407 458 407 384 c 0,16,17
 407 287 407 287 441 223 c 0,18,19
 516 83 516 83 682 83 c 0,0,1
665 -20 m 0,20,21
 443 -20 443 -20 312 132 c 0,22,23
 202 260 202 260 202 427 c 0,24,25
 202 487 202 487 216 552 c 0,26,27
 270 804 270 804 485 972 c 0,28,29
 674 1120 674 1120 902 1120 c 0,30,31
 985 1120 985 1120 1054 1086 c 1,32,-1
 975 1264 l 1,33,34
 841 1206 841 1206 705 1121 c 1,35,-1
 673 1251 l 1,36,37
 818 1288 818 1288 944 1337 c 1,38,39
 907 1428 907 1428 839 1510 c 1,40,-1
 1070 1510 l 1,41,42
 1078 1449 1078 1449 1094 1400 c 1,43,44
 1210 1454 1210 1454 1331 1530 c 1,45,-1
 1364 1400 l 1,46,47
 1232 1368 1232 1368 1118 1325 c 1,48,49
 1142 1262 1142 1262 1151 1242 c 2,50,-1
 1302 915 l 2,51,52
 1358 794 1358 794 1358 670 c 0,53,54
 1358 610 1358 610 1345 550 c 0,55,56
 1291 295 1291 295 1077 128 c 0,57,58
 886 -20 886 -20 665 -20 c 0,20,21
EndSplineSet
Validated: 1
EndChar

StartChar: oe
Encoding: 339 339 190
Width: 2196
Flags: W
HStem: -20 103<525.703 858.709 1462.39 1815.59> 499 105<1363 2008.56> 1017 103<703.379 1036.6 1619.17 1931.06>
VStem: 201 206<217.641 643.289> 1154 178<394 715> 2017 213<605.731 911.202>
LayerCount: 2
Fore
SplineSet
682 83 m 0,0,1
 849 83 849 83 981 223 c 0,2,3
 1088 338 1088 338 1134 550 c 0,4,5
 1154 641 1154 641 1154 715 c 0,6,7
 1154 812 1154 812 1120 877 c 0,8,9
 1047 1017 1047 1017 880 1017 c 0,10,11
 714 1017 714 1017 580 877 c 0,12,13
 470 762 470 762 426 550 c 0,14,15
 407 458 407 458 407 384 c 0,16,17
 407 287 407 287 441 223 c 0,18,19
 516 83 516 83 682 83 c 0,0,1
660 -20 m 128,-1,21
 432 -20 432 -20 305 128 c 0,22,23
 201 249 201 249 201 416 c 0,24,25
 201 481 201 481 216 550 c 0,26,27
 270 805 270 805 485 972 c 0,28,29
 674 1120 674 1120 902 1120 c 0,30,31
 1131 1120 1131 1120 1257 972 c 0,32,33
 1290 933 1290 933 1312 890 c 1,34,35
 1353 933 1353 933 1403 972 c 0,36,37
 1593 1120 1593 1120 1810 1120 c 0,38,39
 2072 1120 2072 1120 2176 930 c 0,40,41
 2230 830 2230 830 2230 703 c 0,42,43
 2230 631 2230 631 2213 550 c 1,44,-1
 2151 499 l 9,45,-1
 1341 499 l 1,46,47
 1332 442 1332 442 1332 394 c 0,48,49
 1332 291 1332 291 1371 222 c 0,50,51
 1450 84 1450 84 1640 84 c 0,52,53
 1849 84 1849 84 2056 329 c 1,54,-1
 2066 328 l 1,55,-1
 2022 122 l 1,56,57
 1823 -20 1823 -20 1618 -20 c 0,58,59
 1348 -20 1348 -20 1223 128 c 0,60,61
 1190 167 1190 167 1168 210 c 1,62,63
 1127 167 1127 167 1077 128 c 0,64,20
 888 -20 888 -20 660 -20 c 128,-1,21
1363 604 m 1,65,-1
 2002 604 l 1,66,67
 2017 695 2017 695 2017 762 c 0,68,69
 2017 831 2017 831 2001 874 c 0,70,71
 1948 1017 1948 1017 1788 1017 c 0,72,73
 1632 1017 1632 1017 1498 877 c 0,74,75
 1410 785 1410 785 1363 604 c 1,65,-1
EndSplineSet
Validated: 1
EndChar

StartChar: tbar
Encoding: 359 359 191
Width: 795
Flags: W
HStem: 0 21G<282 514> 506 143<202.992 420.371 620.66 839.008> 939 161<250.973 514.978 713.665 978.027> 967 105<258.22 516 713 970.657> 1530 20G<737.087 811>
VStem: 282 231<0 122.08>
DStem2: 310.282 0 485.282 0 0.207912 0.978148<46.5349 546.952 670.222 988.64 1132.3 1527.74>
LayerCount: 2
Fore
SplineSet
282 0 m 1,0,1
 341 144 341 144 372 294 c 2,2,-1
 424 535 l 1,3,4
 308 530 308 530 176 506 c 1,5,-1
 206 649 l 1,6,7
 330 625 330 625 442 620 c 1,8,-1
 516 967 l 1,9,-1
 506 967 l 2,10,11
 368 967 368 967 220 939 c 1,12,-1
 254 1100 l 1,13,14
 389 1072 389 1072 528 1072 c 2,15,-1
 538 1072 l 1,16,-1
 567 1208 l 2,17,18
 602 1372 602 1372 602 1504 c 1,19,-1
 841 1550 l 1,20,21
 781 1395 781 1395 753 1259 c 2,22,-1
 713 1072 l 1,23,-1
 723 1072 l 2,24,25
 859 1072 859 1072 1009 1100 c 1,26,-1
 975 939 l 1,27,28
 836 967 836 967 701 967 c 2,29,-1
 691 967 l 1,30,-1
 617 620 l 1,31,32
 734 625 734 625 866 649 c 1,33,-1
 836 506 l 1,34,35
 713 530 713 530 599 535 c 1,36,-1
 547 294 l 2,37,38
 515 143 515 143 513 0 c 1,39,-1
 282 0 l 1,0,1
EndSplineSet
Validated: 1
EndChar

StartChar: thorn
Encoding: 254 254 192
Width: 1348
Flags: W
HStem: -410 21G<85 316> -20 103<536.213 866.402> 1017 103<714.884 1043.99> 1530 20G<627.087 701>
VStem: 85 231<-410 -291.822> 1172 208<452.598 880.28>
DStem2: 112.508 -410 287.508 -410 0.207912 0.978148<46.4724 564.081 763.361 1370.29 1473.93 1946.34>
LayerCount: 2
Fore
SplineSet
682 83 m 0,0,1
 858 83 858 83 991 223 c 0,2,3
 1112 349 1112 349 1155 550 c 0,4,5
 1172 628 1172 628 1172 694 c 0,6,7
 1172 799 1172 799 1130 877 c 0,8,9
 1056 1017 1056 1017 880 1017 c 0,10,11
 725 1017 725 1017 600 877 c 24,12,13
 549 820 549 820 525 705 c 2,14,-1
 459 395 l 2,15,16
 447 340 447 340 447 298 c 0,17,18
 447 253 447 253 461 223 c 8,19,20
 527 83 527 83 682 83 c 0,0,1
680 -20 m 0,21,22
 489 -20 489 -20 398 106 c 1,23,-1
 350 -116 l 2,24,25
 316 -274 316 -274 316 -410 c 1,26,-1
 85 -410 l 1,27,28
 142 -275 142 -275 175 -116 c 2,29,-1
 457 1208 l 2,30,31
 487 1350 487 1350 492 1504 c 1,32,-1
 731 1550 l 1,33,34
 671 1394 671 1394 643 1259 c 2,35,-1
 587 996 l 1,36,37
 737 1120 737 1120 922 1120 c 0,38,39
 1150 1120 1150 1120 1277 972 c 0,40,41
 1380 851 1380 851 1380 685 c 0,42,43
 1380 621 1380 621 1365 550 c 0,44,45
 1311 298 1311 298 1097 128 c 0,46,47
 910 -20 910 -20 680 -20 c 0,21,22
EndSplineSet
Validated: 1
EndChar

StartChar: Thorn
Encoding: 222 222 193
Width: 1142
Flags: W
HStem: 0 21G<170 421> 312 125<483 784.186> 1088 124<648 902.01> 1490 20G<490 741>
VStem: 170 250<0 118.616> 491 250<1393.59 1510> 1004 211<661.414 993.904>
DStem2: 200.233 0 390.113 0 0.207912 0.978148<50.2947 358.359 486.241 1151.71 1278.61 1532.89>
LayerCount: 2
Fore
SplineSet
483 437 m 1,0,-1
 603 437 l 2,1,2
 749 437 749 437 864 533 c 0,3,4
 962 615 962 615 994 762 c 0,5,6
 1004 811 1004 811 1004 853 c 0,7,8
 1004 937 1004 937 962 991 c 0,9,10
 887 1088 887 1088 741 1088 c 2,11,-1
 621 1088 l 1,12,-1
 483 437 l 1,0,-1
170 0 m 1,13,14
 233 153 233 153 264 300 c 2,15,-1
 457 1210 l 2,16,17
 489 1361 489 1361 491 1510 c 1,18,-1
 741 1510 l 1,19,20
 679 1361 679 1361 648 1212 c 1,21,-1
 778 1212 l 2,22,23
 1002 1212 1002 1212 1124 1089 c 0,24,25
 1215 998 1215 998 1215 862 c 0,26,27
 1215 815 1215 815 1204 762 c 0,28,29
 1160 551 1160 551 984 427 c 0,30,31
 821 312 821 312 586 312 c 2,32,-1
 456 312 l 1,33,34
 422 150 422 150 420 0 c 1,35,-1
 170 0 l 1,13,14
EndSplineSet
Validated: 1
EndChar

StartChar: germandbls
Encoding: 223 223 194
Width: 1213
Flags: W
HStem: 0 88<580 764.283> 792 92<765 896.488> 1446 84<752.107 1008.72>
VStem: 172 235<0 117.051> 1020 200<348.37 691.317> 1063 180<1075.85 1395.38>
DStem2: 201.937 0 377.246 0 0.207912 0.978148<46.921 1383.41>
LayerCount: 2
Fore
SplineSet
172 0 m 1,0,1
 235 152 235 152 266 300 c 2,2,-1
 440 1120 l 2,3,4
 487 1341 487 1341 629 1440 c 0,5,6
 759 1530 759 1530 915 1530 c 0,7,8
 1082 1530 1082 1530 1167 1438 c 0,9,10
 1243 1356 1243 1356 1243 1248 c 0,11,12
 1243 1217 1243 1217 1237 1184 c 0,13,14
 1206 1015 1206 1015 1044 914 c 0,15,16
 990 879 990 879 917 849 c 1,17,18
 1038 840 1038 840 1116 775 c 0,19,20
 1220 687 1220 687 1220 546 c 0,21,22
 1220 501 1220 501 1209 450 c 0,23,24
 1166 248 1166 248 979 122 c 0,25,26
 798 0 798 0 561 0 c 1,27,-1
 580 88 l 1,28,29
 743 88 743 88 873 205 c 0,30,31
 977 298 977 298 1009 450 c 0,32,33
 1020 502 1020 502 1020 546 c 0,34,35
 1020 632 1020 632 978 689 c 0,36,37
 903 792 903 792 745 792 c 1,38,-1
 765 884 l 1,39,40
 858 884 858 884 950 970 c 0,41,42
 1021 1037 1021 1037 1052 1182 c 0,43,44
 1063 1232 1063 1232 1063 1273 c 0,45,46
 1063 1332 1063 1332 1040 1369 c 0,47,48
 993 1446 993 1446 882 1446 c 0,49,50
 786 1446 786 1446 715 1374 c 0,51,52
 657 1316 657 1316 627 1175 c 2,53,-1
 441 300 l 2,54,55
 407 140 407 140 407 0 c 1,56,-1
 172 0 l 1,0,1
EndSplineSet
Validated: 1
EndChar

StartChar: afii61352
Encoding: 8470 8470 195
Width: 2198
Flags: W
HStem: 0 154<1525.93 1798.31 1807.62 1818.31 1827.63 2099.07> 30 94<1533.5 2091.47> 256 73<1782.94 1964.41> 775 72<1862.61 2044.12> 1490 20G<490 691.5 1487 1691>
VStem: 170 202<0 116.711> 491 179<1377.61 1510> 1193 177<0 130.758> 1489 202<1393.28 1510> 1604 143<392.972 651.811> 2081 141<453.101 711.058>
DStem2: 199.807 0 341.821 0 0.207912 0.978148<40.3705 1232.82> 1272 348 592 1177 0.477176 -0.878808<-1052.18 -3.46502> 1198.03 0 1340.23 0 0.207912 0.978148<355.775 1532.62>
LayerCount: 2
Fore
SplineSet
1976 847 m 0,0,1
 2099 847 2099 847 2167 766 c 0,2,3
 2222 701 2222 701 2222 616 c 0,4,5
 2222 585 2222 585 2215 551 c 0,6,7
 2188 420 2188 420 2078 335 c 0,8,9
 1977 256 1977 256 1851 256 c 0,10,11
 1723 256 1723 256 1659 337 c 0,12,13
 1604 404 1604 404 1604 488 c 0,14,15
 1604 519 1604 519 1611 552 c 0,16,17
 1640 685 1640 685 1748 768 c 0,18,19
 1851 847 1851 847 1976 847 c 0,0,1
1961 775 m 0,20,21
 1893 775 1893 775 1833 714 c 24,22,23
 1779 659 1779 659 1757 552 c 0,24,25
 1747 506 1747 506 1747 469 c 0,26,27
 1747 423 1747 423 1763 392 c 0,28,29
 1796 329 1796 329 1866 329 c 0,30,31
 1937 329 1937 329 1995 392 c 24,32,33
 2048 449 2048 449 2071 552 c 0,34,35
 2081 599 2081 599 2081 635 c 0,36,37
 2081 682 2081 682 2064 712 c 0,38,39
 2028 775 2028 775 1961 775 c 0,20,21
1529 154 m 1,40,41
 1673 124 1673 124 1823 124 c 0,42,43
 1971 124 1971 124 2129 154 c 1,44,-1
 2096 0 l 1,45,46
 1951 30 1951 30 1803 30 c 0,47,48
 1653 30 1653 30 1496 0 c 1,49,-1
 1529 154 l 1,40,41
170 0 m 1,50,51
 233 152 233 152 264 300 c 2,52,-1
 457 1210 l 2,53,54
 489 1361 489 1361 491 1510 c 1,55,-1
 670 1510 l 1,56,57
 713 1358 713 1358 772 1252 c 2,58,-1
 1272 348 l 17,59,-1
 1455 1210 l 2,60,61
 1485 1351 1485 1351 1489 1510 c 1,62,-1
 1691 1510 l 1,63,64
 1628 1358 1628 1358 1597 1210 c 2,65,-1
 1404 300 l 2,66,67
 1372 149 1372 149 1370 0 c 1,68,-1
 1193 0 l 1,69,70
 1149 151 1149 151 1091 258 c 2,71,-1
 592 1177 l 17,72,-1
 406 300 l 2,73,74
 374 149 374 149 372 0 c 1,75,-1
 170 0 l 1,50,51
EndSplineSet
Validated: 1
EndChar

StartChar: uni2117
Encoding: 8471 8471 196
Width: 1418
Flags: W
HStem: 386 77<624.878 999.312> 870 102<844 999.612> 1258 102<895.167 1040.71> 1453 77<825.688 1200.37>
VStem: 343 82<659.426 1055.31> 598 179<565 690.132> 1060 150<1030.46 1214.28> 1400 82<860.688 1256.57>
DStem2: 578.818 386 718.818 386 0.207912 0.978148<219.223 523.984 628.329 920.074>
LayerCount: 2
Fore
SplineSet
1018 1530 m 0,0,1
 1260 1530 1260 1530 1387 1368 c 0,2,3
 1482 1247 1482 1247 1482 1097 c 0,4,5
 1482 1019 1482 1019 1473 964 c 0,6,7
 1433 718 1433 718 1234 553 c 0,8,9
 1032 386 1032 386 807 386 c 0,10,11
 565 386 565 386 438 548 c 0,12,13
 343 669 343 669 343 819 c 0,14,15
 343 897 343 897 352 952 c 0,16,17
 392 1199 392 1199 591 1363 c 0,18,19
 793 1530 793 1530 1018 1530 c 0,0,1
1017 1453 m 0,20,21
 827 1453 827 1453 655 1312 c 0,22,23
 477 1166 477 1166 436 953 c 0,24,25
 425 896 425 896 425 849 c 0,26,27
 425 701 425 701 501 602 c 0,28,29
 608 463 608 463 808 463 c 0,30,31
 998 463 998 463 1170 604 c 0,32,33
 1348 750 1348 750 1389 963 c 0,34,35
 1400 1020 1400 1020 1400 1067 c 0,36,37
 1400 1213 1400 1213 1324 1314 c 0,38,39
 1218 1453 1218 1453 1017 1453 c 0,20,21
598 565 m 1,40,41
 632 636 632 636 653 735 c 2,42,-1
 750 1190 l 2,43,44
 767 1270 767 1270 767 1360 c 1,45,-1
 966 1360 l 2,46,47
 1096 1360 1096 1360 1159 1291 c 0,48,49
 1210 1236 1210 1236 1210 1164 c 0,50,51
 1210 1141 1210 1141 1205 1115 c 0,52,53
 1183 1011 1183 1011 1084 938 c 0,54,55
 992 870 992 870 862 870 c 2,56,-1
 822 870 l 1,57,-1
 793 735 l 2,58,59
 777 661 777 661 777 565 c 1,60,-1
 598 565 l 1,40,41
844 972 m 1,61,-1
 884 972 l 2,62,63
 949 972 949 972 1000 1015 c 0,64,65
 1041 1050 1041 1050 1055 1115 c 0,66,67
 1060 1137 1060 1137 1060 1156 c 0,68,69
 1060 1192 1060 1192 1042 1215 c 0,70,71
 1009 1258 1009 1258 944 1258 c 2,72,-1
 907 1258 l 1,73,74
 897 1224 897 1224 890 1190 c 2,75,-1
 844 972 l 1,61,-1
EndSplineSet
Validated: 1
EndChar

StartChar: integral
Encoding: 8747 8747 197
Width: 1025
Flags: W
HStem: -430 115<32.2468 277.755> 1415 115<980.878 1226.75>
VStem: -14 10<-183.273 -160> 1263 10<1260 1283.27>
DStem2: 333.44 -430 508.228 -430 0.207912 0.978148<237.537 1800.69>
LayerCount: 2
Fore
SplineSet
-67 -411 m 1,0,-1
 -14 -160 l 1,1,-1
 -4 -160 l 1,2,3
 9 -315 9 -315 133 -315 c 0,4,5
 248 -315 248 -315 326 -228 c 0,6,7
 393 -152 393 -152 432 35 c 2,8,-1
 651 1064 l 2,9,10
 700 1295 700 1295 820 1404 c 0,11,12
 959 1530 959 1530 1168 1530 c 0,13,14
 1252 1530 1252 1530 1326 1511 c 1,15,-1
 1273 1260 l 1,16,-1
 1263 1260 l 1,17,18
 1250 1415 1250 1415 1126 1415 c 0,19,20
 1011 1415 1011 1415 933 1328 c 0,21,22
 866 1252 866 1252 826 1065 c 2,23,-1
 608 36 l 2,24,25
 559 -195 559 -195 438 -304 c 0,26,27
 299 -430 299 -430 91 -430 c 0,28,29
 7 -430 7 -430 -67 -411 c 1,0,-1
EndSplineSet
Validated: 1
EndChar

StartChar: caron
Encoding: 711 711 198
Width: 653
Flags: W
HStem: 1200 330<505.272 581.505>
VStem: 375 553
LayerCount: 2
Fore
SplineSet
375 1530 m 1,0,-1
 568 1530 l 1,1,2
 605 1425 605 1425 605 1311 c 1,3,4
 649 1426 649 1426 735 1530 c 1,5,-1
 928 1530 l 1,6,-1
 926 1520 l 1,7,8
 762 1394 762 1394 651 1200 c 1,9,-1
 512 1200 l 1,10,11
 486 1395 486 1395 373 1520 c 1,12,-1
 375 1530 l 1,0,-1
EndSplineSet
Validated: 1
EndChar

StartChar: circumflex
Encoding: 710 710 199
Width: 653
Flags: W
HStem: 1200 330<512.86 588.728>
VStem: 305 555
LayerCount: 2
Fore
SplineSet
582 1530 m 1,0,-1
 721 1530 l 1,1,2
 747 1335 747 1335 860 1210 c 1,3,-1
 858 1200 l 1,4,-1
 665 1200 l 1,5,6
 629 1305 629 1305 629 1419 c 1,7,8
 585 1304 585 1304 498 1200 c 1,9,-1
 305 1200 l 1,10,-1
 307 1210 l 1,11,12
 471 1336 471 1336 582 1530 c 1,0,-1
EndSplineSet
Validated: 1
EndChar

StartChar: uni02C9
Encoding: 713 713 200
Width: 640
Flags: W
HStem: 1278 174<355.952 594.241 601.725 618.275 625.698 865.048> 1308 114<363.494 857.475>
VStem: 322 577
LayerCount: 2
Fore
SplineSet
359 1452 m 1,0,1
 503 1422 503 1422 622 1422 c 0,2,3
 740 1422 740 1422 899 1452 c 1,4,-1
 862 1278 l 1,5,6
 717 1308 717 1308 598 1308 c 0,7,8
 478 1308 478 1308 322 1278 c 1,9,-1
 359 1452 l 1,0,1
EndSplineSet
Validated: 1
EndChar

StartChar: dotaccent
Encoding: 729 729 201
Width: 360
Flags: W
HStem: 1266 264<398.164 555.692>
VStem: 343 267<1320.18 1475.62>
LayerCount: 2
Fore
SplineSet
505 1530 m 0,0,1
 561 1530 561 1530 589 1492 c 0,2,3
 610 1464 610 1464 610 1428 c 0,4,5
 610 1410 610 1410 607 1398 c 0,6,7
 593 1342 593 1342 549 1304 c 0,8,9
 504 1266 504 1266 449 1266 c 0,10,11
 395 1266 395 1266 365 1304 c 0,12,13
 343 1332 343 1332 343 1369 c 0,14,15
 343 1381 343 1381 347 1398 c 0,16,17
 360 1454 360 1454 405 1492 c 128,-1,18
 450 1530 450 1530 505 1530 c 0,0,1
EndSplineSet
Validated: 1
EndChar

